<?xml version="1.0" encoding="UTF-8" standalone="no"?>
<!DOCTYPE svg PUBLIC "-//W3C//DTD SVG 1.1//EN"
 "http://www.w3.org/Graphics/SVG/1.1/DTD/svg11.dtd">
<!-- Generated by graphviz version 2.38.0 (20140413.2041)
 -->
<!-- Title: AOnode Pages: 1 -->
<!--zoomable 723 -->
<svg id="main" version="1.1" xmlns="http://www.w3.org/2000/svg" xmlns:xlink="http://www.w3.org/1999/xlink" xml:space="preserve" onload="init(evt)">
<style type="text/css"><![CDATA[
.edge:hover path { stroke: red; }
.edge:hover polygon { stroke: red; fill: red; }
]]></style>
<script type="text/javascript"><![CDATA[
var edges = document.getElementsByTagName('g');
if (edges && edges.length) {
  for (var i=0;i<edges.length;i++) {
    if (edges[i].id.substr(0,4)=='edge') {
      edges[i].setAttribute('class','edge');
    }
  }
}
]]></script>
        <defs>
                <circle id="rim" cx="0" cy="0" r="7"/>
                <circle id="rim2" cx="0" cy="0" r="3.5"/>
                <g id="zoomPlus">
                        <use xlink:href="#rim" fill="#404040">
                                <set attributeName="fill" to="#808080" begin="zoomplus.mouseover" end="zoomplus.mouseout"/>
                        </use>
                        <path d="M-4,0h8M0,-4v8" fill="none" stroke="white" stroke-width="1.5" pointer-events="none"/>
                </g>
                <g id="zoomMin">
                        <use xlink:href="#rim" fill="#404040">
                                <set attributeName="fill" to="#808080" begin="zoomminus.mouseover" end="zoomminus.mouseout"/>
                        </use>
                        <path d="M-4,0h8" fill="none" stroke="white" stroke-width="1.5" pointer-events="none"/>
                </g>
                <g id="dirArrow">
                        <path fill="none" stroke="white" stroke-width="1.5" d="M0,-3.0v7 M-2.5,-0.5L0,-3.0L2.5,-0.5"/>
                </g>
               <g id="resetDef">
                       <use xlink:href="#rim2" fill="#404040">
                               <set attributeName="fill" to="#808080" begin="reset.mouseover" end="reset.mouseout"/>
                       </use>
               </g>
        </defs>

<script type="text/javascript">
var viewWidth = 227;
var viewHeight = 723;
var sectionId = 'dynsection-0';
</script>
<script xlink:href="../../svgpan.js"/>
<svg id="graph" class="graph">
<g id="viewport">
<title>AOnode</title>
<polygon fill="white" stroke="none" points="-4,4 -4,-719 223.239,-719 223.239,4 -4,4"/>
<!-- Node1 -->
<g id="node1" class="node"><title>Node1</title>
<polygon fill="#bfbfbf" stroke="black" points="109.087,-351.5 109.087,-495.5 200.38,-495.5 200.38,-351.5 109.087,-351.5"/>
<text text-anchor="middle" x="154.733" y="-482.5" font-family="Helvetica,sans-Serif" font-size="10.00">AOnode</text>
<polyline fill="none" stroke="black" points="109.087,-475.5 200.38,-475.5 "/>
<text text-anchor="start" x="117.087" y="-462.5" font-family="Helvetica,sans-Serif" font-size="10.00">+ nCost</text>
<text text-anchor="start" x="117.087" y="-450.5" font-family="Helvetica,sans-Serif" font-size="10.00">+ nSolved</text>
<text text-anchor="start" x="117.087" y="-438.5" font-family="Helvetica,sans-Serif" font-size="10.00">+ nFeasible</text>
<polyline fill="none" stroke="black" points="109.087,-431.5 200.38,-431.5 "/>
<text text-anchor="start" x="117.087" y="-418.5" font-family="Helvetica,sans-Serif" font-size="10.00">+ AOnode()</text>
<text text-anchor="start" x="117.087" y="-406.5" font-family="Helvetica,sans-Serif" font-size="10.00">+ addArc()</text>
<text text-anchor="start" x="117.087" y="-394.5" font-family="Helvetica,sans-Serif" font-size="10.00">+ printNodeInfo()</text>
<text text-anchor="start" x="117.087" y="-382.5" font-family="Helvetica,sans-Serif" font-size="10.00">+ isFeasible()</text>
<text text-anchor="start" x="117.087" y="-370.5" font-family="Helvetica,sans-Serif" font-size="10.00">+ setSolved()</text>
<text text-anchor="start" x="117.087" y="-358.5" font-family="Helvetica,sans-Serif" font-size="10.00">+ ~AOnode()</text>
</g>
<!-- Node6 -->
<g id="node6" class="node"><title>Node6</title>
<polygon fill="white" stroke="#bfbfbf" points="52.3785,-242.5 52.3785,-302.5 175.088,-302.5 175.088,-242.5 52.3785,-242.5"/>
<text text-anchor="middle" x="113.733" y="-289.5" font-family="Helvetica,sans-Serif" font-size="10.00">std::vector&lt; AOnode * &gt;</text>
<polyline fill="none" stroke="#bfbfbf" points="52.3785,-282.5 175.088,-282.5 "/>
<text text-anchor="middle" x="113.733" y="-269.5" font-family="Helvetica,sans-Serif" font-size="10.00"> </text>
<polyline fill="none" stroke="#bfbfbf" points="52.3785,-262.5 175.088,-262.5 "/>
<text text-anchor="middle" x="113.733" y="-249.5" font-family="Helvetica,sans-Serif" font-size="10.00"> </text>
</g>
<!-- Node1&#45;&gt;Node6 -->
<g id="edge6" class="edge"><title>Node1&#45;&gt;Node6</title>
<path fill="none" stroke="#404040" d="M135.194,-351.491C131.71,-338.831 128.19,-326.036 125.035,-314.573"/>
<polygon fill="none" stroke="#404040" points="124.959,-314.297 119.511,-309.573 121.776,-302.727 127.224,-307.45 124.959,-314.297"/>
<text text-anchor="middle" x="154.324" y="-324" font-family="Helvetica,sans-Serif" font-size="10.00"> +elements</text>
</g>
<!-- Node2 -->
<g id="node2" class="node"><title>Node2</title>
<g id="a_node2"><a xlink:title="STL class. ">
<polygon fill="white" stroke="#bfbfbf" points="125.063,-544.5 125.063,-604.5 184.404,-604.5 184.404,-544.5 125.063,-544.5"/>
<text text-anchor="middle" x="154.733" y="-591.5" font-family="Helvetica,sans-Serif" font-size="10.00">std::string</text>
<polyline fill="none" stroke="#bfbfbf" points="125.063,-584.5 184.404,-584.5 "/>
<text text-anchor="middle" x="154.733" y="-571.5" font-family="Helvetica,sans-Serif" font-size="10.00"> </text>
<polyline fill="none" stroke="#bfbfbf" points="125.063,-564.5 184.404,-564.5 "/>
<text text-anchor="middle" x="154.733" y="-551.5" font-family="Helvetica,sans-Serif" font-size="10.00"> </text>
</a>
</g>
</g>
<!-- Node2&#45;&gt;Node1 -->
<g id="edge1" class="edge"><title>Node2&#45;&gt;Node1</title>
<path fill="none" stroke="#404040" d="M154.733,-544.418C154.733,-533.654 154.733,-520.845 154.733,-507.669"/>
<polygon fill="none" stroke="#404040" points="154.734,-507.514 150.734,-501.514 154.733,-495.514 158.734,-501.514 154.734,-507.514"/>
<text text-anchor="middle" x="175.155" y="-517" font-family="Helvetica,sans-Serif" font-size="10.00"> +nName</text>
</g>
<!-- Node3 -->
<g id="node3" class="node"><title>Node3</title>
<g id="a_node3"><a xlink:title="STL class. ">
<polygon fill="white" stroke="#bfbfbf" points="107.695,-642.5 107.695,-714.5 201.772,-714.5 201.772,-642.5 107.695,-642.5"/>
<text text-anchor="start" x="115.695" y="-701.5" font-family="Helvetica,sans-Serif" font-size="10.00">std::basic_string&lt;</text>
<text text-anchor="middle" x="154.733" y="-689.5" font-family="Helvetica,sans-Serif" font-size="10.00"> char &gt;</text>
<polyline fill="none" stroke="#bfbfbf" points="107.695,-682.5 201.772,-682.5 "/>
<text text-anchor="middle" x="154.733" y="-669.5" font-family="Helvetica,sans-Serif" font-size="10.00"> </text>
<polyline fill="none" stroke="#bfbfbf" points="107.695,-662.5 201.772,-662.5 "/>
<text text-anchor="middle" x="154.733" y="-649.5" font-family="Helvetica,sans-Serif" font-size="10.00"> </text>
</a>
</g>
</g>
<!-- Node3&#45;&gt;Node2 -->
<g id="edge2" class="edge"><title>Node3&#45;&gt;Node2</title>
<path fill="none" stroke="midnightblue" d="M154.733,-632.341C154.733,-622.918 154.733,-613.226 154.733,-604.573"/>
<polygon fill="none" stroke="midnightblue" points="151.234,-632.397 154.733,-642.397 158.234,-632.397 151.234,-632.397"/>
</g>
<!-- Node4 -->
<g id="node4" class="node"><title>Node4</title>
<polygon fill="white" stroke="#bfbfbf" points="53.2225,-0.5 53.2225,-60.5 174.244,-60.5 174.244,-0.5 53.2225,-0.5"/>
<text text-anchor="middle" x="113.733" y="-47.5" font-family="Helvetica,sans-Serif" font-size="10.00">std::vector&lt; HyperArc &gt;</text>
<polyline fill="none" stroke="#bfbfbf" points="53.2225,-40.5 174.244,-40.5 "/>
<text text-anchor="middle" x="113.733" y="-27.5" font-family="Helvetica,sans-Serif" font-size="10.00"> </text>
<polyline fill="none" stroke="#bfbfbf" points="53.2225,-20.5 174.244,-20.5 "/>
<text text-anchor="middle" x="113.733" y="-7.5" font-family="Helvetica,sans-Serif" font-size="10.00"> </text>
</g>
<!-- Node4&#45;&gt;Node1 -->
<g id="edge3" class="edge"><title>Node4&#45;&gt;Node1</title>
<path fill="none" stroke="#404040" d="M153.175,-60.5093C158.504,-66.0761 163.307,-72.2869 166.733,-79 212.128,-167.925 185.397,-203.172 183.733,-303 183.511,-316.339 184.968,-319.848 182.733,-333 182.387,-335.041 182.005,-337.101 181.593,-339.172"/>
<polygon fill="none" stroke="#404040" points="181.544,-339.394 184.143,-346.121 178.933,-351.107 176.334,-344.38 181.544,-339.394"/>
<text text-anchor="middle" x="205.486" y="-215" font-family="Helvetica,sans-Serif" font-size="10.00"> +arcs</text>
</g>
<!-- Node5 -->
<g id="node5" class="node"><title>Node5</title>
<g id="a_node5"><a xlink:href="../../db/dba/classHyperArc.xhtml" target="_top" xlink:title="class &quot;HyperArc&quot; for the hyperarc connecting one parent node to a number of child nodes in an AND rel...">
<polygon fill="white" stroke="black" points="72.536,-109.5 72.536,-193.5 154.931,-193.5 154.931,-109.5 72.536,-109.5"/>
<text text-anchor="middle" x="113.733" y="-180.5" font-family="Helvetica,sans-Serif" font-size="10.00">HyperArc</text>
<polyline fill="none" stroke="black" points="72.536,-173.5 154.931,-173.5 "/>
<text text-anchor="middle" x="113.733" y="-160.5" font-family="Helvetica,sans-Serif" font-size="10.00"> </text>
<polyline fill="none" stroke="black" points="72.536,-153.5 154.931,-153.5 "/>
<text text-anchor="start" x="80.536" y="-140.5" font-family="Helvetica,sans-Serif" font-size="10.00">+ HyperArc()</text>
<text text-anchor="start" x="80.536" y="-128.5" font-family="Helvetica,sans-Serif" font-size="10.00">+ printArcInfo()</text>
<text text-anchor="start" x="80.536" y="-116.5" font-family="Helvetica,sans-Serif" font-size="10.00">+ ~HyperArc()</text>
</a>
</g>
</g>
<!-- Node5&#45;&gt;Node4 -->
<g id="edge4" class="edge"><title>Node5&#45;&gt;Node4</title>
<path fill="none" stroke="#404040" d="M113.733,-109.214C113.733,-97.4807 113.733,-84.7021 113.733,-72.959"/>
<polygon fill="none" stroke="#404040" points="113.734,-72.7214 109.734,-66.7214 113.733,-60.7214 117.734,-66.7214 113.734,-72.7214"/>
<text text-anchor="middle" x="138.324" y="-82" font-family="Helvetica,sans-Serif" font-size="10.00"> +elements</text>
</g>
<!-- Node6&#45;&gt;Node5 -->
<g id="edge5" class="edge"><title>Node6&#45;&gt;Node5</title>
<path fill="none" stroke="#404040" d="M113.733,-242.389C113.733,-231.449 113.733,-218.635 113.733,-206.165"/>
<polygon fill="none" stroke="#404040" points="113.734,-205.893 109.734,-199.893 113.733,-193.893 117.734,-199.893 113.734,-205.893"/>
<text text-anchor="middle" x="135.544" y="-215" font-family="Helvetica,sans-Serif" font-size="10.00"> +children</text>
</g>
<!-- Node7 -->
<g id="node7" class="node"><title>Node7</title>
<g id="a_node7"><a xlink:title="STL class. ">
<polygon fill="white" stroke="#bfbfbf" points="-7.10543e-15,-393.5 -7.10543e-15,-453.5 85.467,-453.5 85.467,-393.5 -7.10543e-15,-393.5"/>
<text text-anchor="middle" x="42.7335" y="-440.5" font-family="Helvetica,sans-Serif" font-size="10.00">std::vector&lt; T &gt;</text>
<polyline fill="none" stroke="#bfbfbf" points="-7.10543e-15,-433.5 85.467,-433.5 "/>
<text text-anchor="middle" x="42.7335" y="-420.5" font-family="Helvetica,sans-Serif" font-size="10.00"> </text>
<polyline fill="none" stroke="#bfbfbf" points="-7.10543e-15,-413.5 85.467,-413.5 "/>
<text text-anchor="middle" x="42.7335" y="-400.5" font-family="Helvetica,sans-Serif" font-size="10.00"> </text>
</a>
</g>
</g>
<!-- Node7&#45;&gt;Node4 -->
<g id="edge9" class="edge"><title>Node7&#45;&gt;Node4</title>
<path fill="none" stroke="orange" d="M38.2508,-383.254C32.8357,-322.333 28.3955,-202.313 63.7335,-109 70.1982,-91.9294 80.8205,-74.6938 90.6155,-60.8253"/>
<polygon fill="orange" stroke="orange" points="34.767,-383.591 39.1929,-393.217 41.7359,-382.932 34.767,-383.591"/>
<text text-anchor="middle" x="70.573" y="-215" font-family="Helvetica,sans-Serif" font-size="10.00"> &lt; HyperArc &gt;</text>
</g>
<!-- Node7&#45;&gt;Node6 -->
<g id="edge7" class="edge"><title>Node7&#45;&gt;Node6</title>
<path fill="none" stroke="orange" d="M43.523,-383.058C45.3768,-363.373 49.8992,-339.812 60.3665,-321 64.0453,-314.388 69.001,-308.231 74.4161,-302.686"/>
<polygon fill="orange" stroke="orange" points="40.0167,-383.013 42.763,-393.246 46.9973,-383.534 40.0167,-383.013"/>
<text text-anchor="middle" x="92.417" y="-324" font-family="Helvetica,sans-Serif" font-size="10.00"> &lt; AOnode * &gt;</text>
</g>
<!-- Node8 -->
<g id="node8" class="node"><title>Node8</title>
<polygon fill="white" stroke="#bfbfbf" points="28.2335,-544.5 28.2335,-604.5 57.2335,-604.5 57.2335,-544.5 28.2335,-544.5"/>
<text text-anchor="middle" x="42.288" y="-591.5" font-family="Helvetica,sans-Serif" font-size="10.00">T</text>
<polyline fill="none" stroke="#bfbfbf" points="28.2335,-584.5 56.3425,-584.5 "/>
<text text-anchor="middle" x="42.288" y="-571.5" font-family="Helvetica,sans-Serif" font-size="10.00"> </text>
<polyline fill="none" stroke="#bfbfbf" points="28.2335,-564.5 56.3425,-564.5 "/>
<text text-anchor="middle" x="42.288" y="-551.5" font-family="Helvetica,sans-Serif" font-size="10.00"> </text>
</g>
<!-- Node8&#45;&gt;Node7 -->
<g id="edge8" class="edge"><title>Node8&#45;&gt;Node7</title>
<path fill="none" stroke="#404040" d="M42.7335,-544.418C42.7335,-521.958 42.7335,-490.593 42.7335,-465.573"/>
<polygon fill="none" stroke="#404040" points="42.7336,-465.509 38.7335,-459.509 42.7335,-453.509 46.7335,-459.509 42.7336,-465.509"/>
<text text-anchor="middle" x="67.324" y="-517" font-family="Helvetica,sans-Serif" font-size="10.00"> +elements</text>
</g>
</g>
</svg>
        <g id="navigator" transform="translate(0 0)" fill="#404254">
                <rect fill="#f2f5e9" fill-opacity="0.5" stroke="#606060" stroke-width=".5" x="0" y="0" width="60" height="60"/>
                <use id="zoomplus" xlink:href="#zoomPlus" x="17" y="9" onmousedown="handleZoom(evt,'in')"/>
                <use id="zoomminus" xlink:href="#zoomMin" x="42" y="9" onmousedown="handleZoom(evt,'out')"/>
                <use id="reset" xlink:href="#resetDef" x="30" y="36" onmousedown="handleReset()"/>
                <g id="arrowUp" xlink:href="#dirArrow" transform="translate(30 24)" onmousedown="handlePan(0,-1)">
                  <use xlink:href="#rim" fill="#404040">
                        <set attributeName="fill" to="#808080" begin="arrowUp.mouseover" end="arrowUp.mouseout"/>
                  </use>
                  <path fill="none" stroke="white" stroke-width="1.5" d="M0,-3.0v7 M-2.5,-0.5L0,-3.0L2.5,-0.5"/>
                </g>
                <g id="arrowRight" xlink:href="#dirArrow" transform="rotate(90) translate(36 -43)" onmousedown="handlePan(1,0)">
                  <use xlink:href="#rim" fill="#404040">
                        <set attributeName="fill" to="#808080" begin="arrowRight.mouseover" end="arrowRight.mouseout"/>
                  </use>
                  <path fill="none" stroke="white" stroke-width="1.5" d="M0,-3.0v7 M-2.5,-0.5L0,-3.0L2.5,-0.5"/>
                </g>
                <g id="arrowDown" xlink:href="#dirArrow" transform="rotate(180) translate(-30 -48)" onmousedown="handlePan(0,1)">
                  <use xlink:href="#rim" fill="#404040">
                        <set attributeName="fill" to="#808080" begin="arrowDown.mouseover" end="arrowDown.mouseout"/>
                  </use>
                  <path fill="none" stroke="white" stroke-width="1.5" d="M0,-3.0v7 M-2.5,-0.5L0,-3.0L2.5,-0.5"/>
                </g>
                <g id="arrowLeft" xlink:href="#dirArrow" transform="rotate(270) translate(-36 17)" onmousedown="handlePan(-1,0)">
                  <use xlink:href="#rim" fill="#404040">
                        <set attributeName="fill" to="#808080" begin="arrowLeft.mouseover" end="arrowLeft.mouseout"/>
                  </use>
                  <path fill="none" stroke="white" stroke-width="1.5" d="M0,-3.0v7 M-2.5,-0.5L0,-3.0L2.5,-0.5"/>
                </g>
        </g>
        <svg viewBox="0 0 15 15" width="100%" height="30px" preserveAspectRatio="xMaxYMin meet">
         <g id="arrow_out" transform="scale(0.3 0.3)">
          <a xlink:href="classAOnode__coll__graph_org.svg" target="_base">
           <rect id="button" ry="5" rx="5" y="6" x="6" height="38" width="38"
                fill="#f2f5e9" fill-opacity="0.5" stroke="#606060" stroke-width="1.0"/>
           <path id="arrow"
             d="M 11.500037,31.436501 C 11.940474,20.09759 22.043105,11.32322 32.158766,21.979434 L 37.068811,17.246167 C 37.068811,17.246167 37.088388,32 37.088388,32 L 22.160133,31.978069 C 22.160133,31.978069 26.997745,27.140456 26.997745,27.140456 C 18.528582,18.264221 13.291696,25.230495 11.500037,31.436501 z"
             style="fill:#404040;"/>
          </a>
         </g>
        </svg>
</svg>
