<?xml version="1.0" encoding="UTF-8" standalone="no"?>
<!DOCTYPE svg PUBLIC "-//W3C//DTD SVG 1.1//EN"
 "http://www.w3.org/Graphics/SVG/1.1/DTD/svg11.dtd">
<!-- Generated by graphviz version 2.38.0 (20140413.2041)
 -->
<!-- Title: AOnode Pages: 1 -->
<svg width="277pt" height="735pt"
 viewBox="0.00 0.00 277.24 735.00" xmlns="http://www.w3.org/2000/svg" xmlns:xlink="http://www.w3.org/1999/xlink">
<g id="graph0" class="graph" transform="scale(1 1) rotate(0) translate(4 731)">
<title>AOnode</title>
<polygon fill="white" stroke="none" points="-4,4 -4,-731 273.24,-731 273.24,4 -4,4"/>
<!-- Node1 -->
<g id="node1" class="node"><title>Node1</title>
<polygon fill="#bfbfbf" stroke="black" points="164.087,-363.5 164.087,-507.5 255.38,-507.5 255.38,-363.5 164.087,-363.5"/>
<text text-anchor="middle" x="209.733" y="-494.5" font-family="Helvetica,sans-Serif" font-size="10.00">AOnode</text>
<polyline fill="none" stroke="black" points="164.087,-487.5 255.38,-487.5 "/>
<text text-anchor="start" x="172.087" y="-474.5" font-family="Helvetica,sans-Serif" font-size="10.00">+ nCost</text>
<text text-anchor="start" x="172.087" y="-462.5" font-family="Helvetica,sans-Serif" font-size="10.00">+ nSolved</text>
<text text-anchor="start" x="172.087" y="-450.5" font-family="Helvetica,sans-Serif" font-size="10.00">+ nFeasible</text>
<polyline fill="none" stroke="black" points="164.087,-443.5 255.38,-443.5 "/>
<text text-anchor="start" x="172.087" y="-430.5" font-family="Helvetica,sans-Serif" font-size="10.00">+ AOnode()</text>
<text text-anchor="start" x="172.087" y="-418.5" font-family="Helvetica,sans-Serif" font-size="10.00">+ addArc()</text>
<text text-anchor="start" x="172.087" y="-406.5" font-family="Helvetica,sans-Serif" font-size="10.00">+ printNodeInfo()</text>
<text text-anchor="start" x="172.087" y="-394.5" font-family="Helvetica,sans-Serif" font-size="10.00">+ isFeasible()</text>
<text text-anchor="start" x="172.087" y="-382.5" font-family="Helvetica,sans-Serif" font-size="10.00">+ setSolved()</text>
<text text-anchor="start" x="172.087" y="-370.5" font-family="Helvetica,sans-Serif" font-size="10.00">+ ~AOnode()</text>
</g>
<!-- Node2 -->
<g id="node2" class="node"><title>Node2</title>
<polygon fill="white" stroke="#bfbfbf" points="83.3785,-254.5 83.3785,-314.5 206.088,-314.5 206.088,-254.5 83.3785,-254.5"/>
<text text-anchor="middle" x="144.733" y="-301.5" font-family="Helvetica,sans-Serif" font-size="10.00">std::vector&lt; AOnode * &gt;</text>
<polyline fill="none" stroke="#bfbfbf" points="83.3785,-294.5 206.088,-294.5 "/>
<text text-anchor="middle" x="144.733" y="-281.5" font-family="Helvetica,sans-Serif" font-size="10.00"> </text>
<polyline fill="none" stroke="#bfbfbf" points="83.3785,-274.5 206.088,-274.5 "/>
<text text-anchor="middle" x="144.733" y="-261.5" font-family="Helvetica,sans-Serif" font-size="10.00"> </text>
</g>
<!-- Node1&#45;&gt;Node2 -->
<g id="edge2" class="edge"><title>Node1&#45;&gt;Node2</title>
<path fill="none" stroke="#404040" d="M199.337,-363.499C196.384,-352.955 192.595,-342.462 187.733,-333 186.236,-330.086 184.515,-327.213 182.64,-324.412"/>
<polygon fill="none" stroke="#404040" points="182.504,-324.231 175.705,-321.828 175.307,-314.628 182.106,-317.031 182.504,-324.231"/>
<text text-anchor="middle" x="217.324" y="-336" font-family="Helvetica,sans-Serif" font-size="10.00"> +elements</text>
</g>
<!-- Node2&#45;&gt;Node1 -->
<g id="edge1" class="edge"><title>Node2&#45;&gt;Node1</title>
<path fill="none" stroke="#404040" d="M141.803,-314.531C141.7,-324.413 142.596,-335.386 145.772,-345 148.677,-353.798 152.779,-362.476 157.518,-370.763"/>
<polygon fill="none" stroke="#404040" points="157.544,-370.804 164.092,-373.825 163.822,-381.031 157.274,-378.011 157.544,-370.804"/>
<text text-anchor="middle" x="167.714" y="-336" font-family="Helvetica,sans-Serif" font-size="10.00"> +parents</text>
</g>
<!-- Node8 -->
<g id="node8" class="node"><title>Node8</title>
<g id="a_node8"><a xlink:href="../../db/dba/classHyperArc.xhtml" target="_top" xlink:title="class &quot;HyperArc&quot; for the hyperarc connecting one parent node to a number of child nodes in an AND rel...">
<polygon fill="white" stroke="black" points="103.536,-109.5 103.536,-205.5 185.931,-205.5 185.931,-109.5 103.536,-109.5"/>
<text text-anchor="middle" x="144.733" y="-192.5" font-family="Helvetica,sans-Serif" font-size="10.00">HyperArc</text>
<polyline fill="none" stroke="black" points="103.536,-185.5 185.931,-185.5 "/>
<text text-anchor="start" x="111.536" y="-172.5" font-family="Helvetica,sans-Serif" font-size="10.00">+ hIndex</text>
<text text-anchor="start" x="111.536" y="-160.5" font-family="Helvetica,sans-Serif" font-size="10.00">+ hCost</text>
<polyline fill="none" stroke="black" points="103.536,-153.5 185.931,-153.5 "/>
<text text-anchor="start" x="111.536" y="-140.5" font-family="Helvetica,sans-Serif" font-size="10.00">+ HyperArc()</text>
<text text-anchor="start" x="111.536" y="-128.5" font-family="Helvetica,sans-Serif" font-size="10.00">+ printArcInfo()</text>
<text text-anchor="start" x="111.536" y="-116.5" font-family="Helvetica,sans-Serif" font-size="10.00">+ ~HyperArc()</text>
</a>
</g>
</g>
<!-- Node2&#45;&gt;Node8 -->
<g id="edge9" class="edge"><title>Node2&#45;&gt;Node8</title>
<path fill="none" stroke="#404040" d="M144.733,-254.193C144.733,-243.256 144.733,-230.409 144.733,-217.741"/>
<polygon fill="none" stroke="#404040" points="144.734,-217.718 140.734,-211.718 144.733,-205.718 148.734,-211.718 144.734,-217.718"/>
<text text-anchor="middle" x="166.544" y="-227" font-family="Helvetica,sans-Serif" font-size="10.00"> +children</text>
</g>
<!-- Node3 -->
<g id="node3" class="node"><title>Node3</title>
<g id="a_node3"><a xlink:title="STL class. ">
<polygon fill="white" stroke="#bfbfbf" points="-7.10543e-15,-405.5 -7.10543e-15,-465.5 85.467,-465.5 85.467,-405.5 -7.10543e-15,-405.5"/>
<text text-anchor="middle" x="42.7335" y="-452.5" font-family="Helvetica,sans-Serif" font-size="10.00">std::vector&lt; T &gt;</text>
<polyline fill="none" stroke="#bfbfbf" points="-7.10543e-15,-445.5 85.467,-445.5 "/>
<text text-anchor="middle" x="42.7335" y="-432.5" font-family="Helvetica,sans-Serif" font-size="10.00"> </text>
<polyline fill="none" stroke="#bfbfbf" points="-7.10543e-15,-425.5 85.467,-425.5 "/>
<text text-anchor="middle" x="42.7335" y="-412.5" font-family="Helvetica,sans-Serif" font-size="10.00"> </text>
</a>
</g>
</g>
<!-- Node3&#45;&gt;Node2 -->
<g id="edge3" class="edge"><title>Node3&#45;&gt;Node2</title>
<path fill="none" stroke="orange" d="M49.5476,-395.26C54.4901,-375.174 62.7722,-351.191 76.3665,-333 81.3845,-326.285 87.6381,-320.175 94.3097,-314.74"/>
<polygon fill="orange" stroke="orange" points="46.1237,-394.532 47.3189,-405.059 52.9494,-396.085 46.1237,-394.532"/>
<text text-anchor="middle" x="108.417" y="-336" font-family="Helvetica,sans-Serif" font-size="10.00"> &lt; AOnode * &gt;</text>
</g>
<!-- Node7 -->
<g id="node7" class="node"><title>Node7</title>
<polygon fill="white" stroke="#bfbfbf" points="84.2225,-0.5 84.2225,-60.5 205.244,-60.5 205.244,-0.5 84.2225,-0.5"/>
<text text-anchor="middle" x="144.733" y="-47.5" font-family="Helvetica,sans-Serif" font-size="10.00">std::vector&lt; HyperArc &gt;</text>
<polyline fill="none" stroke="#bfbfbf" points="84.2225,-40.5 205.244,-40.5 "/>
<text text-anchor="middle" x="144.733" y="-27.5" font-family="Helvetica,sans-Serif" font-size="10.00"> </text>
<polyline fill="none" stroke="#bfbfbf" points="84.2225,-20.5 205.244,-20.5 "/>
<text text-anchor="middle" x="144.733" y="-7.5" font-family="Helvetica,sans-Serif" font-size="10.00"> </text>
</g>
<!-- Node3&#45;&gt;Node7 -->
<g id="edge10" class="edge"><title>Node3&#45;&gt;Node7</title>
<path fill="none" stroke="orange" d="M43.8306,-394.936C46.7054,-332.281 57.1076,-207.262 94.7335,-109 101.261,-91.9533 111.89,-74.7203 121.673,-60.8473"/>
<polygon fill="orange" stroke="orange" points="40.3237,-395.029 43.4034,-405.167 47.3176,-395.321 40.3237,-395.029"/>
<text text-anchor="middle" x="94.573" y="-227" font-family="Helvetica,sans-Serif" font-size="10.00"> &lt; HyperArc &gt;</text>
</g>
<!-- Node4 -->
<g id="node4" class="node"><title>Node4</title>
<polygon fill="white" stroke="#bfbfbf" points="28.2335,-556.5 28.2335,-616.5 57.2335,-616.5 57.2335,-556.5 28.2335,-556.5"/>
<text text-anchor="middle" x="42.288" y="-603.5" font-family="Helvetica,sans-Serif" font-size="10.00">T</text>
<polyline fill="none" stroke="#bfbfbf" points="28.2335,-596.5 56.3425,-596.5 "/>
<text text-anchor="middle" x="42.288" y="-583.5" font-family="Helvetica,sans-Serif" font-size="10.00"> </text>
<polyline fill="none" stroke="#bfbfbf" points="28.2335,-576.5 56.3425,-576.5 "/>
<text text-anchor="middle" x="42.288" y="-563.5" font-family="Helvetica,sans-Serif" font-size="10.00"> </text>
</g>
<!-- Node4&#45;&gt;Node3 -->
<g id="edge4" class="edge"><title>Node4&#45;&gt;Node3</title>
<path fill="none" stroke="#404040" d="M42.7335,-556.418C42.7335,-533.958 42.7335,-502.593 42.7335,-477.573"/>
<polygon fill="none" stroke="#404040" points="42.7336,-477.509 38.7335,-471.509 42.7335,-465.509 46.7335,-471.509 42.7336,-477.509"/>
<text text-anchor="middle" x="67.324" y="-529" font-family="Helvetica,sans-Serif" font-size="10.00"> +elements</text>
</g>
<!-- Node5 -->
<g id="node5" class="node"><title>Node5</title>
<g id="a_node5"><a xlink:title="STL class. ">
<polygon fill="white" stroke="#bfbfbf" points="180.063,-556.5 180.063,-616.5 239.404,-616.5 239.404,-556.5 180.063,-556.5"/>
<text text-anchor="middle" x="209.733" y="-603.5" font-family="Helvetica,sans-Serif" font-size="10.00">std::string</text>
<polyline fill="none" stroke="#bfbfbf" points="180.063,-596.5 239.404,-596.5 "/>
<text text-anchor="middle" x="209.733" y="-583.5" font-family="Helvetica,sans-Serif" font-size="10.00"> </text>
<polyline fill="none" stroke="#bfbfbf" points="180.063,-576.5 239.404,-576.5 "/>
<text text-anchor="middle" x="209.733" y="-563.5" font-family="Helvetica,sans-Serif" font-size="10.00"> </text>
</a>
</g>
</g>
<!-- Node5&#45;&gt;Node1 -->
<g id="edge5" class="edge"><title>Node5&#45;&gt;Node1</title>
<path fill="none" stroke="#404040" d="M209.733,-556.418C209.733,-545.654 209.733,-532.845 209.733,-519.669"/>
<polygon fill="none" stroke="#404040" points="209.734,-519.514 205.734,-513.514 209.733,-507.514 213.734,-513.514 209.734,-519.514"/>
<text text-anchor="middle" x="230.155" y="-529" font-family="Helvetica,sans-Serif" font-size="10.00"> +nName</text>
</g>
<!-- Node6 -->
<g id="node6" class="node"><title>Node6</title>
<g id="a_node6"><a xlink:title="STL class. ">
<polygon fill="white" stroke="#bfbfbf" points="162.695,-654.5 162.695,-726.5 256.772,-726.5 256.772,-654.5 162.695,-654.5"/>
<text text-anchor="start" x="170.695" y="-713.5" font-family="Helvetica,sans-Serif" font-size="10.00">std::basic_string&lt;</text>
<text text-anchor="middle" x="209.733" y="-701.5" font-family="Helvetica,sans-Serif" font-size="10.00"> char &gt;</text>
<polyline fill="none" stroke="#bfbfbf" points="162.695,-694.5 256.772,-694.5 "/>
<text text-anchor="middle" x="209.733" y="-681.5" font-family="Helvetica,sans-Serif" font-size="10.00"> </text>
<polyline fill="none" stroke="#bfbfbf" points="162.695,-674.5 256.772,-674.5 "/>
<text text-anchor="middle" x="209.733" y="-661.5" font-family="Helvetica,sans-Serif" font-size="10.00"> </text>
</a>
</g>
</g>
<!-- Node6&#45;&gt;Node5 -->
<g id="edge6" class="edge"><title>Node6&#45;&gt;Node5</title>
<path fill="none" stroke="midnightblue" d="M209.733,-644.341C209.733,-634.918 209.733,-625.226 209.733,-616.573"/>
<polygon fill="none" stroke="midnightblue" points="206.234,-644.397 209.733,-654.397 213.234,-644.397 206.234,-644.397"/>
</g>
<!-- Node7&#45;&gt;Node1 -->
<g id="edge7" class="edge"><title>Node7&#45;&gt;Node1</title>
<path fill="none" stroke="#404040" d="M183.696,-60.7664C189.085,-66.3011 194.032,-72.4346 197.733,-79 254.161,-179.074 235.02,-218.614 245.733,-333 246.307,-339.126 246.139,-345.354 245.409,-351.556"/>
<polygon fill="none" stroke="#404040" points="245.403,-351.595 248.324,-358.187 243.362,-363.42 240.441,-356.827 245.403,-351.595"/>
<text text-anchor="middle" x="255.486" y="-227" font-family="Helvetica,sans-Serif" font-size="10.00"> +arcs</text>
</g>
<!-- Node8&#45;&gt;Node7 -->
<g id="edge8" class="edge"><title>Node8&#45;&gt;Node7</title>
<path fill="none" stroke="#404040" d="M144.733,-109.243C144.733,-97.2607 144.733,-84.4824 144.733,-72.82"/>
<polygon fill="none" stroke="#404040" points="144.734,-72.6935 140.734,-66.6936 144.733,-60.6935 148.734,-66.6935 144.734,-72.6935"/>
<text text-anchor="middle" x="169.324" y="-82" font-family="Helvetica,sans-Serif" font-size="10.00"> +elements</text>
</g>
</g>
</svg>
