<?xml version="1.0" encoding="UTF-8" standalone="no"?>
<!DOCTYPE svg PUBLIC "-//W3C//DTD SVG 1.1//EN"
 "http://www.w3.org/Graphics/SVG/1.1/DTD/svg11.dtd">
<!-- Generated by graphviz version 2.38.0 (20140413.2041)
 -->
<!-- Title: AOnode Pages: 1 -->
<svg width="276pt" height="723pt"
 viewBox="0.00 0.00 276.24 723.00" xmlns="http://www.w3.org/2000/svg" xmlns:xlink="http://www.w3.org/1999/xlink">
<g id="graph0" class="graph" transform="scale(1 1) rotate(0) translate(4 719)">
<title>AOnode</title>
<polygon fill="white" stroke="none" points="-4,4 -4,-719 272.24,-719 272.24,4 -4,4"/>
<!-- Node1 -->
<g id="node1" class="node"><title>Node1</title>
<polygon fill="#bfbfbf" stroke="black" points="164.087,-351.5 164.087,-495.5 255.38,-495.5 255.38,-351.5 164.087,-351.5"/>
<text text-anchor="middle" x="209.733" y="-482.5" font-family="Helvetica,sans-Serif" font-size="10.00">AOnode</text>
<polyline fill="none" stroke="black" points="164.087,-475.5 255.38,-475.5 "/>
<text text-anchor="start" x="172.087" y="-462.5" font-family="Helvetica,sans-Serif" font-size="10.00">+ nCost</text>
<text text-anchor="start" x="172.087" y="-450.5" font-family="Helvetica,sans-Serif" font-size="10.00">+ nSolved</text>
<text text-anchor="start" x="172.087" y="-438.5" font-family="Helvetica,sans-Serif" font-size="10.00">+ nFeasible</text>
<polyline fill="none" stroke="black" points="164.087,-431.5 255.38,-431.5 "/>
<text text-anchor="start" x="172.087" y="-418.5" font-family="Helvetica,sans-Serif" font-size="10.00">+ AOnode()</text>
<text text-anchor="start" x="172.087" y="-406.5" font-family="Helvetica,sans-Serif" font-size="10.00">+ addArc()</text>
<text text-anchor="start" x="172.087" y="-394.5" font-family="Helvetica,sans-Serif" font-size="10.00">+ printNodeInfo()</text>
<text text-anchor="start" x="172.087" y="-382.5" font-family="Helvetica,sans-Serif" font-size="10.00">+ isFeasible()</text>
<text text-anchor="start" x="172.087" y="-370.5" font-family="Helvetica,sans-Serif" font-size="10.00">+ setSolved()</text>
<text text-anchor="start" x="172.087" y="-358.5" font-family="Helvetica,sans-Serif" font-size="10.00">+ ~AOnode()</text>
</g>
<!-- Node2 -->
<g id="node2" class="node"><title>Node2</title>
<polygon fill="white" stroke="#bfbfbf" points="83.3785,-242.5 83.3785,-302.5 206.088,-302.5 206.088,-242.5 83.3785,-242.5"/>
<text text-anchor="middle" x="144.733" y="-289.5" font-family="Helvetica,sans-Serif" font-size="10.00">std::vector&lt; AOnode * &gt;</text>
<polyline fill="none" stroke="#bfbfbf" points="83.3785,-282.5 206.088,-282.5 "/>
<text text-anchor="middle" x="144.733" y="-269.5" font-family="Helvetica,sans-Serif" font-size="10.00"> </text>
<polyline fill="none" stroke="#bfbfbf" points="83.3785,-262.5 206.088,-262.5 "/>
<text text-anchor="middle" x="144.733" y="-249.5" font-family="Helvetica,sans-Serif" font-size="10.00"> </text>
</g>
<!-- Node1&#45;&gt;Node2 -->
<g id="edge2" class="edge"><title>Node1&#45;&gt;Node2</title>
<path fill="none" stroke="#404040" d="M199.337,-351.499C196.384,-340.955 192.595,-330.462 187.733,-321 186.236,-318.086 184.515,-315.213 182.64,-312.412"/>
<polygon fill="none" stroke="#404040" points="182.504,-312.231 175.705,-309.828 175.307,-302.628 182.106,-305.031 182.504,-312.231"/>
<text text-anchor="middle" x="217.324" y="-324" font-family="Helvetica,sans-Serif" font-size="10.00"> +elements</text>
</g>
<!-- Node2&#45;&gt;Node1 -->
<g id="edge1" class="edge"><title>Node2&#45;&gt;Node1</title>
<path fill="none" stroke="#404040" d="M141.803,-302.531C141.7,-312.413 142.596,-323.386 145.772,-333 148.677,-341.798 152.779,-350.476 157.518,-358.763"/>
<polygon fill="none" stroke="#404040" points="157.544,-358.804 164.092,-361.825 163.822,-369.031 157.274,-366.011 157.544,-358.804"/>
<text text-anchor="middle" x="167.714" y="-324" font-family="Helvetica,sans-Serif" font-size="10.00"> +parents</text>
</g>
<!-- Node8 -->
<g id="node8" class="node"><title>Node8</title>
<g id="a_node8"><a xlink:href="../../db/dba/classHyperArc.xhtml" target="_top" xlink:title="class &quot;HyperArc&quot; for the hyperarc connecting one parent node to a number of child nodes in an AND rel...">
<polygon fill="white" stroke="black" points="103.536,-109.5 103.536,-193.5 185.931,-193.5 185.931,-109.5 103.536,-109.5"/>
<text text-anchor="middle" x="144.733" y="-180.5" font-family="Helvetica,sans-Serif" font-size="10.00">HyperArc</text>
<polyline fill="none" stroke="black" points="103.536,-173.5 185.931,-173.5 "/>
<text text-anchor="start" x="111.536" y="-160.5" font-family="Helvetica,sans-Serif" font-size="10.00">+ hCost</text>
<polyline fill="none" stroke="black" points="103.536,-153.5 185.931,-153.5 "/>
<text text-anchor="start" x="111.536" y="-140.5" font-family="Helvetica,sans-Serif" font-size="10.00">+ HyperArc()</text>
<text text-anchor="start" x="111.536" y="-128.5" font-family="Helvetica,sans-Serif" font-size="10.00">+ printArcInfo()</text>
<text text-anchor="start" x="111.536" y="-116.5" font-family="Helvetica,sans-Serif" font-size="10.00">+ ~HyperArc()</text>
</a>
</g>
</g>
<!-- Node2&#45;&gt;Node8 -->
<g id="edge9" class="edge"><title>Node2&#45;&gt;Node8</title>
<path fill="none" stroke="#404040" d="M144.733,-242.389C144.733,-231.449 144.733,-218.635 144.733,-206.165"/>
<polygon fill="none" stroke="#404040" points="144.734,-205.893 140.734,-199.893 144.733,-193.893 148.734,-199.893 144.734,-205.893"/>
<text text-anchor="middle" x="166.544" y="-215" font-family="Helvetica,sans-Serif" font-size="10.00"> +children</text>
</g>
<!-- Node3 -->
<g id="node3" class="node"><title>Node3</title>
<g id="a_node3"><a xlink:title="STL class. ">
<polygon fill="white" stroke="#bfbfbf" points="-7.10543e-15,-393.5 -7.10543e-15,-453.5 85.467,-453.5 85.467,-393.5 -7.10543e-15,-393.5"/>
<text text-anchor="middle" x="42.7335" y="-440.5" font-family="Helvetica,sans-Serif" font-size="10.00">std::vector&lt; T &gt;</text>
<polyline fill="none" stroke="#bfbfbf" points="-7.10543e-15,-433.5 85.467,-433.5 "/>
<text text-anchor="middle" x="42.7335" y="-420.5" font-family="Helvetica,sans-Serif" font-size="10.00"> </text>
<polyline fill="none" stroke="#bfbfbf" points="-7.10543e-15,-413.5 85.467,-413.5 "/>
<text text-anchor="middle" x="42.7335" y="-400.5" font-family="Helvetica,sans-Serif" font-size="10.00"> </text>
</a>
</g>
</g>
<!-- Node3&#45;&gt;Node2 -->
<g id="edge3" class="edge"><title>Node3&#45;&gt;Node2</title>
<path fill="none" stroke="orange" d="M49.5476,-383.26C54.4901,-363.174 62.7722,-339.191 76.3665,-321 81.3845,-314.285 87.6381,-308.175 94.3097,-302.74"/>
<polygon fill="orange" stroke="orange" points="46.1237,-382.532 47.3189,-393.059 52.9494,-384.085 46.1237,-382.532"/>
<text text-anchor="middle" x="108.417" y="-324" font-family="Helvetica,sans-Serif" font-size="10.00"> &lt; AOnode * &gt;</text>
</g>
<!-- Node7 -->
<g id="node7" class="node"><title>Node7</title>
<polygon fill="white" stroke="#bfbfbf" points="84.2225,-0.5 84.2225,-60.5 205.244,-60.5 205.244,-0.5 84.2225,-0.5"/>
<text text-anchor="middle" x="144.733" y="-47.5" font-family="Helvetica,sans-Serif" font-size="10.00">std::vector&lt; HyperArc &gt;</text>
<polyline fill="none" stroke="#bfbfbf" points="84.2225,-40.5 205.244,-40.5 "/>
<text text-anchor="middle" x="144.733" y="-27.5" font-family="Helvetica,sans-Serif" font-size="10.00"> </text>
<polyline fill="none" stroke="#bfbfbf" points="84.2225,-20.5 205.244,-20.5 "/>
<text text-anchor="middle" x="144.733" y="-7.5" font-family="Helvetica,sans-Serif" font-size="10.00"> </text>
</g>
<!-- Node3&#45;&gt;Node7 -->
<g id="edge10" class="edge"><title>Node3&#45;&gt;Node7</title>
<path fill="none" stroke="orange" d="M44.1562,-383.078C47.4661,-322.308 58.4407,-202.942 94.7335,-109 101.369,-91.8234 112.133,-74.4396 121.977,-60.501"/>
<polygon fill="orange" stroke="orange" points="40.6453,-383.21 43.6391,-393.373 47.6365,-383.561 40.6453,-383.21"/>
<text text-anchor="middle" x="96.573" y="-215" font-family="Helvetica,sans-Serif" font-size="10.00"> &lt; HyperArc &gt;</text>
</g>
<!-- Node4 -->
<g id="node4" class="node"><title>Node4</title>
<polygon fill="white" stroke="#bfbfbf" points="28.2335,-544.5 28.2335,-604.5 57.2335,-604.5 57.2335,-544.5 28.2335,-544.5"/>
<text text-anchor="middle" x="42.288" y="-591.5" font-family="Helvetica,sans-Serif" font-size="10.00">T</text>
<polyline fill="none" stroke="#bfbfbf" points="28.2335,-584.5 56.3425,-584.5 "/>
<text text-anchor="middle" x="42.288" y="-571.5" font-family="Helvetica,sans-Serif" font-size="10.00"> </text>
<polyline fill="none" stroke="#bfbfbf" points="28.2335,-564.5 56.3425,-564.5 "/>
<text text-anchor="middle" x="42.288" y="-551.5" font-family="Helvetica,sans-Serif" font-size="10.00"> </text>
</g>
<!-- Node4&#45;&gt;Node3 -->
<g id="edge4" class="edge"><title>Node4&#45;&gt;Node3</title>
<path fill="none" stroke="#404040" d="M42.7335,-544.418C42.7335,-521.958 42.7335,-490.593 42.7335,-465.573"/>
<polygon fill="none" stroke="#404040" points="42.7336,-465.509 38.7335,-459.509 42.7335,-453.509 46.7335,-459.509 42.7336,-465.509"/>
<text text-anchor="middle" x="67.324" y="-517" font-family="Helvetica,sans-Serif" font-size="10.00"> +elements</text>
</g>
<!-- Node5 -->
<g id="node5" class="node"><title>Node5</title>
<g id="a_node5"><a xlink:title="STL class. ">
<polygon fill="white" stroke="#bfbfbf" points="180.063,-544.5 180.063,-604.5 239.404,-604.5 239.404,-544.5 180.063,-544.5"/>
<text text-anchor="middle" x="209.733" y="-591.5" font-family="Helvetica,sans-Serif" font-size="10.00">std::string</text>
<polyline fill="none" stroke="#bfbfbf" points="180.063,-584.5 239.404,-584.5 "/>
<text text-anchor="middle" x="209.733" y="-571.5" font-family="Helvetica,sans-Serif" font-size="10.00"> </text>
<polyline fill="none" stroke="#bfbfbf" points="180.063,-564.5 239.404,-564.5 "/>
<text text-anchor="middle" x="209.733" y="-551.5" font-family="Helvetica,sans-Serif" font-size="10.00"> </text>
</a>
</g>
</g>
<!-- Node5&#45;&gt;Node1 -->
<g id="edge5" class="edge"><title>Node5&#45;&gt;Node1</title>
<path fill="none" stroke="#404040" d="M209.733,-544.418C209.733,-533.654 209.733,-520.845 209.733,-507.669"/>
<polygon fill="none" stroke="#404040" points="209.734,-507.514 205.734,-501.514 209.733,-495.514 213.734,-501.514 209.734,-507.514"/>
<text text-anchor="middle" x="230.155" y="-517" font-family="Helvetica,sans-Serif" font-size="10.00"> +nName</text>
</g>
<!-- Node6 -->
<g id="node6" class="node"><title>Node6</title>
<g id="a_node6"><a xlink:title="STL class. ">
<polygon fill="white" stroke="#bfbfbf" points="162.695,-642.5 162.695,-714.5 256.772,-714.5 256.772,-642.5 162.695,-642.5"/>
<text text-anchor="start" x="170.695" y="-701.5" font-family="Helvetica,sans-Serif" font-size="10.00">std::basic_string&lt;</text>
<text text-anchor="middle" x="209.733" y="-689.5" font-family="Helvetica,sans-Serif" font-size="10.00"> char &gt;</text>
<polyline fill="none" stroke="#bfbfbf" points="162.695,-682.5 256.772,-682.5 "/>
<text text-anchor="middle" x="209.733" y="-669.5" font-family="Helvetica,sans-Serif" font-size="10.00"> </text>
<polyline fill="none" stroke="#bfbfbf" points="162.695,-662.5 256.772,-662.5 "/>
<text text-anchor="middle" x="209.733" y="-649.5" font-family="Helvetica,sans-Serif" font-size="10.00"> </text>
</a>
</g>
</g>
<!-- Node6&#45;&gt;Node5 -->
<g id="edge6" class="edge"><title>Node6&#45;&gt;Node5</title>
<path fill="none" stroke="midnightblue" d="M209.733,-632.341C209.733,-622.918 209.733,-613.226 209.733,-604.573"/>
<polygon fill="none" stroke="midnightblue" points="206.234,-632.397 209.733,-642.397 213.234,-632.397 206.234,-632.397"/>
</g>
<!-- Node7&#45;&gt;Node1 -->
<g id="edge7" class="edge"><title>Node7&#45;&gt;Node1</title>
<path fill="none" stroke="#404040" d="M183.379,-60.5241C188.876,-66.126 193.941,-72.344 197.733,-79 252.02,-174.269 235.016,-211.874 245.733,-321 246.335,-327.123 246.187,-333.349 245.472,-339.55"/>
<polygon fill="none" stroke="#404040" points="245.467,-339.583 248.4,-346.17 243.447,-351.412 240.514,-344.824 245.467,-339.583"/>
<text text-anchor="middle" x="254.486" y="-215" font-family="Helvetica,sans-Serif" font-size="10.00"> +arcs</text>
</g>
<!-- Node8&#45;&gt;Node7 -->
<g id="edge8" class="edge"><title>Node8&#45;&gt;Node7</title>
<path fill="none" stroke="#404040" d="M144.733,-109.214C144.733,-97.4807 144.733,-84.7021 144.733,-72.959"/>
<polygon fill="none" stroke="#404040" points="144.734,-72.7214 140.734,-66.7214 144.733,-60.7214 148.734,-66.7214 144.734,-72.7214"/>
<text text-anchor="middle" x="169.324" y="-82" font-family="Helvetica,sans-Serif" font-size="10.00"> +elements</text>
</g>
</g>
</svg>
