<?xml version="1.0" encoding="UTF-8" standalone="no"?>
<!DOCTYPE svg PUBLIC "-//W3C//DTD SVG 1.1//EN"
 "http://www.w3.org/Graphics/SVG/1.1/DTD/svg11.dtd">
<!-- Generated by graphviz version 2.38.0 (20140413.2041)
 -->
<!-- Title: GraphSearch Pages: 1 -->
<svg width="225pt" height="563pt"
 viewBox="0.00 0.00 224.90 563.00" xmlns="http://www.w3.org/2000/svg" xmlns:xlink="http://www.w3.org/1999/xlink">
<g id="graph0" class="graph" transform="scale(1 1) rotate(0) translate(4 559)">
<title>GraphSearch</title>
<polygon fill="white" stroke="none" points="-4,4 -4,-559 220.899,-559 220.899,4 -4,4"/>
<!-- Node1 -->
<g id="node1" class="node"><title>Node1</title>
<polygon fill="#bfbfbf" stroke="black" points="0,-0.5 0,-108.5 99.891,-108.5 99.891,-0.5 0,-0.5"/>
<text text-anchor="middle" x="49.9455" y="-95.5" font-family="Helvetica,sans-Serif" font-size="10.00">GraphSearch</text>
<polyline fill="none" stroke="black" points="0,-88.5 99.891,-88.5 "/>
<text text-anchor="start" x="8" y="-75.5" font-family="Helvetica,sans-Serif" font-size="10.00">+ allPaths</text>
<polyline fill="none" stroke="black" points="0,-68.5 99.891,-68.5 "/>
<text text-anchor="start" x="8" y="-55.5" font-family="Helvetica,sans-Serif" font-size="10.00">+ GraphSearch()</text>
<text text-anchor="start" x="8" y="-43.5" font-family="Helvetica,sans-Serif" font-size="10.00">+ printSearchInfo()</text>
<text text-anchor="start" x="8" y="-31.5" font-family="Helvetica,sans-Serif" font-size="10.00">+ navigateGraph()</text>
<text text-anchor="start" x="8" y="-19.5" font-family="Helvetica,sans-Serif" font-size="10.00">+ ~GraphSearch()</text>
<text text-anchor="start" x="8" y="-7.5" font-family="Helvetica,sans-Serif" font-size="10.00">&#45; findOptimalPath()</text>
</g>
<!-- Node2 -->
<g id="node2" class="node"><title>Node2</title>
<g id="a_node2"><a xlink:href="../../db/dbf/classAOgraph.xhtml" target="_top" xlink:title="class &quot;AOgraph&quot; for the AND&#45;OR graph ">
<polygon fill="white" stroke="black" points="86.992,-157.5 86.992,-313.5 216.899,-313.5 216.899,-157.5 86.992,-157.5"/>
<text text-anchor="middle" x="151.945" y="-300.5" font-family="Helvetica,sans-Serif" font-size="10.00">AOgraph</text>
<polyline fill="none" stroke="black" points="86.992,-293.5 216.899,-293.5 "/>
<text text-anchor="start" x="94.992" y="-280.5" font-family="Helvetica,sans-Serif" font-size="10.00">+ gName</text>
<text text-anchor="start" x="94.992" y="-268.5" font-family="Helvetica,sans-Serif" font-size="10.00">+ graph</text>
<polyline fill="none" stroke="black" points="86.992,-261.5 216.899,-261.5 "/>
<text text-anchor="start" x="94.992" y="-248.5" font-family="Helvetica,sans-Serif" font-size="10.00">+ AOgraph()</text>
<text text-anchor="start" x="94.992" y="-236.5" font-family="Helvetica,sans-Serif" font-size="10.00">+ loadFromFile()</text>
<text text-anchor="start" x="94.992" y="-224.5" font-family="Helvetica,sans-Serif" font-size="10.00">+ printGraphInfo()</text>
<text text-anchor="start" x="94.992" y="-212.5" font-family="Helvetica,sans-Serif" font-size="10.00">+ solveByName()</text>
<text text-anchor="start" x="94.992" y="-200.5" font-family="Helvetica,sans-Serif" font-size="10.00">+ ~AOgraph()</text>
<text text-anchor="start" x="94.992" y="-188.5" font-family="Helvetica,sans-Serif" font-size="10.00"># addNode()</text>
<text text-anchor="start" x="94.992" y="-176.5" font-family="Helvetica,sans-Serif" font-size="10.00"># findByName()</text>
<text text-anchor="start" x="94.992" y="-164.5" font-family="Helvetica,sans-Serif" font-size="10.00"># updateNodeFeasibility()</text>
</a>
</g>
</g>
<!-- Node2&#45;&gt;Node1 -->
<g id="edge1" class="edge"><title>Node2&#45;&gt;Node1</title>
<path fill="none" stroke="#404040" d="M107.948,-157.289C100.734,-144.628 93.3286,-131.633 86.3253,-119.343"/>
<polygon fill="none" stroke="#404040" points="86.2303,-119.176 79.7844,-115.944 80.2891,-108.75 86.7351,-111.983 86.2303,-119.176"/>
<text text-anchor="middle" x="111.037" y="-130" font-family="Helvetica,sans-Serif" font-size="10.00"> +graph</text>
</g>
<!-- Node3 -->
<g id="node3" class="node"><title>Node3</title>
<g id="a_node3"><a xlink:href="../../d6/d22/classAOnode.xhtml" target="_top" xlink:title="class &quot;AOnode&quot; for the generic node element of an AND&#45;OR graph ">
<polygon fill="white" stroke="black" points="4.299,-362.5 4.299,-554.5 95.592,-554.5 95.592,-362.5 4.299,-362.5"/>
<text text-anchor="middle" x="49.9455" y="-541.5" font-family="Helvetica,sans-Serif" font-size="10.00">AOnode</text>
<polyline fill="none" stroke="black" points="4.299,-534.5 95.592,-534.5 "/>
<text text-anchor="start" x="12.299" y="-521.5" font-family="Helvetica,sans-Serif" font-size="10.00">+ nName</text>
<text text-anchor="start" x="12.299" y="-509.5" font-family="Helvetica,sans-Serif" font-size="10.00">+ nCost</text>
<text text-anchor="start" x="12.299" y="-497.5" font-family="Helvetica,sans-Serif" font-size="10.00">+ arcs</text>
<text text-anchor="start" x="12.299" y="-485.5" font-family="Helvetica,sans-Serif" font-size="10.00">&#45; nSolved</text>
<text text-anchor="start" x="12.299" y="-473.5" font-family="Helvetica,sans-Serif" font-size="10.00">&#45; nFeasible</text>
<polyline fill="none" stroke="black" points="4.299,-466.5 95.592,-466.5 "/>
<text text-anchor="start" x="12.299" y="-453.5" font-family="Helvetica,sans-Serif" font-size="10.00">+ AOnode()</text>
<text text-anchor="start" x="12.299" y="-441.5" font-family="Helvetica,sans-Serif" font-size="10.00">+ addArc()</text>
<text text-anchor="start" x="12.299" y="-429.5" font-family="Helvetica,sans-Serif" font-size="10.00">+ printNodeInfo()</text>
<text text-anchor="start" x="12.299" y="-417.5" font-family="Helvetica,sans-Serif" font-size="10.00">+ isFeasible()</text>
<text text-anchor="start" x="12.299" y="-405.5" font-family="Helvetica,sans-Serif" font-size="10.00">+ setSolved()</text>
<text text-anchor="start" x="12.299" y="-393.5" font-family="Helvetica,sans-Serif" font-size="10.00">+ getSolved()</text>
<text text-anchor="start" x="12.299" y="-381.5" font-family="Helvetica,sans-Serif" font-size="10.00">+ getFeasible()</text>
<text text-anchor="start" x="12.299" y="-369.5" font-family="Helvetica,sans-Serif" font-size="10.00">+ ~AOnode()</text>
</a>
</g>
</g>
<!-- Node3&#45;&gt;Node1 -->
<g id="edge3" class="edge"><title>Node3&#45;&gt;Node1</title>
<path fill="none" stroke="#404040" d="M22.9026,-362.39C19.3351,-346.36 16.2493,-329.797 14.3175,-314 5.84795,-244.738 2.5956,-225.786 14.3175,-157 16.3978,-144.792 19.7907,-132.099 23.6767,-119.991"/>
<polygon fill="none" stroke="#404040" points="23.6855,-119.965 21.8166,-113 27.5268,-108.596 29.3957,-115.561 23.6855,-119.965"/>
<text text-anchor="middle" x="46.7595" y="-232.5" font-family="Helvetica,sans-Serif" font-size="10.00"> +currentNode</text>
</g>
<!-- Node3&#45;&gt;Node2 -->
<g id="edge2" class="edge"><title>Node3&#45;&gt;Node2</title>
<path fill="none" stroke="#404040" d="M93.7946,-362.494C99.5409,-350.043 105.411,-337.325 111.104,-324.989"/>
<polygon fill="none" stroke="#404040" points="111.247,-324.681 110.129,-317.557 116.275,-313.785 117.393,-320.909 111.247,-324.681"/>
<text text-anchor="middle" x="122.372" y="-335" font-family="Helvetica,sans-Serif" font-size="10.00"> +head</text>
</g>
</g>
</svg>
