<?xml version="1.0" encoding="UTF-8" standalone="no"?>
<!DOCTYPE svg PUBLIC "-//W3C//DTD SVG 1.1//EN"
 "http://www.w3.org/Graphics/SVG/1.1/DTD/svg11.dtd">
<!-- Generated by graphviz version 2.38.0 (20140413.2041)
 -->
<!-- Title: Path Pages: 1 -->
<svg width="628pt" height="794pt"
 viewBox="0.00 0.00 627.64 794.00" xmlns="http://www.w3.org/2000/svg" xmlns:xlink="http://www.w3.org/1999/xlink">
<g id="graph0" class="graph" transform="scale(1 1) rotate(0) translate(4 790)">
<title>Path</title>
<polygon fill="white" stroke="none" points="-4,4 -4,-790 623.636,-790 623.636,4 -4,4"/>
<!-- Node1 -->
<g id="node1" class="node"><title>Node1</title>
<polygon fill="#bfbfbf" stroke="black" points="70.864,-302.5 70.864,-458.5 161.051,-458.5 161.051,-302.5 70.864,-302.5"/>
<text text-anchor="middle" x="115.957" y="-445.5" font-family="Helvetica,sans-Serif" font-size="10.00">Path</text>
<polyline fill="none" stroke="black" points="70.864,-438.5 161.051,-438.5 "/>
<text text-anchor="start" x="78.864" y="-425.5" font-family="Helvetica,sans-Serif" font-size="10.00">+ pIndex</text>
<text text-anchor="start" x="78.864" y="-413.5" font-family="Helvetica,sans-Serif" font-size="10.00">+ pCost</text>
<text text-anchor="start" x="78.864" y="-401.5" font-family="Helvetica,sans-Serif" font-size="10.00">+ pComplete</text>
<polyline fill="none" stroke="black" points="70.864,-394.5 161.051,-394.5 "/>
<text text-anchor="start" x="78.864" y="-381.5" font-family="Helvetica,sans-Serif" font-size="10.00">+ Path()</text>
<text text-anchor="start" x="78.864" y="-369.5" font-family="Helvetica,sans-Serif" font-size="10.00">+ Path()</text>
<text text-anchor="start" x="78.864" y="-357.5" font-family="Helvetica,sans-Serif" font-size="10.00">+ printPathInfo()</text>
<text text-anchor="start" x="78.864" y="-345.5" font-family="Helvetica,sans-Serif" font-size="10.00">+ addNode()</text>
<text text-anchor="start" x="78.864" y="-333.5" font-family="Helvetica,sans-Serif" font-size="10.00">+ updatePath()</text>
<text text-anchor="start" x="78.864" y="-321.5" font-family="Helvetica,sans-Serif" font-size="10.00">+ suggestNode()</text>
<text text-anchor="start" x="78.864" y="-309.5" font-family="Helvetica,sans-Serif" font-size="10.00">+ ~Path()</text>
</g>
<!-- Node2 -->
<g id="node2" class="node"><title>Node2</title>
<polygon fill="white" stroke="#bfbfbf" points="224.602,-507.5 224.602,-567.5 347.312,-567.5 347.312,-507.5 224.602,-507.5"/>
<text text-anchor="middle" x="285.957" y="-554.5" font-family="Helvetica,sans-Serif" font-size="10.00">std::vector&lt; AOnode * &gt;</text>
<polyline fill="none" stroke="#bfbfbf" points="224.602,-547.5 347.312,-547.5 "/>
<text text-anchor="middle" x="285.957" y="-534.5" font-family="Helvetica,sans-Serif" font-size="10.00"> </text>
<polyline fill="none" stroke="#bfbfbf" points="224.602,-527.5 347.312,-527.5 "/>
<text text-anchor="middle" x="285.957" y="-514.5" font-family="Helvetica,sans-Serif" font-size="10.00"> </text>
</g>
<!-- Node2&#45;&gt;Node1 -->
<g id="edge1" class="edge"><title>Node2&#45;&gt;Node1</title>
<path fill="none" stroke="#404040" d="M238.99,-507.361C230.738,-501.604 222.42,-495.364 214.987,-489 199.278,-475.549 183.533,-459.766 169.368,-444.5"/>
<polygon fill="none" stroke="#404040" points="169.321,-444.448 162.32,-442.72 161.223,-435.593 168.224,-437.321 169.321,-444.448"/>
<text text-anchor="middle" x="244.442" y="-480" font-family="Helvetica,sans-Serif" font-size="10.00"> +pathNodes</text>
</g>
<!-- Node3 -->
<g id="node3" class="node"><title>Node3</title>
<g id="a_node3"><a xlink:href="../../d6/d22/classAOnode.xhtml" target="_top" xlink:title="class &quot;AOnode&quot; for the generic node element of an AND&#45;OR graph ">
<polygon fill="white" stroke="black" points="328.311,-0.5 328.311,-144.5 419.604,-144.5 419.604,-0.5 328.311,-0.5"/>
<text text-anchor="middle" x="373.957" y="-131.5" font-family="Helvetica,sans-Serif" font-size="10.00">AOnode</text>
<polyline fill="none" stroke="black" points="328.311,-124.5 419.604,-124.5 "/>
<text text-anchor="start" x="336.311" y="-111.5" font-family="Helvetica,sans-Serif" font-size="10.00">+ nCost</text>
<text text-anchor="start" x="336.311" y="-99.5" font-family="Helvetica,sans-Serif" font-size="10.00">+ nSolved</text>
<text text-anchor="start" x="336.311" y="-87.5" font-family="Helvetica,sans-Serif" font-size="10.00">+ nFeasible</text>
<polyline fill="none" stroke="black" points="328.311,-80.5 419.604,-80.5 "/>
<text text-anchor="start" x="336.311" y="-67.5" font-family="Helvetica,sans-Serif" font-size="10.00">+ AOnode()</text>
<text text-anchor="start" x="336.311" y="-55.5" font-family="Helvetica,sans-Serif" font-size="10.00">+ addArc()</text>
<text text-anchor="start" x="336.311" y="-43.5" font-family="Helvetica,sans-Serif" font-size="10.00">+ printNodeInfo()</text>
<text text-anchor="start" x="336.311" y="-31.5" font-family="Helvetica,sans-Serif" font-size="10.00">+ isFeasible()</text>
<text text-anchor="start" x="336.311" y="-19.5" font-family="Helvetica,sans-Serif" font-size="10.00">+ setSolved()</text>
<text text-anchor="start" x="336.311" y="-7.5" font-family="Helvetica,sans-Serif" font-size="10.00">+ ~AOnode()</text>
</a>
</g>
</g>
<!-- Node2&#45;&gt;Node3 -->
<g id="edge3" class="edge"><title>Node2&#45;&gt;Node3</title>
<path fill="none" stroke="#404040" d="M283.898,-507.15C281.146,-457.929 278.458,-355.889 295.995,-272 304.234,-232.594 319.538,-190.853 334.42,-155.869"/>
<polygon fill="none" stroke="#404040" points="334.462,-155.773 333.174,-148.678 339.227,-144.76 340.516,-151.855 334.462,-155.773"/>
<text text-anchor="middle" x="317.938" y="-275" font-family="Helvetica,sans-Serif" font-size="10.00"> +parents</text>
</g>
<!-- Node7 -->
<g id="node7" class="node"><title>Node7</title>
<g id="a_node7"><a xlink:href="../../db/dba/classHyperArc.xhtml" target="_top" xlink:title="class &quot;HyperArc&quot; for the hyperarc connecting one parent node to a number of child nodes in an AND rel...">
<polygon fill="white" stroke="black" points="479.76,-332.5 479.76,-428.5 562.155,-428.5 562.155,-332.5 479.76,-332.5"/>
<text text-anchor="middle" x="520.957" y="-415.5" font-family="Helvetica,sans-Serif" font-size="10.00">HyperArc</text>
<polyline fill="none" stroke="black" points="479.76,-408.5 562.155,-408.5 "/>
<text text-anchor="start" x="487.76" y="-395.5" font-family="Helvetica,sans-Serif" font-size="10.00">+ hIndex</text>
<text text-anchor="start" x="487.76" y="-383.5" font-family="Helvetica,sans-Serif" font-size="10.00">+ hCost</text>
<polyline fill="none" stroke="black" points="479.76,-376.5 562.155,-376.5 "/>
<text text-anchor="start" x="487.76" y="-363.5" font-family="Helvetica,sans-Serif" font-size="10.00">+ HyperArc()</text>
<text text-anchor="start" x="487.76" y="-351.5" font-family="Helvetica,sans-Serif" font-size="10.00">+ printArcInfo()</text>
<text text-anchor="start" x="487.76" y="-339.5" font-family="Helvetica,sans-Serif" font-size="10.00">+ ~HyperArc()</text>
</a>
</g>
</g>
<!-- Node2&#45;&gt;Node7 -->
<g id="edge8" class="edge"><title>Node2&#45;&gt;Node7</title>
<path fill="none" stroke="#404040" d="M347.586,-520.887C386.176,-508.792 435.186,-488.963 470.957,-459 477.956,-453.138 484.317,-446.043 489.978,-438.554"/>
<polygon fill="none" stroke="#404040" points="490.108,-438.37 490.287,-431.161 497.011,-428.555 496.831,-435.764 490.108,-438.37"/>
<text text-anchor="middle" x="466.768" y="-480" font-family="Helvetica,sans-Serif" font-size="10.00"> +children</text>
</g>
<!-- Node3&#45;&gt;Node2 -->
<g id="edge2" class="edge"><title>Node3&#45;&gt;Node2</title>
<path fill="none" stroke="#404040" d="M363.746,-144.565C351.238,-227.688 328.192,-369.187 299.957,-489 299.425,-491.259 298.849,-493.571 298.245,-495.897"/>
<polygon fill="none" stroke="#404040" points="298.238,-495.925 300.505,-502.77 295.058,-507.496 292.791,-500.651 298.238,-495.925"/>
<text text-anchor="middle" x="368.548" y="-275" font-family="Helvetica,sans-Serif" font-size="10.00"> +elements</text>
</g>
<!-- Node4 -->
<g id="node4" class="node"><title>Node4</title>
<g id="a_node4"><a xlink:title="STL class. ">
<polygon fill="white" stroke="#bfbfbf" points="381.287,-193.5 381.287,-253.5 440.628,-253.5 440.628,-193.5 381.287,-193.5"/>
<text text-anchor="middle" x="410.957" y="-240.5" font-family="Helvetica,sans-Serif" font-size="10.00">std::string</text>
<polyline fill="none" stroke="#bfbfbf" points="381.287,-233.5 440.628,-233.5 "/>
<text text-anchor="middle" x="410.957" y="-220.5" font-family="Helvetica,sans-Serif" font-size="10.00"> </text>
<polyline fill="none" stroke="#bfbfbf" points="381.287,-213.5 440.628,-213.5 "/>
<text text-anchor="middle" x="410.957" y="-200.5" font-family="Helvetica,sans-Serif" font-size="10.00"> </text>
</a>
</g>
</g>
<!-- Node4&#45;&gt;Node3 -->
<g id="edge4" class="edge"><title>Node4&#45;&gt;Node3</title>
<path fill="none" stroke="#404040" d="M403.736,-193.418C401.036,-182.544 397.817,-169.583 394.51,-156.266"/>
<polygon fill="none" stroke="#404040" points="394.484,-156.16 389.156,-151.301 391.592,-144.514 396.92,-149.373 394.484,-156.16"/>
<text text-anchor="middle" x="420.379" y="-166" font-family="Helvetica,sans-Serif" font-size="10.00"> +nName</text>
</g>
<!-- Node5 -->
<g id="node5" class="node"><title>Node5</title>
<g id="a_node5"><a xlink:title="STL class. ">
<polygon fill="white" stroke="#bfbfbf" points="367.919,-344.5 367.919,-416.5 461.995,-416.5 461.995,-344.5 367.919,-344.5"/>
<text text-anchor="start" x="375.919" y="-403.5" font-family="Helvetica,sans-Serif" font-size="10.00">std::basic_string&lt;</text>
<text text-anchor="middle" x="414.957" y="-391.5" font-family="Helvetica,sans-Serif" font-size="10.00"> char &gt;</text>
<polyline fill="none" stroke="#bfbfbf" points="367.919,-384.5 461.995,-384.5 "/>
<text text-anchor="middle" x="414.957" y="-371.5" font-family="Helvetica,sans-Serif" font-size="10.00"> </text>
<polyline fill="none" stroke="#bfbfbf" points="367.919,-364.5 461.995,-364.5 "/>
<text text-anchor="middle" x="414.957" y="-351.5" font-family="Helvetica,sans-Serif" font-size="10.00"> </text>
</a>
</g>
</g>
<!-- Node5&#45;&gt;Node4 -->
<g id="edge5" class="edge"><title>Node5&#45;&gt;Node4</title>
<path fill="none" stroke="midnightblue" d="M413.791,-334.303C413.119,-308.253 412.294,-276.273 411.707,-253.559"/>
<polygon fill="none" stroke="midnightblue" points="410.293,-334.422 414.05,-344.328 417.291,-334.241 410.293,-334.422"/>
</g>
<!-- Node6 -->
<g id="node6" class="node"><title>Node6</title>
<polygon fill="white" stroke="#bfbfbf" points="460.447,-193.5 460.447,-253.5 581.468,-253.5 581.468,-193.5 460.447,-193.5"/>
<text text-anchor="middle" x="520.957" y="-240.5" font-family="Helvetica,sans-Serif" font-size="10.00">std::vector&lt; HyperArc &gt;</text>
<polyline fill="none" stroke="#bfbfbf" points="460.447,-233.5 581.468,-233.5 "/>
<text text-anchor="middle" x="520.957" y="-220.5" font-family="Helvetica,sans-Serif" font-size="10.00"> </text>
<polyline fill="none" stroke="#bfbfbf" points="460.447,-213.5 581.468,-213.5 "/>
<text text-anchor="middle" x="520.957" y="-200.5" font-family="Helvetica,sans-Serif" font-size="10.00"> </text>
</g>
<!-- Node6&#45;&gt;Node3 -->
<g id="edge6" class="edge"><title>Node6&#45;&gt;Node3</title>
<path fill="none" stroke="#404040" d="M492.265,-193.418C474.046,-174.95 449.887,-150.462 428.152,-128.431"/>
<polygon fill="none" stroke="#404040" points="428.072,-128.35 421.01,-126.888 419.644,-119.808 426.705,-121.27 428.072,-128.35"/>
<text text-anchor="middle" x="487.71" y="-166" font-family="Helvetica,sans-Serif" font-size="10.00"> +arcs</text>
</g>
<!-- Node7&#45;&gt;Node6 -->
<g id="edge7" class="edge"><title>Node7&#45;&gt;Node6</title>
<path fill="none" stroke="#404040" d="M520.957,-332.153C520.957,-310.919 520.957,-286.108 520.957,-265.66"/>
<polygon fill="none" stroke="#404040" points="520.958,-265.563 516.958,-259.563 520.957,-253.563 524.958,-259.563 520.958,-265.563"/>
<text text-anchor="middle" x="545.548" y="-275" font-family="Helvetica,sans-Serif" font-size="10.00"> +elements</text>
</g>
<!-- Node8 -->
<g id="node8" class="node"><title>Node8</title>
<g id="a_node8"><a xlink:title="STL class. ">
<polygon fill="white" stroke="#bfbfbf" points="170.224,-616.5 170.224,-676.5 255.691,-676.5 255.691,-616.5 170.224,-616.5"/>
<text text-anchor="middle" x="212.957" y="-663.5" font-family="Helvetica,sans-Serif" font-size="10.00">std::vector&lt; T &gt;</text>
<polyline fill="none" stroke="#bfbfbf" points="170.224,-656.5 255.691,-656.5 "/>
<text text-anchor="middle" x="212.957" y="-643.5" font-family="Helvetica,sans-Serif" font-size="10.00"> </text>
<polyline fill="none" stroke="#bfbfbf" points="170.224,-636.5 255.691,-636.5 "/>
<text text-anchor="middle" x="212.957" y="-623.5" font-family="Helvetica,sans-Serif" font-size="10.00"> </text>
</a>
</g>
</g>
<!-- Node8&#45;&gt;Node2 -->
<g id="edge11" class="edge"><title>Node8&#45;&gt;Node2</title>
<path fill="none" stroke="orange" d="M238.648,-607.844C247.637,-594.669 257.587,-580.084 266.034,-567.703"/>
<polygon fill="orange" stroke="orange" points="235.65,-606.029 232.905,-616.262 241.432,-609.974 235.65,-606.029"/>
<text text-anchor="middle" x="283.641" y="-589" font-family="Helvetica,sans-Serif" font-size="10.00"> &lt; AOnode * &gt;</text>
</g>
<!-- Node8&#45;&gt;Node6 -->
<g id="edge9" class="edge"><title>Node8&#45;&gt;Node6</title>
<path fill="none" stroke="orange" d="M265.781,-635.849C348.072,-617.65 504.333,-569.659 570.957,-459 613.832,-387.789 607.854,-347.896 573.957,-272 570.985,-265.344 566.567,-259.232 561.528,-253.769"/>
<polygon fill="orange" stroke="orange" points="264.925,-632.453 255.882,-637.973 266.394,-639.297 264.925,-632.453"/>
<text text-anchor="middle" x="588.797" y="-480" font-family="Helvetica,sans-Serif" font-size="10.00"> &lt; HyperArc &gt;</text>
</g>
<!-- Node10 -->
<g id="node10" class="node"><title>Node10</title>
<polygon fill="white" stroke="#bfbfbf" points="-1.42109e-14,-507.5 -1.42109e-14,-567.5 89.915,-567.5 89.915,-507.5 -1.42109e-14,-507.5"/>
<text text-anchor="middle" x="44.9575" y="-554.5" font-family="Helvetica,sans-Serif" font-size="10.00">std::vector&lt; int &gt;</text>
<polyline fill="none" stroke="#bfbfbf" points="-1.42109e-14,-547.5 89.915,-547.5 "/>
<text text-anchor="start" x="8" y="-534.5" font-family="Helvetica,sans-Serif" font-size="10.00">+ elements</text>
<polyline fill="none" stroke="#bfbfbf" points="-1.42109e-14,-527.5 89.915,-527.5 "/>
<text text-anchor="middle" x="44.9575" y="-514.5" font-family="Helvetica,sans-Serif" font-size="10.00"> </text>
</g>
<!-- Node8&#45;&gt;Node10 -->
<g id="edge13" class="edge"><title>Node8&#45;&gt;Node10</title>
<path fill="none" stroke="orange" d="M161.582,-612.779C138.749,-598.236 112.109,-581.269 90.0578,-567.225"/>
<polygon fill="orange" stroke="orange" points="159.815,-615.803 170.129,-618.223 163.575,-609.898 159.815,-615.803"/>
<text text-anchor="middle" x="150.243" y="-589" font-family="Helvetica,sans-Serif" font-size="10.00"> &lt; int &gt;</text>
</g>
<!-- Node11 -->
<g id="node11" class="node"><title>Node11</title>
<polygon fill="white" stroke="#bfbfbf" points="108.83,-507.5 108.83,-567.5 207.084,-567.5 207.084,-507.5 108.83,-507.5"/>
<text text-anchor="middle" x="157.957" y="-554.5" font-family="Helvetica,sans-Serif" font-size="10.00">std::vector&lt; bool &gt;</text>
<polyline fill="none" stroke="#bfbfbf" points="108.83,-547.5 207.084,-547.5 "/>
<text text-anchor="start" x="116.83" y="-534.5" font-family="Helvetica,sans-Serif" font-size="10.00">+ elements</text>
<polyline fill="none" stroke="#bfbfbf" points="108.83,-527.5 207.084,-527.5 "/>
<text text-anchor="middle" x="157.957" y="-514.5" font-family="Helvetica,sans-Serif" font-size="10.00"> </text>
</g>
<!-- Node8&#45;&gt;Node11 -->
<g id="edge15" class="edge"><title>Node8&#45;&gt;Node11</title>
<path fill="none" stroke="orange" d="M193.214,-607.09C186.544,-594.114 179.211,-579.848 172.968,-567.703"/>
<polygon fill="orange" stroke="orange" points="190.244,-608.968 197.929,-616.262 196.47,-605.768 190.244,-608.968"/>
<text text-anchor="middle" x="207.413" y="-589" font-family="Helvetica,sans-Serif" font-size="10.00"> &lt; bool &gt;</text>
</g>
<!-- Node9 -->
<g id="node9" class="node"><title>Node9</title>
<polygon fill="white" stroke="#bfbfbf" points="198.457,-725.5 198.457,-785.5 227.457,-785.5 227.457,-725.5 198.457,-725.5"/>
<text text-anchor="middle" x="212.512" y="-772.5" font-family="Helvetica,sans-Serif" font-size="10.00">T</text>
<polyline fill="none" stroke="#bfbfbf" points="198.457,-765.5 226.566,-765.5 "/>
<text text-anchor="middle" x="212.512" y="-752.5" font-family="Helvetica,sans-Serif" font-size="10.00"> </text>
<polyline fill="none" stroke="#bfbfbf" points="198.457,-745.5 226.566,-745.5 "/>
<text text-anchor="middle" x="212.512" y="-732.5" font-family="Helvetica,sans-Serif" font-size="10.00"> </text>
</g>
<!-- Node9&#45;&gt;Node8 -->
<g id="edge10" class="edge"><title>Node9&#45;&gt;Node8</title>
<path fill="none" stroke="#404040" d="M212.957,-725.262C212.957,-714.056 212.957,-701.049 212.957,-688.917"/>
<polygon fill="none" stroke="#404040" points="212.958,-688.703 208.958,-682.703 212.957,-676.703 216.958,-682.703 212.958,-688.703"/>
<text text-anchor="middle" x="237.548" y="-698" font-family="Helvetica,sans-Serif" font-size="10.00"> +elements</text>
</g>
<!-- Node10&#45;&gt;Node1 -->
<g id="edge12" class="edge"><title>Node10&#45;&gt;Node1</title>
<path fill="none" stroke="#404040" d="M51.7837,-507.276C54.4613,-497.481 57.8653,-486.611 61.8855,-477 63.0596,-474.193 64.2977,-471.365 65.5871,-468.529"/>
<polygon fill="none" stroke="#404040" points="65.6393,-468.419 64.601,-461.283 70.7886,-457.58 71.827,-464.716 65.6393,-468.419"/>
<text text-anchor="middle" x="85.9935" y="-480" font-family="Helvetica,sans-Serif" font-size="10.00"> +pathArcs</text>
</g>
<!-- Node11&#45;&gt;Node1 -->
<g id="edge14" class="edge"><title>Node11&#45;&gt;Node1</title>
<path fill="none" stroke="#404040" d="M127.712,-507.403C123.432,-501.73 119.659,-495.507 117.207,-489 115.022,-483.199 113.382,-477.095 112.184,-470.862"/>
<polygon fill="none" stroke="#404040" points="112.151,-470.637 107.316,-465.287 110.395,-458.766 115.23,-464.116 112.151,-470.637"/>
<text text-anchor="middle" x="155.332" y="-480" font-family="Helvetica,sans-Serif" font-size="10.00"> +checkedNodes</text>
</g>
</g>
</svg>
