<?xml version="1.0" encoding="UTF-8" standalone="no"?>
<!DOCTYPE svg PUBLIC "-//W3C//DTD SVG 1.1//EN"
 "http://www.w3.org/Graphics/SVG/1.1/DTD/svg11.dtd">
<!-- Generated by graphviz version 2.38.0 (20140413.2041)
 -->
<!-- Title: Path Pages: 1 -->
<!--zoomable 794 -->
<svg id="main" version="1.1" xmlns="http://www.w3.org/2000/svg" xmlns:xlink="http://www.w3.org/1999/xlink" xml:space="preserve" onload="init(evt)">
<style type="text/css"><![CDATA[
.edge:hover path { stroke: red; }
.edge:hover polygon { stroke: red; fill: red; }
]]></style>
<script type="text/javascript"><![CDATA[
var edges = document.getElementsByTagName('g');
if (edges && edges.length) {
  for (var i=0;i<edges.length;i++) {
    if (edges[i].id.substr(0,4)=='edge') {
      edges[i].setAttribute('class','edge');
    }
  }
}
]]></script>
        <defs>
                <circle id="rim" cx="0" cy="0" r="7"/>
                <circle id="rim2" cx="0" cy="0" r="3.5"/>
                <g id="zoomPlus">
                        <use xlink:href="#rim" fill="#404040">
                                <set attributeName="fill" to="#808080" begin="zoomplus.mouseover" end="zoomplus.mouseout"/>
                        </use>
                        <path d="M-4,0h8M0,-4v8" fill="none" stroke="white" stroke-width="1.5" pointer-events="none"/>
                </g>
                <g id="zoomMin">
                        <use xlink:href="#rim" fill="#404040">
                                <set attributeName="fill" to="#808080" begin="zoomminus.mouseover" end="zoomminus.mouseout"/>
                        </use>
                        <path d="M-4,0h8" fill="none" stroke="white" stroke-width="1.5" pointer-events="none"/>
                </g>
                <g id="dirArrow">
                        <path fill="none" stroke="white" stroke-width="1.5" d="M0,-3.0v7 M-2.5,-0.5L0,-3.0L2.5,-0.5"/>
                </g>
               <g id="resetDef">
                       <use xlink:href="#rim2" fill="#404040">
                               <set attributeName="fill" to="#808080" begin="reset.mouseover" end="reset.mouseout"/>
                       </use>
               </g>
        </defs>

<script type="text/javascript">
var viewWidth = 515;
var viewHeight = 794;
var sectionId = 'dynsection-0';
</script>
<script xlink:href="../../svgpan.js"/>
<svg id="graph" class="graph">
<g id="viewport">
<title>Path</title>
<polygon fill="white" stroke="none" points="-4,4 -4,-790 510.806,-790 510.806,4 -4,4"/>
<!-- Node1 -->
<g id="node1" class="node"><title>Node1</title>
<polygon fill="#bfbfbf" stroke="black" points="5.0335,-302.5 5.0335,-458.5 95.2205,-458.5 95.2205,-302.5 5.0335,-302.5"/>
<text text-anchor="middle" x="50.127" y="-445.5" font-family="Helvetica,sans-Serif" font-size="10.00">Path</text>
<polyline fill="none" stroke="black" points="5.0335,-438.5 95.2205,-438.5 "/>
<text text-anchor="start" x="13.0335" y="-425.5" font-family="Helvetica,sans-Serif" font-size="10.00">+ pIndex</text>
<text text-anchor="start" x="13.0335" y="-413.5" font-family="Helvetica,sans-Serif" font-size="10.00">+ pCost</text>
<text text-anchor="start" x="13.0335" y="-401.5" font-family="Helvetica,sans-Serif" font-size="10.00">+ pComplete</text>
<polyline fill="none" stroke="black" points="5.0335,-394.5 95.2205,-394.5 "/>
<text text-anchor="start" x="13.0335" y="-381.5" font-family="Helvetica,sans-Serif" font-size="10.00">+ Path()</text>
<text text-anchor="start" x="13.0335" y="-369.5" font-family="Helvetica,sans-Serif" font-size="10.00">+ Path()</text>
<text text-anchor="start" x="13.0335" y="-357.5" font-family="Helvetica,sans-Serif" font-size="10.00">+ printPathInfo()</text>
<text text-anchor="start" x="13.0335" y="-345.5" font-family="Helvetica,sans-Serif" font-size="10.00">+ addNode()</text>
<text text-anchor="start" x="13.0335" y="-333.5" font-family="Helvetica,sans-Serif" font-size="10.00">+ updatePath()</text>
<text text-anchor="start" x="13.0335" y="-321.5" font-family="Helvetica,sans-Serif" font-size="10.00">+ suggestNode()</text>
<text text-anchor="start" x="13.0335" y="-309.5" font-family="Helvetica,sans-Serif" font-size="10.00">+ ~Path()</text>
</g>
<!-- Node2 -->
<g id="node2" class="node"><title>Node2</title>
<polygon fill="white" stroke="#bfbfbf" points="136.772,-507.5 136.772,-567.5 259.482,-567.5 259.482,-507.5 136.772,-507.5"/>
<text text-anchor="middle" x="198.127" y="-554.5" font-family="Helvetica,sans-Serif" font-size="10.00">std::vector&lt; AOnode * &gt;</text>
<polyline fill="none" stroke="#bfbfbf" points="136.772,-547.5 259.482,-547.5 "/>
<text text-anchor="middle" x="198.127" y="-534.5" font-family="Helvetica,sans-Serif" font-size="10.00"> </text>
<polyline fill="none" stroke="#bfbfbf" points="136.772,-527.5 259.482,-527.5 "/>
<text text-anchor="middle" x="198.127" y="-514.5" font-family="Helvetica,sans-Serif" font-size="10.00"> </text>
</g>
<!-- Node2&#45;&gt;Node1 -->
<g id="edge1" class="edge"><title>Node2&#45;&gt;Node1</title>
<path fill="none" stroke="#404040" d="M136.645,-514.652C123.466,-507.913 110.433,-499.441 100.157,-489 94.3358,-483.086 89.1074,-476.368 84.4293,-469.248"/>
<polygon fill="none" stroke="#404040" points="84.1808,-468.837 77.6511,-465.777 77.9644,-458.573 84.494,-461.633 84.1808,-468.837"/>
<text text-anchor="middle" x="129.612" y="-480" font-family="Helvetica,sans-Serif" font-size="10.00"> +pathNodes</text>
</g>
<!-- Node3 -->
<g id="node3" class="node"><title>Node3</title>
<g id="a_node3"><a xlink:href="../../d6/d22/classAOnode.xhtml" target="_top" xlink:title="class &quot;AOnode&quot; for the generic node element of an AND&#45;OR graph ">
<polygon fill="white" stroke="black" points="213.481,-0.5 213.481,-144.5 304.774,-144.5 304.774,-0.5 213.481,-0.5"/>
<text text-anchor="middle" x="259.127" y="-131.5" font-family="Helvetica,sans-Serif" font-size="10.00">AOnode</text>
<polyline fill="none" stroke="black" points="213.481,-124.5 304.774,-124.5 "/>
<text text-anchor="start" x="221.481" y="-111.5" font-family="Helvetica,sans-Serif" font-size="10.00">+ nCost</text>
<text text-anchor="start" x="221.481" y="-99.5" font-family="Helvetica,sans-Serif" font-size="10.00">+ nSolved</text>
<text text-anchor="start" x="221.481" y="-87.5" font-family="Helvetica,sans-Serif" font-size="10.00">+ nFeasible</text>
<polyline fill="none" stroke="black" points="213.481,-80.5 304.774,-80.5 "/>
<text text-anchor="start" x="221.481" y="-67.5" font-family="Helvetica,sans-Serif" font-size="10.00">+ AOnode()</text>
<text text-anchor="start" x="221.481" y="-55.5" font-family="Helvetica,sans-Serif" font-size="10.00">+ addArc()</text>
<text text-anchor="start" x="221.481" y="-43.5" font-family="Helvetica,sans-Serif" font-size="10.00">+ printNodeInfo()</text>
<text text-anchor="start" x="221.481" y="-31.5" font-family="Helvetica,sans-Serif" font-size="10.00">+ isFeasible()</text>
<text text-anchor="start" x="221.481" y="-19.5" font-family="Helvetica,sans-Serif" font-size="10.00">+ setSolved()</text>
<text text-anchor="start" x="221.481" y="-7.5" font-family="Helvetica,sans-Serif" font-size="10.00">+ ~AOnode()</text>
</a>
</g>
</g>
<!-- Node2&#45;&gt;Node3 -->
<g id="edge3" class="edge"><title>Node2&#45;&gt;Node3</title>
<path fill="none" stroke="#404040" d="M192.64,-507.263C184.358,-458.207 171.144,-356.402 186.165,-272 193.16,-232.695 207.375,-190.969 221.415,-155.969"/>
<polygon fill="none" stroke="#404040" points="221.418,-155.962 219.986,-148.894 225.958,-144.854 227.391,-151.921 221.418,-155.962"/>
<text text-anchor="middle" x="208.108" y="-275" font-family="Helvetica,sans-Serif" font-size="10.00"> +parents</text>
</g>
<!-- Node7 -->
<g id="node7" class="node"><title>Node7</title>
<g id="a_node7"><a xlink:href="../../db/dba/classHyperArc.xhtml" target="_top" xlink:title="class &quot;HyperArc&quot; for the hyperarc connecting one parent node to a number of child nodes in an AND rel...">
<polygon fill="white" stroke="black" points="364.93,-338.5 364.93,-422.5 447.325,-422.5 447.325,-338.5 364.93,-338.5"/>
<text text-anchor="middle" x="406.127" y="-409.5" font-family="Helvetica,sans-Serif" font-size="10.00">HyperArc</text>
<polyline fill="none" stroke="black" points="364.93,-402.5 447.325,-402.5 "/>
<text text-anchor="start" x="372.93" y="-389.5" font-family="Helvetica,sans-Serif" font-size="10.00">+ hCost</text>
<polyline fill="none" stroke="black" points="364.93,-382.5 447.325,-382.5 "/>
<text text-anchor="start" x="372.93" y="-369.5" font-family="Helvetica,sans-Serif" font-size="10.00">+ HyperArc()</text>
<text text-anchor="start" x="372.93" y="-357.5" font-family="Helvetica,sans-Serif" font-size="10.00">+ printArcInfo()</text>
<text text-anchor="start" x="372.93" y="-345.5" font-family="Helvetica,sans-Serif" font-size="10.00">+ ~HyperArc()</text>
</a>
</g>
</g>
<!-- Node2&#45;&gt;Node7 -->
<g id="edge8" class="edge"><title>Node2&#45;&gt;Node7</title>
<path fill="none" stroke="#404040" d="M259.784,-515.389C291.086,-502.534 328.275,-483.772 356.127,-459 364.562,-451.498 372.143,-442.25 378.701,-432.787"/>
<polygon fill="none" stroke="#404040" points="378.851,-432.558 378.779,-425.347 385.407,-422.507 385.479,-429.718 378.851,-432.558"/>
<text text-anchor="middle" x="351.938" y="-480" font-family="Helvetica,sans-Serif" font-size="10.00"> +children</text>
</g>
<!-- Node3&#45;&gt;Node2 -->
<g id="edge2" class="edge"><title>Node3&#45;&gt;Node2</title>
<path fill="none" stroke="#404040" d="M249.729,-144.831C236.825,-242.773 214.038,-415.736 203.612,-494.871"/>
<polygon fill="none" stroke="#404040" points="203.557,-495.289 206.739,-501.76 201.989,-507.186 198.807,-500.715 203.557,-495.289"/>
<text text-anchor="middle" x="257.717" y="-275" font-family="Helvetica,sans-Serif" font-size="10.00"> +elements</text>
</g>
<!-- Node4 -->
<g id="node4" class="node"><title>Node4</title>
<g id="a_node4"><a xlink:title="STL class. ">
<polygon fill="white" stroke="#bfbfbf" points="266.457,-193.5 266.457,-253.5 325.798,-253.5 325.798,-193.5 266.457,-193.5"/>
<text text-anchor="middle" x="296.127" y="-240.5" font-family="Helvetica,sans-Serif" font-size="10.00">std::string</text>
<polyline fill="none" stroke="#bfbfbf" points="266.457,-233.5 325.798,-233.5 "/>
<text text-anchor="middle" x="296.127" y="-220.5" font-family="Helvetica,sans-Serif" font-size="10.00"> </text>
<polyline fill="none" stroke="#bfbfbf" points="266.457,-213.5 325.798,-213.5 "/>
<text text-anchor="middle" x="296.127" y="-200.5" font-family="Helvetica,sans-Serif" font-size="10.00"> </text>
</a>
</g>
</g>
<!-- Node4&#45;&gt;Node3 -->
<g id="edge4" class="edge"><title>Node4&#45;&gt;Node3</title>
<path fill="none" stroke="#404040" d="M288.905,-193.418C286.205,-182.544 282.987,-169.583 279.68,-156.266"/>
<polygon fill="none" stroke="#404040" points="279.653,-156.16 274.325,-151.301 276.761,-144.514 282.09,-149.373 279.653,-156.16"/>
<text text-anchor="middle" x="305.548" y="-166" font-family="Helvetica,sans-Serif" font-size="10.00"> +nName</text>
</g>
<!-- Node5 -->
<g id="node5" class="node"><title>Node5</title>
<g id="a_node5"><a xlink:title="STL class. ">
<polygon fill="white" stroke="#bfbfbf" points="253.089,-344.5 253.089,-416.5 347.165,-416.5 347.165,-344.5 253.089,-344.5"/>
<text text-anchor="start" x="261.089" y="-403.5" font-family="Helvetica,sans-Serif" font-size="10.00">std::basic_string&lt;</text>
<text text-anchor="middle" x="300.127" y="-391.5" font-family="Helvetica,sans-Serif" font-size="10.00"> char &gt;</text>
<polyline fill="none" stroke="#bfbfbf" points="253.089,-384.5 347.165,-384.5 "/>
<text text-anchor="middle" x="300.127" y="-371.5" font-family="Helvetica,sans-Serif" font-size="10.00"> </text>
<polyline fill="none" stroke="#bfbfbf" points="253.089,-364.5 347.165,-364.5 "/>
<text text-anchor="middle" x="300.127" y="-351.5" font-family="Helvetica,sans-Serif" font-size="10.00"> </text>
</a>
</g>
</g>
<!-- Node5&#45;&gt;Node4 -->
<g id="edge5" class="edge"><title>Node5&#45;&gt;Node4</title>
<path fill="none" stroke="midnightblue" d="M298.961,-334.303C298.288,-308.253 297.463,-276.273 296.877,-253.559"/>
<polygon fill="none" stroke="midnightblue" points="295.462,-334.422 299.219,-344.328 302.46,-334.241 295.462,-334.422"/>
</g>
<!-- Node6 -->
<g id="node6" class="node"><title>Node6</title>
<polygon fill="white" stroke="#bfbfbf" points="345.616,-193.5 345.616,-253.5 466.638,-253.5 466.638,-193.5 345.616,-193.5"/>
<text text-anchor="middle" x="406.127" y="-240.5" font-family="Helvetica,sans-Serif" font-size="10.00">std::vector&lt; HyperArc &gt;</text>
<polyline fill="none" stroke="#bfbfbf" points="345.616,-233.5 466.638,-233.5 "/>
<text text-anchor="middle" x="406.127" y="-220.5" font-family="Helvetica,sans-Serif" font-size="10.00"> </text>
<polyline fill="none" stroke="#bfbfbf" points="345.616,-213.5 466.638,-213.5 "/>
<text text-anchor="middle" x="406.127" y="-200.5" font-family="Helvetica,sans-Serif" font-size="10.00"> </text>
</g>
<!-- Node6&#45;&gt;Node3 -->
<g id="edge6" class="edge"><title>Node6&#45;&gt;Node3</title>
<path fill="none" stroke="#404040" d="M377.435,-193.418C359.216,-174.95 335.056,-150.462 313.321,-128.431"/>
<polygon fill="none" stroke="#404040" points="313.241,-128.35 306.18,-126.888 304.813,-119.808 311.875,-121.27 313.241,-128.35"/>
<text text-anchor="middle" x="372.88" y="-166" font-family="Helvetica,sans-Serif" font-size="10.00"> +arcs</text>
</g>
<!-- Node7&#45;&gt;Node6 -->
<g id="edge7" class="edge"><title>Node7&#45;&gt;Node6</title>
<path fill="none" stroke="#404040" d="M406.127,-338.37C406.127,-315.924 406.127,-288.213 406.127,-265.749"/>
<polygon fill="none" stroke="#404040" points="406.127,-265.542 402.127,-259.542 406.127,-253.542 410.127,-259.542 406.127,-265.542"/>
<text text-anchor="middle" x="430.717" y="-275" font-family="Helvetica,sans-Serif" font-size="10.00"> +elements</text>
</g>
<!-- Node8 -->
<g id="node8" class="node"><title>Node8</title>
<g id="a_node8"><a xlink:title="STL class. ">
<polygon fill="white" stroke="#bfbfbf" points="155.394,-616.5 155.394,-676.5 240.861,-676.5 240.861,-616.5 155.394,-616.5"/>
<text text-anchor="middle" x="198.127" y="-663.5" font-family="Helvetica,sans-Serif" font-size="10.00">std::vector&lt; T &gt;</text>
<polyline fill="none" stroke="#bfbfbf" points="155.394,-656.5 240.861,-656.5 "/>
<text text-anchor="middle" x="198.127" y="-643.5" font-family="Helvetica,sans-Serif" font-size="10.00"> </text>
<polyline fill="none" stroke="#bfbfbf" points="155.394,-636.5 240.861,-636.5 "/>
<text text-anchor="middle" x="198.127" y="-623.5" font-family="Helvetica,sans-Serif" font-size="10.00"> </text>
</a>
</g>
</g>
<!-- Node8&#45;&gt;Node2 -->
<g id="edge11" class="edge"><title>Node8&#45;&gt;Node2</title>
<path fill="none" stroke="orange" d="M198.127,-605.953C198.127,-593.285 198.127,-579.494 198.127,-567.703"/>
<polygon fill="orange" stroke="orange" points="194.627,-606.262 198.127,-616.262 201.627,-606.262 194.627,-606.262"/>
<text text-anchor="middle" x="229.81" y="-589" font-family="Helvetica,sans-Serif" font-size="10.00"> &lt; AOnode * &gt;</text>
</g>
<!-- Node8&#45;&gt;Node6 -->
<g id="edge9" class="edge"><title>Node8&#45;&gt;Node6</title>
<path fill="none" stroke="orange" d="M250.18,-625.193C312.095,-597.881 412.54,-542.842 456.127,-459 494.468,-385.249 493.023,-347.896 459.127,-272 456.154,-265.344 451.736,-259.232 446.698,-253.769"/>
<polygon fill="orange" stroke="orange" points="248.751,-621.997 240.962,-629.18 251.53,-628.422 248.751,-621.997"/>
<text text-anchor="middle" x="475.966" y="-480" font-family="Helvetica,sans-Serif" font-size="10.00"> &lt; HyperArc &gt;</text>
</g>
<!-- Node10 -->
<g id="node10" class="node"><title>Node10</title>
<polygon fill="white" stroke="#bfbfbf" points="1.42109e-14,-507.5 1.42109e-14,-567.5 98.254,-567.5 98.254,-507.5 1.42109e-14,-507.5"/>
<text text-anchor="middle" x="49.127" y="-554.5" font-family="Helvetica,sans-Serif" font-size="10.00">std::vector&lt; bool &gt;</text>
<polyline fill="none" stroke="#bfbfbf" points="1.42109e-14,-547.5 98.254,-547.5 "/>
<text text-anchor="start" x="8" y="-534.5" font-family="Helvetica,sans-Serif" font-size="10.00">+ elements</text>
<polyline fill="none" stroke="#bfbfbf" points="1.42109e-14,-527.5 98.254,-527.5 "/>
<text text-anchor="middle" x="49.127" y="-514.5" font-family="Helvetica,sans-Serif" font-size="10.00"> </text>
</g>
<!-- Node8&#45;&gt;Node10 -->
<g id="edge13" class="edge"><title>Node8&#45;&gt;Node10</title>
<path fill="none" stroke="orange" d="M149.039,-610.249C129.753,-596.399 107.884,-580.695 89.5345,-567.517"/>
<polygon fill="orange" stroke="orange" points="147.248,-613.272 157.412,-616.262 151.331,-607.586 147.248,-613.272"/>
<text text-anchor="middle" x="147.582" y="-589" font-family="Helvetica,sans-Serif" font-size="10.00"> &lt; bool &gt;</text>
</g>
<!-- Node9 -->
<g id="node9" class="node"><title>Node9</title>
<polygon fill="white" stroke="#bfbfbf" points="183.627,-725.5 183.627,-785.5 212.627,-785.5 212.627,-725.5 183.627,-725.5"/>
<text text-anchor="middle" x="197.681" y="-772.5" font-family="Helvetica,sans-Serif" font-size="10.00">T</text>
<polyline fill="none" stroke="#bfbfbf" points="183.627,-765.5 211.736,-765.5 "/>
<text text-anchor="middle" x="197.681" y="-752.5" font-family="Helvetica,sans-Serif" font-size="10.00"> </text>
<polyline fill="none" stroke="#bfbfbf" points="183.627,-745.5 211.736,-745.5 "/>
<text text-anchor="middle" x="197.681" y="-732.5" font-family="Helvetica,sans-Serif" font-size="10.00"> </text>
</g>
<!-- Node9&#45;&gt;Node8 -->
<g id="edge10" class="edge"><title>Node9&#45;&gt;Node8</title>
<path fill="none" stroke="#404040" d="M198.127,-725.262C198.127,-714.056 198.127,-701.049 198.127,-688.917"/>
<polygon fill="none" stroke="#404040" points="198.127,-688.703 194.127,-682.703 198.127,-676.703 202.127,-682.703 198.127,-688.703"/>
<text text-anchor="middle" x="222.718" y="-698" font-family="Helvetica,sans-Serif" font-size="10.00"> +elements</text>
</g>
<!-- Node10&#45;&gt;Node1 -->
<g id="edge12" class="edge"><title>Node10&#45;&gt;Node1</title>
<path fill="none" stroke="#404040" d="M11.472,-507.488C4.30934,-498.558 -0.248889,-488.123 2.377,-477 2.92001,-474.7 3.52737,-472.392 4.19134,-470.083"/>
<polygon fill="none" stroke="#404040" points="4.22951,-469.965 2.28496,-463.021 7.94689,-458.555 9.89144,-465.499 4.22951,-469.965"/>
<text text-anchor="middle" x="40.502" y="-480" font-family="Helvetica,sans-Serif" font-size="10.00"> +checkedNodes</text>
</g>
</g>
</svg>
        <g id="navigator" transform="translate(0 0)" fill="#404254">
                <rect fill="#f2f5e9" fill-opacity="0.5" stroke="#606060" stroke-width=".5" x="0" y="0" width="60" height="60"/>
                <use id="zoomplus" xlink:href="#zoomPlus" x="17" y="9" onmousedown="handleZoom(evt,'in')"/>
                <use id="zoomminus" xlink:href="#zoomMin" x="42" y="9" onmousedown="handleZoom(evt,'out')"/>
                <use id="reset" xlink:href="#resetDef" x="30" y="36" onmousedown="handleReset()"/>
                <g id="arrowUp" xlink:href="#dirArrow" transform="translate(30 24)" onmousedown="handlePan(0,-1)">
                  <use xlink:href="#rim" fill="#404040">
                        <set attributeName="fill" to="#808080" begin="arrowUp.mouseover" end="arrowUp.mouseout"/>
                  </use>
                  <path fill="none" stroke="white" stroke-width="1.5" d="M0,-3.0v7 M-2.5,-0.5L0,-3.0L2.5,-0.5"/>
                </g>
                <g id="arrowRight" xlink:href="#dirArrow" transform="rotate(90) translate(36 -43)" onmousedown="handlePan(1,0)">
                  <use xlink:href="#rim" fill="#404040">
                        <set attributeName="fill" to="#808080" begin="arrowRight.mouseover" end="arrowRight.mouseout"/>
                  </use>
                  <path fill="none" stroke="white" stroke-width="1.5" d="M0,-3.0v7 M-2.5,-0.5L0,-3.0L2.5,-0.5"/>
                </g>
                <g id="arrowDown" xlink:href="#dirArrow" transform="rotate(180) translate(-30 -48)" onmousedown="handlePan(0,1)">
                  <use xlink:href="#rim" fill="#404040">
                        <set attributeName="fill" to="#808080" begin="arrowDown.mouseover" end="arrowDown.mouseout"/>
                  </use>
                  <path fill="none" stroke="white" stroke-width="1.5" d="M0,-3.0v7 M-2.5,-0.5L0,-3.0L2.5,-0.5"/>
                </g>
                <g id="arrowLeft" xlink:href="#dirArrow" transform="rotate(270) translate(-36 17)" onmousedown="handlePan(-1,0)">
                  <use xlink:href="#rim" fill="#404040">
                        <set attributeName="fill" to="#808080" begin="arrowLeft.mouseover" end="arrowLeft.mouseout"/>
                  </use>
                  <path fill="none" stroke="white" stroke-width="1.5" d="M0,-3.0v7 M-2.5,-0.5L0,-3.0L2.5,-0.5"/>
                </g>
        </g>
        <svg viewBox="0 0 15 15" width="100%" height="30px" preserveAspectRatio="xMaxYMin meet">
         <g id="arrow_out" transform="scale(0.3 0.3)">
          <a xlink:href="classPath__coll__graph_org.svg" target="_base">
           <rect id="button" ry="5" rx="5" y="6" x="6" height="38" width="38"
                fill="#f2f5e9" fill-opacity="0.5" stroke="#606060" stroke-width="1.0"/>
           <path id="arrow"
             d="M 11.500037,31.436501 C 11.940474,20.09759 22.043105,11.32322 32.158766,21.979434 L 37.068811,17.246167 C 37.068811,17.246167 37.088388,32 37.088388,32 L 22.160133,31.978069 C 22.160133,31.978069 26.997745,27.140456 26.997745,27.140456 C 18.528582,18.264221 13.291696,25.230495 11.500037,31.436501 z"
             style="fill:#404040;"/>
          </a>
         </g>
        </svg>
</svg>
