<?xml version="1.0" encoding="UTF-8" standalone="no"?>
<!DOCTYPE svg PUBLIC "-//W3C//DTD SVG 1.1//EN"
 "http://www.w3.org/Graphics/SVG/1.1/DTD/svg11.dtd">
<!-- Generated by graphviz version 2.38.0 (20140413.2041)
 -->
<!-- Title: Path Pages: 1 -->
<!--zoomable 794 -->
<svg id="main" version="1.1" xmlns="http://www.w3.org/2000/svg" xmlns:xlink="http://www.w3.org/1999/xlink" xml:space="preserve" onload="init(evt)">
<style type="text/css"><![CDATA[
.edge:hover path { stroke: red; }
.edge:hover polygon { stroke: red; fill: red; }
]]></style>
<script type="text/javascript"><![CDATA[
var edges = document.getElementsByTagName('g');
if (edges && edges.length) {
  for (var i=0;i<edges.length;i++) {
    if (edges[i].id.substr(0,4)=='edge') {
      edges[i].setAttribute('class','edge');
    }
  }
}
]]></script>
        <defs>
                <circle id="rim" cx="0" cy="0" r="7"/>
                <circle id="rim2" cx="0" cy="0" r="3.5"/>
                <g id="zoomPlus">
                        <use xlink:href="#rim" fill="#404040">
                                <set attributeName="fill" to="#808080" begin="zoomplus.mouseover" end="zoomplus.mouseout"/>
                        </use>
                        <path d="M-4,0h8M0,-4v8" fill="none" stroke="white" stroke-width="1.5" pointer-events="none"/>
                </g>
                <g id="zoomMin">
                        <use xlink:href="#rim" fill="#404040">
                                <set attributeName="fill" to="#808080" begin="zoomminus.mouseover" end="zoomminus.mouseout"/>
                        </use>
                        <path d="M-4,0h8" fill="none" stroke="white" stroke-width="1.5" pointer-events="none"/>
                </g>
                <g id="dirArrow">
                        <path fill="none" stroke="white" stroke-width="1.5" d="M0,-3.0v7 M-2.5,-0.5L0,-3.0L2.5,-0.5"/>
                </g>
               <g id="resetDef">
                       <use xlink:href="#rim2" fill="#404040">
                               <set attributeName="fill" to="#808080" begin="reset.mouseover" end="reset.mouseout"/>
                       </use>
               </g>
        </defs>

<script type="text/javascript">
var viewWidth = 460;
var viewHeight = 794;
var sectionId = 'dynsection-0';
</script>
<script xlink:href="../../svgpan.js"/>
<svg id="graph" class="graph">
<g id="viewport">
<title>Path</title>
<polygon fill="white" stroke="none" points="-4,4 -4,-790 455.717,-790 455.717,4 -4,4"/>
<!-- Node1 -->
<g id="node1" class="node"><title>Node1</title>
<polygon fill="#bfbfbf" stroke="black" points="254.945,-302.5 254.945,-458.5 345.132,-458.5 345.132,-302.5 254.945,-302.5"/>
<text text-anchor="middle" x="300.038" y="-445.5" font-family="Helvetica,sans-Serif" font-size="10.00">Path</text>
<polyline fill="none" stroke="black" points="254.945,-438.5 345.132,-438.5 "/>
<text text-anchor="start" x="262.945" y="-425.5" font-family="Helvetica,sans-Serif" font-size="10.00">+ pIndex</text>
<text text-anchor="start" x="262.945" y="-413.5" font-family="Helvetica,sans-Serif" font-size="10.00">+ pCost</text>
<text text-anchor="start" x="262.945" y="-401.5" font-family="Helvetica,sans-Serif" font-size="10.00">+ pComplete</text>
<polyline fill="none" stroke="black" points="254.945,-394.5 345.132,-394.5 "/>
<text text-anchor="start" x="262.945" y="-381.5" font-family="Helvetica,sans-Serif" font-size="10.00">+ Path()</text>
<text text-anchor="start" x="262.945" y="-369.5" font-family="Helvetica,sans-Serif" font-size="10.00">+ Path()</text>
<text text-anchor="start" x="262.945" y="-357.5" font-family="Helvetica,sans-Serif" font-size="10.00">+ printPathInfo()</text>
<text text-anchor="start" x="262.945" y="-345.5" font-family="Helvetica,sans-Serif" font-size="10.00">+ addNode()</text>
<text text-anchor="start" x="262.945" y="-333.5" font-family="Helvetica,sans-Serif" font-size="10.00">+ updatePath()</text>
<text text-anchor="start" x="262.945" y="-321.5" font-family="Helvetica,sans-Serif" font-size="10.00">+ suggestNode()</text>
<text text-anchor="start" x="262.945" y="-309.5" font-family="Helvetica,sans-Serif" font-size="10.00">+ ~Path()</text>
</g>
<!-- Node2 -->
<g id="node2" class="node"><title>Node2</title>
<polygon fill="white" stroke="#bfbfbf" points="102.683,-507.5 102.683,-567.5 225.393,-567.5 225.393,-507.5 102.683,-507.5"/>
<text text-anchor="middle" x="164.038" y="-554.5" font-family="Helvetica,sans-Serif" font-size="10.00">std::vector&lt; AOnode * &gt;</text>
<polyline fill="none" stroke="#bfbfbf" points="102.683,-547.5 225.393,-547.5 "/>
<text text-anchor="middle" x="164.038" y="-534.5" font-family="Helvetica,sans-Serif" font-size="10.00"> </text>
<polyline fill="none" stroke="#bfbfbf" points="102.683,-527.5 225.393,-527.5 "/>
<text text-anchor="middle" x="164.038" y="-514.5" font-family="Helvetica,sans-Serif" font-size="10.00"> </text>
</g>
<!-- Node2&#45;&gt;Node1 -->
<g id="edge1" class="edge"><title>Node2&#45;&gt;Node1</title>
<path fill="none" stroke="#404040" d="M196.865,-507.169C211.862,-493.161 229.484,-475.814 244.038,-459 245.046,-457.835 246.055,-456.653 247.063,-455.456"/>
<polygon fill="none" stroke="#404040" points="247.162,-455.335 247.858,-448.158 254.751,-446.04 254.055,-453.218 247.162,-455.335"/>
<text text-anchor="middle" x="254.523" y="-480" font-family="Helvetica,sans-Serif" font-size="10.00"> +pathNodes</text>
</g>
<!-- Node7 -->
<g id="node7" class="node"><title>Node7</title>
<g id="a_node7"><a xlink:href="../../db/dba/classHyperArc.xhtml" target="_top" xlink:title="class &quot;HyperArc&quot; for the hyperarc connecting one parent node to a number of child nodes in an AND rel...">
<polygon fill="white" stroke="black" points="152.841,-338.5 152.841,-422.5 235.236,-422.5 235.236,-338.5 152.841,-338.5"/>
<text text-anchor="middle" x="194.038" y="-409.5" font-family="Helvetica,sans-Serif" font-size="10.00">HyperArc</text>
<polyline fill="none" stroke="black" points="152.841,-402.5 235.236,-402.5 "/>
<text text-anchor="middle" x="194.038" y="-389.5" font-family="Helvetica,sans-Serif" font-size="10.00"> </text>
<polyline fill="none" stroke="black" points="152.841,-382.5 235.236,-382.5 "/>
<text text-anchor="start" x="160.841" y="-369.5" font-family="Helvetica,sans-Serif" font-size="10.00">+ HyperArc()</text>
<text text-anchor="start" x="160.841" y="-357.5" font-family="Helvetica,sans-Serif" font-size="10.00">+ printArcInfo()</text>
<text text-anchor="start" x="160.841" y="-345.5" font-family="Helvetica,sans-Serif" font-size="10.00">+ ~HyperArc()</text>
</a>
</g>
</g>
<!-- Node2&#45;&gt;Node7 -->
<g id="edge7" class="edge"><title>Node2&#45;&gt;Node7</title>
<path fill="none" stroke="#404040" d="M156.643,-507.337C155.158,-497.645 154.552,-486.822 156.417,-477 159.144,-462.639 163.986,-447.675 169.308,-433.97"/>
<polygon fill="none" stroke="#404040" points="169.332,-433.91 167.889,-426.845 173.855,-422.795 175.299,-429.86 169.332,-433.91"/>
<text text-anchor="middle" x="178.849" y="-480" font-family="Helvetica,sans-Serif" font-size="10.00"> +children</text>
</g>
<!-- Node3 -->
<g id="node3" class="node"><title>Node3</title>
<g id="a_node3"><a xlink:href="../../d6/d22/classAOnode.xhtml" target="_top" xlink:title="class &quot;AOnode&quot; for the generic node element of an AND&#45;OR graph ">
<polygon fill="white" stroke="black" points="76.3915,-0.5 76.3915,-144.5 167.685,-144.5 167.685,-0.5 76.3915,-0.5"/>
<text text-anchor="middle" x="122.038" y="-131.5" font-family="Helvetica,sans-Serif" font-size="10.00">AOnode</text>
<polyline fill="none" stroke="black" points="76.3915,-124.5 167.685,-124.5 "/>
<text text-anchor="start" x="84.3915" y="-111.5" font-family="Helvetica,sans-Serif" font-size="10.00">+ nCost</text>
<text text-anchor="start" x="84.3915" y="-99.5" font-family="Helvetica,sans-Serif" font-size="10.00">+ nSolved</text>
<text text-anchor="start" x="84.3915" y="-87.5" font-family="Helvetica,sans-Serif" font-size="10.00">+ nFeasible</text>
<polyline fill="none" stroke="black" points="76.3915,-80.5 167.685,-80.5 "/>
<text text-anchor="start" x="84.3915" y="-67.5" font-family="Helvetica,sans-Serif" font-size="10.00">+ AOnode()</text>
<text text-anchor="start" x="84.3915" y="-55.5" font-family="Helvetica,sans-Serif" font-size="10.00">+ addArc()</text>
<text text-anchor="start" x="84.3915" y="-43.5" font-family="Helvetica,sans-Serif" font-size="10.00">+ printNodeInfo()</text>
<text text-anchor="start" x="84.3915" y="-31.5" font-family="Helvetica,sans-Serif" font-size="10.00">+ isFeasible()</text>
<text text-anchor="start" x="84.3915" y="-19.5" font-family="Helvetica,sans-Serif" font-size="10.00">+ setSolved()</text>
<text text-anchor="start" x="84.3915" y="-7.5" font-family="Helvetica,sans-Serif" font-size="10.00">+ ~AOnode()</text>
</a>
</g>
</g>
<!-- Node3&#45;&gt;Node2 -->
<g id="edge2" class="edge"><title>Node3&#45;&gt;Node2</title>
<path fill="none" stroke="#404040" d="M121.949,-144.636C122.814,-222.327 127.064,-350.21 144.038,-459 145.914,-471.024 148.847,-483.891 151.895,-495.618"/>
<polygon fill="none" stroke="#404040" points="151.933,-495.759 157.363,-500.504 155.072,-507.342 149.642,-502.597 151.933,-495.759"/>
<text text-anchor="middle" x="151.629" y="-275" font-family="Helvetica,sans-Serif" font-size="10.00"> +elements</text>
</g>
<!-- Node4 -->
<g id="node4" class="node"><title>Node4</title>
<g id="a_node4"><a xlink:title="STL class. ">
<polygon fill="white" stroke="#bfbfbf" points="26.3675,-193.5 26.3675,-253.5 85.7085,-253.5 85.7085,-193.5 26.3675,-193.5"/>
<text text-anchor="middle" x="56.038" y="-240.5" font-family="Helvetica,sans-Serif" font-size="10.00">std::string</text>
<polyline fill="none" stroke="#bfbfbf" points="26.3675,-233.5 85.7085,-233.5 "/>
<text text-anchor="middle" x="56.038" y="-220.5" font-family="Helvetica,sans-Serif" font-size="10.00"> </text>
<polyline fill="none" stroke="#bfbfbf" points="26.3675,-213.5 85.7085,-213.5 "/>
<text text-anchor="middle" x="56.038" y="-200.5" font-family="Helvetica,sans-Serif" font-size="10.00"> </text>
</a>
</g>
</g>
<!-- Node4&#45;&gt;Node3 -->
<g id="edge3" class="edge"><title>Node4&#45;&gt;Node3</title>
<path fill="none" stroke="#404040" d="M59.3123,-193.466C60.9915,-183.584 63.4939,-172.612 67.195,-163 68.3819,-159.918 69.6756,-156.823 71.0551,-153.734"/>
<polygon fill="none" stroke="#404040" points="71.2042,-153.422 70.1883,-146.283 76.3876,-142.599 77.4035,-149.739 71.2042,-153.422"/>
<text text-anchor="middle" x="88.4595" y="-166" font-family="Helvetica,sans-Serif" font-size="10.00"> +nName</text>
</g>
<!-- Node5 -->
<g id="node5" class="node"><title>Node5</title>
<g id="a_node5"><a xlink:title="STL class. ">
<polygon fill="white" stroke="#bfbfbf" points="1.42109e-14,-344.5 1.42109e-14,-416.5 94.076,-416.5 94.076,-344.5 1.42109e-14,-344.5"/>
<text text-anchor="start" x="8" y="-403.5" font-family="Helvetica,sans-Serif" font-size="10.00">std::basic_string&lt;</text>
<text text-anchor="middle" x="47.038" y="-391.5" font-family="Helvetica,sans-Serif" font-size="10.00"> char &gt;</text>
<polyline fill="none" stroke="#bfbfbf" points="1.42109e-14,-384.5 94.076,-384.5 "/>
<text text-anchor="middle" x="47.038" y="-371.5" font-family="Helvetica,sans-Serif" font-size="10.00"> </text>
<polyline fill="none" stroke="#bfbfbf" points="1.42109e-14,-364.5 94.076,-364.5 "/>
<text text-anchor="middle" x="47.038" y="-351.5" font-family="Helvetica,sans-Serif" font-size="10.00"> </text>
</a>
</g>
</g>
<!-- Node5&#45;&gt;Node4 -->
<g id="edge4" class="edge"><title>Node5&#45;&gt;Node4</title>
<path fill="none" stroke="midnightblue" d="M49.6623,-334.303C51.1749,-308.253 53.0318,-276.273 54.3507,-253.559"/>
<polygon fill="none" stroke="midnightblue" points="46.1659,-334.142 49.0802,-344.328 53.1541,-334.548 46.1659,-334.142"/>
</g>
<!-- Node6 -->
<g id="node6" class="node"><title>Node6</title>
<polygon fill="white" stroke="#bfbfbf" points="150.527,-193.5 150.527,-253.5 271.549,-253.5 271.549,-193.5 150.527,-193.5"/>
<text text-anchor="middle" x="211.038" y="-240.5" font-family="Helvetica,sans-Serif" font-size="10.00">std::vector&lt; HyperArc &gt;</text>
<polyline fill="none" stroke="#bfbfbf" points="150.527,-233.5 271.549,-233.5 "/>
<text text-anchor="middle" x="211.038" y="-220.5" font-family="Helvetica,sans-Serif" font-size="10.00"> </text>
<polyline fill="none" stroke="#bfbfbf" points="150.527,-213.5 271.549,-213.5 "/>
<text text-anchor="middle" x="211.038" y="-200.5" font-family="Helvetica,sans-Serif" font-size="10.00"> </text>
</g>
<!-- Node6&#45;&gt;Node3 -->
<g id="edge5" class="edge"><title>Node6&#45;&gt;Node3</title>
<path fill="none" stroke="#404040" d="M193.667,-193.418C186.975,-182.215 178.96,-168.796 170.752,-155.054"/>
<polygon fill="none" stroke="#404040" points="170.609,-154.816 164.099,-151.716 164.456,-144.514 170.967,-147.614 170.609,-154.816"/>
<text text-anchor="middle" x="196.791" y="-166" font-family="Helvetica,sans-Serif" font-size="10.00"> +arcs</text>
</g>
<!-- Node7&#45;&gt;Node6 -->
<g id="edge6" class="edge"><title>Node7&#45;&gt;Node6</title>
<path fill="none" stroke="#404040" d="M198.549,-338.37C201.011,-315.924 204.05,-288.213 206.514,-265.749"/>
<polygon fill="none" stroke="#404040" points="206.544,-265.471 203.222,-259.07 207.853,-253.542 211.175,-259.942 206.544,-265.471"/>
<text text-anchor="middle" x="230.629" y="-275" font-family="Helvetica,sans-Serif" font-size="10.00"> +elements</text>
</g>
<!-- Node8 -->
<g id="node8" class="node"><title>Node8</title>
<g id="a_node8"><a xlink:title="STL class. ">
<polygon fill="white" stroke="#bfbfbf" points="259.305,-616.5 259.305,-676.5 344.772,-676.5 344.772,-616.5 259.305,-616.5"/>
<text text-anchor="middle" x="302.038" y="-663.5" font-family="Helvetica,sans-Serif" font-size="10.00">std::vector&lt; T &gt;</text>
<polyline fill="none" stroke="#bfbfbf" points="259.305,-656.5 344.772,-656.5 "/>
<text text-anchor="middle" x="302.038" y="-643.5" font-family="Helvetica,sans-Serif" font-size="10.00"> </text>
<polyline fill="none" stroke="#bfbfbf" points="259.305,-636.5 344.772,-636.5 "/>
<text text-anchor="middle" x="302.038" y="-623.5" font-family="Helvetica,sans-Serif" font-size="10.00"> </text>
</a>
</g>
</g>
<!-- Node8&#45;&gt;Node2 -->
<g id="edge10" class="edge"><title>Node8&#45;&gt;Node2</title>
<path fill="none" stroke="orange" d="M251.309,-610.438C245.645,-606.315 240,-602.111 234.671,-598 222.23,-588.402 208.963,-577.433 197.326,-567.549"/>
<polygon fill="orange" stroke="orange" points="249.428,-613.397 259.588,-616.403 253.52,-607.717 249.428,-613.397"/>
<text text-anchor="middle" x="266.721" y="-589" font-family="Helvetica,sans-Serif" font-size="10.00"> &lt; AOnode * &gt;</text>
</g>
<!-- Node8&#45;&gt;Node6 -->
<g id="edge8" class="edge"><title>Node8&#45;&gt;Node6</title>
<path fill="none" stroke="orange" d="M337.233,-608.488C339.993,-605.036 342.637,-601.512 345.038,-598 353.451,-585.694 355.013,-582.035 360.038,-568 399.901,-456.669 421.317,-399.248 354.038,-302 334.518,-273.785 301.315,-254.895 271.815,-242.834"/>
<polygon fill="orange" stroke="orange" points="334.368,-606.459 330.641,-616.377 339.739,-610.947 334.368,-606.459"/>
<text text-anchor="middle" x="420.877" y="-480" font-family="Helvetica,sans-Serif" font-size="10.00"> &lt; HyperArc &gt;</text>
</g>
<!-- Node10 -->
<g id="node10" class="node"><title>Node10</title>
<polygon fill="white" stroke="#bfbfbf" points="252.911,-507.5 252.911,-567.5 351.165,-567.5 351.165,-507.5 252.911,-507.5"/>
<text text-anchor="middle" x="302.038" y="-554.5" font-family="Helvetica,sans-Serif" font-size="10.00">std::vector&lt; bool &gt;</text>
<polyline fill="none" stroke="#bfbfbf" points="252.911,-547.5 351.165,-547.5 "/>
<text text-anchor="start" x="260.911" y="-534.5" font-family="Helvetica,sans-Serif" font-size="10.00">+ elements</text>
<polyline fill="none" stroke="#bfbfbf" points="252.911,-527.5 351.165,-527.5 "/>
<text text-anchor="middle" x="302.038" y="-514.5" font-family="Helvetica,sans-Serif" font-size="10.00"> </text>
</g>
<!-- Node8&#45;&gt;Node10 -->
<g id="edge12" class="edge"><title>Node8&#45;&gt;Node10</title>
<path fill="none" stroke="orange" d="M302.038,-605.953C302.038,-593.285 302.038,-579.494 302.038,-567.703"/>
<polygon fill="orange" stroke="orange" points="298.538,-606.262 302.038,-616.262 305.538,-606.262 298.538,-606.262"/>
<text text-anchor="middle" x="321.494" y="-589" font-family="Helvetica,sans-Serif" font-size="10.00"> &lt; bool &gt;</text>
</g>
<!-- Node9 -->
<g id="node9" class="node"><title>Node9</title>
<polygon fill="white" stroke="#bfbfbf" points="287.538,-725.5 287.538,-785.5 316.538,-785.5 316.538,-725.5 287.538,-725.5"/>
<text text-anchor="middle" x="301.593" y="-772.5" font-family="Helvetica,sans-Serif" font-size="10.00">T</text>
<polyline fill="none" stroke="#bfbfbf" points="287.538,-765.5 315.647,-765.5 "/>
<text text-anchor="middle" x="301.593" y="-752.5" font-family="Helvetica,sans-Serif" font-size="10.00"> </text>
<polyline fill="none" stroke="#bfbfbf" points="287.538,-745.5 315.647,-745.5 "/>
<text text-anchor="middle" x="301.593" y="-732.5" font-family="Helvetica,sans-Serif" font-size="10.00"> </text>
</g>
<!-- Node9&#45;&gt;Node8 -->
<g id="edge9" class="edge"><title>Node9&#45;&gt;Node8</title>
<path fill="none" stroke="#404040" d="M302.038,-725.262C302.038,-714.056 302.038,-701.049 302.038,-688.917"/>
<polygon fill="none" stroke="#404040" points="302.038,-688.703 298.038,-682.703 302.038,-676.703 306.038,-682.703 302.038,-688.703"/>
<text text-anchor="middle" x="326.629" y="-698" font-family="Helvetica,sans-Serif" font-size="10.00"> +elements</text>
</g>
<!-- Node10&#45;&gt;Node1 -->
<g id="edge11" class="edge"><title>Node10&#45;&gt;Node1</title>
<path fill="none" stroke="#404040" d="M301.662,-507.346C301.524,-496.67 301.36,-483.957 301.19,-470.779"/>
<polygon fill="none" stroke="#404040" points="301.188,-470.589 297.111,-464.641 301.033,-458.59 305.11,-464.538 301.188,-470.589"/>
<text text-anchor="middle" x="339.413" y="-480" font-family="Helvetica,sans-Serif" font-size="10.00"> +checkedNodes</text>
</g>
</g>
</svg>
        <g id="navigator" transform="translate(0 0)" fill="#404254">
                <rect fill="#f2f5e9" fill-opacity="0.5" stroke="#606060" stroke-width=".5" x="0" y="0" width="60" height="60"/>
                <use id="zoomplus" xlink:href="#zoomPlus" x="17" y="9" onmousedown="handleZoom(evt,'in')"/>
                <use id="zoomminus" xlink:href="#zoomMin" x="42" y="9" onmousedown="handleZoom(evt,'out')"/>
                <use id="reset" xlink:href="#resetDef" x="30" y="36" onmousedown="handleReset()"/>
                <g id="arrowUp" xlink:href="#dirArrow" transform="translate(30 24)" onmousedown="handlePan(0,-1)">
                  <use xlink:href="#rim" fill="#404040">
                        <set attributeName="fill" to="#808080" begin="arrowUp.mouseover" end="arrowUp.mouseout"/>
                  </use>
                  <path fill="none" stroke="white" stroke-width="1.5" d="M0,-3.0v7 M-2.5,-0.5L0,-3.0L2.5,-0.5"/>
                </g>
                <g id="arrowRight" xlink:href="#dirArrow" transform="rotate(90) translate(36 -43)" onmousedown="handlePan(1,0)">
                  <use xlink:href="#rim" fill="#404040">
                        <set attributeName="fill" to="#808080" begin="arrowRight.mouseover" end="arrowRight.mouseout"/>
                  </use>
                  <path fill="none" stroke="white" stroke-width="1.5" d="M0,-3.0v7 M-2.5,-0.5L0,-3.0L2.5,-0.5"/>
                </g>
                <g id="arrowDown" xlink:href="#dirArrow" transform="rotate(180) translate(-30 -48)" onmousedown="handlePan(0,1)">
                  <use xlink:href="#rim" fill="#404040">
                        <set attributeName="fill" to="#808080" begin="arrowDown.mouseover" end="arrowDown.mouseout"/>
                  </use>
                  <path fill="none" stroke="white" stroke-width="1.5" d="M0,-3.0v7 M-2.5,-0.5L0,-3.0L2.5,-0.5"/>
                </g>
                <g id="arrowLeft" xlink:href="#dirArrow" transform="rotate(270) translate(-36 17)" onmousedown="handlePan(-1,0)">
                  <use xlink:href="#rim" fill="#404040">
                        <set attributeName="fill" to="#808080" begin="arrowLeft.mouseover" end="arrowLeft.mouseout"/>
                  </use>
                  <path fill="none" stroke="white" stroke-width="1.5" d="M0,-3.0v7 M-2.5,-0.5L0,-3.0L2.5,-0.5"/>
                </g>
        </g>
        <svg viewBox="0 0 15 15" width="100%" height="30px" preserveAspectRatio="xMaxYMin meet">
         <g id="arrow_out" transform="scale(0.3 0.3)">
          <a xlink:href="classPath__coll__graph_org.svg" target="_base">
           <rect id="button" ry="5" rx="5" y="6" x="6" height="38" width="38"
                fill="#f2f5e9" fill-opacity="0.5" stroke="#606060" stroke-width="1.0"/>
           <path id="arrow"
             d="M 11.500037,31.436501 C 11.940474,20.09759 22.043105,11.32322 32.158766,21.979434 L 37.068811,17.246167 C 37.068811,17.246167 37.088388,32 37.088388,32 L 22.160133,31.978069 C 22.160133,31.978069 26.997745,27.140456 26.997745,27.140456 C 18.528582,18.264221 13.291696,25.230495 11.500037,31.436501 z"
             style="fill:#404040;"/>
          </a>
         </g>
        </svg>
</svg>
