<?xml version="1.0" encoding="UTF-8" standalone="no"?>
<!DOCTYPE svg PUBLIC "-//W3C//DTD SVG 1.1//EN"
 "http://www.w3.org/Graphics/SVG/1.1/DTD/svg11.dtd">
<!-- Generated by graphviz version 2.38.0 (20140413.2041)
 -->
<!-- Title: HyperArc Pages: 1 -->
<!--zoomable 613 -->
<svg id="main" version="1.1" xmlns="http://www.w3.org/2000/svg" xmlns:xlink="http://www.w3.org/1999/xlink" xml:space="preserve" onload="init(evt)">
<style type="text/css"><![CDATA[
.edge:hover path { stroke: red; }
.edge:hover polygon { stroke: red; fill: red; }
]]></style>
<script type="text/javascript"><![CDATA[
var edges = document.getElementsByTagName('g');
if (edges && edges.length) {
  for (var i=0;i<edges.length;i++) {
    if (edges[i].id.substr(0,4)=='edge') {
      edges[i].setAttribute('class','edge');
    }
  }
}
]]></script>
        <defs>
                <circle id="rim" cx="0" cy="0" r="7"/>
                <circle id="rim2" cx="0" cy="0" r="3.5"/>
                <g id="zoomPlus">
                        <use xlink:href="#rim" fill="#404040">
                                <set attributeName="fill" to="#808080" begin="zoomplus.mouseover" end="zoomplus.mouseout"/>
                        </use>
                        <path d="M-4,0h8M0,-4v8" fill="none" stroke="white" stroke-width="1.5" pointer-events="none"/>
                </g>
                <g id="zoomMin">
                        <use xlink:href="#rim" fill="#404040">
                                <set attributeName="fill" to="#808080" begin="zoomminus.mouseover" end="zoomminus.mouseout"/>
                        </use>
                        <path d="M-4,0h8" fill="none" stroke="white" stroke-width="1.5" pointer-events="none"/>
                </g>
                <g id="dirArrow">
                        <path fill="none" stroke="white" stroke-width="1.5" d="M0,-3.0v7 M-2.5,-0.5L0,-3.0L2.5,-0.5"/>
                </g>
               <g id="resetDef">
                       <use xlink:href="#rim2" fill="#404040">
                               <set attributeName="fill" to="#808080" begin="reset.mouseover" end="reset.mouseout"/>
                       </use>
               </g>
        </defs>

<script type="text/javascript">
var viewWidth = 345;
var viewHeight = 613;
var sectionId = 'dynsection-0';
</script>
<script xlink:href="../../svgpan.js"/>
<svg id="graph" class="graph">
<g id="viewport">
<title>HyperArc</title>
<polygon fill="white" stroke="none" points="-4,4 -4,-609 340.564,-609 340.564,4 -4,4"/>
<!-- Node1 -->
<g id="node1" class="node"><title>Node1</title>
<polygon fill="#bfbfbf" stroke="black" points="-7.10543e-15,-411.5 -7.10543e-15,-495.5 82.395,-495.5 82.395,-411.5 -7.10543e-15,-411.5"/>
<text text-anchor="middle" x="41.1975" y="-482.5" font-family="Helvetica,sans-Serif" font-size="10.00">HyperArc</text>
<polyline fill="none" stroke="black" points="-7.10543e-15,-475.5 82.395,-475.5 "/>
<text text-anchor="start" x="8" y="-462.5" font-family="Helvetica,sans-Serif" font-size="10.00">+ hCost</text>
<polyline fill="none" stroke="black" points="-7.10543e-15,-455.5 82.395,-455.5 "/>
<text text-anchor="start" x="8" y="-442.5" font-family="Helvetica,sans-Serif" font-size="10.00">+ HyperArc()</text>
<text text-anchor="start" x="8" y="-430.5" font-family="Helvetica,sans-Serif" font-size="10.00">+ printArcInfo()</text>
<text text-anchor="start" x="8" y="-418.5" font-family="Helvetica,sans-Serif" font-size="10.00">+ ~HyperArc()</text>
</g>
<!-- Node6 -->
<g id="node6" class="node"><title>Node6</title>
<polygon fill="white" stroke="#bfbfbf" points="146.686,-302.5 146.686,-362.5 267.708,-362.5 267.708,-302.5 146.686,-302.5"/>
<text text-anchor="middle" x="207.197" y="-349.5" font-family="Helvetica,sans-Serif" font-size="10.00">std::vector&lt; HyperArc &gt;</text>
<polyline fill="none" stroke="#bfbfbf" points="146.686,-342.5 267.708,-342.5 "/>
<text text-anchor="middle" x="207.197" y="-329.5" font-family="Helvetica,sans-Serif" font-size="10.00"> </text>
<polyline fill="none" stroke="#bfbfbf" points="146.686,-322.5 267.708,-322.5 "/>
<text text-anchor="middle" x="207.197" y="-309.5" font-family="Helvetica,sans-Serif" font-size="10.00"> </text>
</g>
<!-- Node1&#45;&gt;Node6 -->
<g id="edge7" class="edge"><title>Node1&#45;&gt;Node6</title>
<path fill="none" stroke="#404040" d="M82.4028,-417.741C85.3524,-415.426 88.3039,-413.158 91.1975,-411 110.287,-396.761 131.825,-382.027 151.115,-369.278"/>
<polygon fill="none" stroke="#404040" points="151.239,-369.197 154.06,-362.56 161.271,-362.612 158.45,-369.248 151.239,-369.197"/>
<text text-anchor="middle" x="156.788" y="-384" font-family="Helvetica,sans-Serif" font-size="10.00"> +elements</text>
</g>
<!-- Node2 -->
<g id="node2" class="node"><title>Node2</title>
<polygon fill="white" stroke="#bfbfbf" points="70.8425,-0.5 70.8425,-60.5 193.552,-60.5 193.552,-0.5 70.8425,-0.5"/>
<text text-anchor="middle" x="132.197" y="-47.5" font-family="Helvetica,sans-Serif" font-size="10.00">std::vector&lt; AOnode * &gt;</text>
<polyline fill="none" stroke="#bfbfbf" points="70.8425,-40.5 193.552,-40.5 "/>
<text text-anchor="middle" x="132.197" y="-27.5" font-family="Helvetica,sans-Serif" font-size="10.00"> </text>
<polyline fill="none" stroke="#bfbfbf" points="70.8425,-20.5 193.552,-20.5 "/>
<text text-anchor="middle" x="132.197" y="-7.5" font-family="Helvetica,sans-Serif" font-size="10.00"> </text>
</g>
<!-- Node2&#45;&gt;Node1 -->
<g id="edge1" class="edge"><title>Node2&#45;&gt;Node1</title>
<path fill="none" stroke="#404040" d="M103.409,-60.6886C99.0516,-66.395 95.0627,-72.6048 92.1975,-79 44.5798,-185.284 38.5197,-324.285 39.2504,-399.16"/>
<polygon fill="none" stroke="#404040" points="39.2554,-399.493 43.3466,-405.431 39.4387,-411.492 35.3475,-405.553 39.2554,-399.493"/>
<text text-anchor="middle" x="67.008" y="-275" font-family="Helvetica,sans-Serif" font-size="10.00"> +children</text>
</g>
<!-- Node3 -->
<g id="node3" class="node"><title>Node3</title>
<g id="a_node3"><a xlink:href="../../d6/d22/classAOnode.xhtml" target="_top" xlink:title="class &quot;AOnode&quot; for the generic node element of an AND&#45;OR graph ">
<polygon fill="white" stroke="black" points="97.551,-109.5 97.551,-253.5 188.844,-253.5 188.844,-109.5 97.551,-109.5"/>
<text text-anchor="middle" x="143.197" y="-240.5" font-family="Helvetica,sans-Serif" font-size="10.00">AOnode</text>
<polyline fill="none" stroke="black" points="97.551,-233.5 188.844,-233.5 "/>
<text text-anchor="start" x="105.551" y="-220.5" font-family="Helvetica,sans-Serif" font-size="10.00">+ nCost</text>
<text text-anchor="start" x="105.551" y="-208.5" font-family="Helvetica,sans-Serif" font-size="10.00">+ nSolved</text>
<text text-anchor="start" x="105.551" y="-196.5" font-family="Helvetica,sans-Serif" font-size="10.00">+ nFeasible</text>
<polyline fill="none" stroke="black" points="97.551,-189.5 188.844,-189.5 "/>
<text text-anchor="start" x="105.551" y="-176.5" font-family="Helvetica,sans-Serif" font-size="10.00">+ AOnode()</text>
<text text-anchor="start" x="105.551" y="-164.5" font-family="Helvetica,sans-Serif" font-size="10.00">+ addArc()</text>
<text text-anchor="start" x="105.551" y="-152.5" font-family="Helvetica,sans-Serif" font-size="10.00">+ printNodeInfo()</text>
<text text-anchor="start" x="105.551" y="-140.5" font-family="Helvetica,sans-Serif" font-size="10.00">+ isFeasible()</text>
<text text-anchor="start" x="105.551" y="-128.5" font-family="Helvetica,sans-Serif" font-size="10.00">+ setSolved()</text>
<text text-anchor="start" x="105.551" y="-116.5" font-family="Helvetica,sans-Serif" font-size="10.00">+ ~AOnode()</text>
</a>
</g>
</g>
<!-- Node2&#45;&gt;Node3 -->
<g id="edge3" class="edge"><title>Node2&#45;&gt;Node3</title>
<path fill="none" stroke="#404040" d="M142.198,-60.6005C143.861,-66.6145 145.326,-72.9585 146.197,-79 147.035,-84.8016 147.604,-90.8084 147.96,-96.8693"/>
<polygon fill="none" stroke="#404040" points="147.977,-97.3453 152.192,-103.197 148.411,-109.337 144.197,-103.486 147.977,-97.3453"/>
<text text-anchor="middle" x="169.178" y="-82" font-family="Helvetica,sans-Serif" font-size="10.00"> +parents</text>
</g>
<!-- Node3&#45;&gt;Node2 -->
<g id="edge2" class="edge"><title>Node3&#45;&gt;Node2</title>
<path fill="none" stroke="#404040" d="M102.79,-109.364C100.482,-103.283 98.5016,-97.1168 97.0165,-91 95.4062,-84.3674 96.2479,-77.7451 98.5316,-71.4558"/>
<polygon fill="none" stroke="#404040" points="98.6114,-71.2961 97.7192,-64.1404 103.981,-60.5646 104.874,-67.7203 98.6114,-71.2961"/>
<text text-anchor="middle" x="121.788" y="-82" font-family="Helvetica,sans-Serif" font-size="10.00"> +elements</text>
</g>
<!-- Node4 -->
<g id="node4" class="node"><title>Node4</title>
<g id="a_node4"><a xlink:title="STL class. ">
<polygon fill="white" stroke="#bfbfbf" points="69.527,-302.5 69.527,-362.5 128.868,-362.5 128.868,-302.5 69.527,-302.5"/>
<text text-anchor="middle" x="99.1975" y="-349.5" font-family="Helvetica,sans-Serif" font-size="10.00">std::string</text>
<polyline fill="none" stroke="#bfbfbf" points="69.527,-342.5 128.868,-342.5 "/>
<text text-anchor="middle" x="99.1975" y="-329.5" font-family="Helvetica,sans-Serif" font-size="10.00"> </text>
<polyline fill="none" stroke="#bfbfbf" points="69.527,-322.5 128.868,-322.5 "/>
<text text-anchor="middle" x="99.1975" y="-309.5" font-family="Helvetica,sans-Serif" font-size="10.00"> </text>
</a>
</g>
</g>
<!-- Node4&#45;&gt;Node3 -->
<g id="edge4" class="edge"><title>Node4&#45;&gt;Node3</title>
<path fill="none" stroke="#404040" d="M107.786,-302.418C110.997,-291.544 114.824,-278.583 118.757,-265.266"/>
<polygon fill="none" stroke="#404040" points="118.828,-265.023 116.691,-258.136 122.227,-253.514 124.364,-260.401 118.828,-265.023"/>
<text text-anchor="middle" x="136.619" y="-275" font-family="Helvetica,sans-Serif" font-size="10.00"> +nName</text>
</g>
<!-- Node5 -->
<g id="node5" class="node"><title>Node5</title>
<g id="a_node5"><a xlink:title="STL class. ">
<polygon fill="white" stroke="#bfbfbf" points="100.159,-417.5 100.159,-489.5 194.236,-489.5 194.236,-417.5 100.159,-417.5"/>
<text text-anchor="start" x="108.159" y="-476.5" font-family="Helvetica,sans-Serif" font-size="10.00">std::basic_string&lt;</text>
<text text-anchor="middle" x="147.197" y="-464.5" font-family="Helvetica,sans-Serif" font-size="10.00"> char &gt;</text>
<polyline fill="none" stroke="#bfbfbf" points="100.159,-457.5 194.236,-457.5 "/>
<text text-anchor="middle" x="147.197" y="-444.5" font-family="Helvetica,sans-Serif" font-size="10.00"> </text>
<polyline fill="none" stroke="#bfbfbf" points="100.159,-437.5 194.236,-437.5 "/>
<text text-anchor="middle" x="147.197" y="-424.5" font-family="Helvetica,sans-Serif" font-size="10.00"> </text>
</a>
</g>
</g>
<!-- Node5&#45;&gt;Node4 -->
<g id="edge5" class="edge"><title>Node5&#45;&gt;Node4</title>
<path fill="none" stroke="midnightblue" d="M139.821,-407.522C137.605,-398.542 134.779,-389.319 131.197,-381 128.524,-374.79 125.013,-368.527 121.298,-362.678"/>
<polygon fill="none" stroke="midnightblue" points="136.456,-408.511 142.069,-417.496 143.284,-406.971 136.456,-408.511"/>
</g>
<!-- Node6&#45;&gt;Node3 -->
<g id="edge6" class="edge"><title>Node6&#45;&gt;Node3</title>
<path fill="none" stroke="#404040" d="M194.706,-302.418C189.988,-291.434 184.356,-278.321 178.574,-264.862"/>
<polygon fill="none" stroke="#404040" points="178.436,-264.54 172.393,-260.606 173.7,-253.514 179.743,-257.448 178.436,-264.54"/>
<text text-anchor="middle" x="200.95" y="-275" font-family="Helvetica,sans-Serif" font-size="10.00"> +arcs</text>
</g>
<!-- Node7 -->
<g id="node7" class="node"><title>Node7</title>
<g id="a_node7"><a xlink:title="STL class. ">
<polygon fill="white" stroke="#bfbfbf" points="232.464,-423.5 232.464,-483.5 317.931,-483.5 317.931,-423.5 232.464,-423.5"/>
<text text-anchor="middle" x="275.197" y="-470.5" font-family="Helvetica,sans-Serif" font-size="10.00">std::vector&lt; T &gt;</text>
<polyline fill="none" stroke="#bfbfbf" points="232.464,-463.5 317.931,-463.5 "/>
<text text-anchor="middle" x="275.197" y="-450.5" font-family="Helvetica,sans-Serif" font-size="10.00"> </text>
<polyline fill="none" stroke="#bfbfbf" points="232.464,-443.5 317.931,-443.5 "/>
<text text-anchor="middle" x="275.197" y="-430.5" font-family="Helvetica,sans-Serif" font-size="10.00"> </text>
</a>
</g>
</g>
<!-- Node7&#45;&gt;Node2 -->
<g id="edge10" class="edge"><title>Node7&#45;&gt;Node2</title>
<path fill="none" stroke="orange" d="M280.503,-412.981C281.208,-406.323 281.818,-399.473 282.197,-393 284.008,-362.112 282.138,-325.208 277.197,-302 255.177,-198.565 257.071,-164.034 194.197,-79 189.28,-72.3492 183.186,-66.1709 176.755,-60.6176"/>
<polygon fill="orange" stroke="orange" points="276.993,-412.872 279.335,-423.204 283.947,-413.666 276.993,-412.872"/>
<text text-anchor="middle" x="304.881" y="-275" font-family="Helvetica,sans-Serif" font-size="10.00"> &lt; AOnode * &gt;</text>
</g>
<!-- Node7&#45;&gt;Node6 -->
<g id="edge8" class="edge"><title>Node7&#45;&gt;Node6</title>
<path fill="none" stroke="orange" d="M235.875,-415.475C230.047,-408.474 224.63,-400.864 220.518,-393 215.663,-383.713 212.571,-372.71 210.604,-362.708"/>
<polygon fill="orange" stroke="orange" points="233.613,-418.204 242.85,-423.394 238.866,-413.577 233.613,-418.204"/>
<text text-anchor="middle" x="252.037" y="-384" font-family="Helvetica,sans-Serif" font-size="10.00"> &lt; HyperArc &gt;</text>
</g>
<!-- Node8 -->
<g id="node8" class="node"><title>Node8</title>
<polygon fill="white" stroke="#bfbfbf" points="260.697,-544.5 260.697,-604.5 289.697,-604.5 289.697,-544.5 260.697,-544.5"/>
<text text-anchor="middle" x="274.752" y="-591.5" font-family="Helvetica,sans-Serif" font-size="10.00">T</text>
<polyline fill="none" stroke="#bfbfbf" points="260.697,-584.5 288.806,-584.5 "/>
<text text-anchor="middle" x="274.752" y="-571.5" font-family="Helvetica,sans-Serif" font-size="10.00"> </text>
<polyline fill="none" stroke="#bfbfbf" points="260.697,-564.5 288.806,-564.5 "/>
<text text-anchor="middle" x="274.752" y="-551.5" font-family="Helvetica,sans-Serif" font-size="10.00"> </text>
</g>
<!-- Node8&#45;&gt;Node7 -->
<g id="edge9" class="edge"><title>Node8&#45;&gt;Node7</title>
<path fill="none" stroke="#404040" d="M275.197,-544.389C275.197,-529.839 275.197,-511.973 275.197,-496.014"/>
<polygon fill="none" stroke="#404040" points="275.198,-495.723 271.198,-489.723 275.197,-483.723 279.198,-489.723 275.198,-495.723"/>
<text text-anchor="middle" x="299.788" y="-517" font-family="Helvetica,sans-Serif" font-size="10.00"> +elements</text>
</g>
</g>
</svg>
        <g id="navigator" transform="translate(0 0)" fill="#404254">
                <rect fill="#f2f5e9" fill-opacity="0.5" stroke="#606060" stroke-width=".5" x="0" y="0" width="60" height="60"/>
                <use id="zoomplus" xlink:href="#zoomPlus" x="17" y="9" onmousedown="handleZoom(evt,'in')"/>
                <use id="zoomminus" xlink:href="#zoomMin" x="42" y="9" onmousedown="handleZoom(evt,'out')"/>
                <use id="reset" xlink:href="#resetDef" x="30" y="36" onmousedown="handleReset()"/>
                <g id="arrowUp" xlink:href="#dirArrow" transform="translate(30 24)" onmousedown="handlePan(0,-1)">
                  <use xlink:href="#rim" fill="#404040">
                        <set attributeName="fill" to="#808080" begin="arrowUp.mouseover" end="arrowUp.mouseout"/>
                  </use>
                  <path fill="none" stroke="white" stroke-width="1.5" d="M0,-3.0v7 M-2.5,-0.5L0,-3.0L2.5,-0.5"/>
                </g>
                <g id="arrowRight" xlink:href="#dirArrow" transform="rotate(90) translate(36 -43)" onmousedown="handlePan(1,0)">
                  <use xlink:href="#rim" fill="#404040">
                        <set attributeName="fill" to="#808080" begin="arrowRight.mouseover" end="arrowRight.mouseout"/>
                  </use>
                  <path fill="none" stroke="white" stroke-width="1.5" d="M0,-3.0v7 M-2.5,-0.5L0,-3.0L2.5,-0.5"/>
                </g>
                <g id="arrowDown" xlink:href="#dirArrow" transform="rotate(180) translate(-30 -48)" onmousedown="handlePan(0,1)">
                  <use xlink:href="#rim" fill="#404040">
                        <set attributeName="fill" to="#808080" begin="arrowDown.mouseover" end="arrowDown.mouseout"/>
                  </use>
                  <path fill="none" stroke="white" stroke-width="1.5" d="M0,-3.0v7 M-2.5,-0.5L0,-3.0L2.5,-0.5"/>
                </g>
                <g id="arrowLeft" xlink:href="#dirArrow" transform="rotate(270) translate(-36 17)" onmousedown="handlePan(-1,0)">
                  <use xlink:href="#rim" fill="#404040">
                        <set attributeName="fill" to="#808080" begin="arrowLeft.mouseover" end="arrowLeft.mouseout"/>
                  </use>
                  <path fill="none" stroke="white" stroke-width="1.5" d="M0,-3.0v7 M-2.5,-0.5L0,-3.0L2.5,-0.5"/>
                </g>
        </g>
        <svg viewBox="0 0 15 15" width="100%" height="30px" preserveAspectRatio="xMaxYMin meet">
         <g id="arrow_out" transform="scale(0.3 0.3)">
          <a xlink:href="classHyperArc__coll__graph_org.svg" target="_base">
           <rect id="button" ry="5" rx="5" y="6" x="6" height="38" width="38"
                fill="#f2f5e9" fill-opacity="0.5" stroke="#606060" stroke-width="1.0"/>
           <path id="arrow"
             d="M 11.500037,31.436501 C 11.940474,20.09759 22.043105,11.32322 32.158766,21.979434 L 37.068811,17.246167 C 37.068811,17.246167 37.088388,32 37.088388,32 L 22.160133,31.978069 C 22.160133,31.978069 26.997745,27.140456 26.997745,27.140456 C 18.528582,18.264221 13.291696,25.230495 11.500037,31.436501 z"
             style="fill:#404040;"/>
          </a>
         </g>
        </svg>
</svg>
