<?xml version="1.0" encoding="UTF-8" standalone="no"?>
<!DOCTYPE svg PUBLIC "-//W3C//DTD SVG 1.1//EN"
 "http://www.w3.org/Graphics/SVG/1.1/DTD/svg11.dtd">
<!-- Generated by graphviz version 2.38.0 (20140413.2041)
 -->
<!-- Title: HyperArc Pages: 1 -->
<svg width="345pt" height="625pt"
 viewBox="0.00 0.00 344.56 625.00" xmlns="http://www.w3.org/2000/svg" xmlns:xlink="http://www.w3.org/1999/xlink">
<g id="graph0" class="graph" transform="scale(1 1) rotate(0) translate(4 621)">
<title>HyperArc</title>
<polygon fill="white" stroke="none" points="-4,4 -4,-621 340.564,-621 340.564,4 -4,4"/>
<!-- Node1 -->
<g id="node1" class="node"><title>Node1</title>
<polygon fill="#bfbfbf" stroke="black" points="-7.10543e-15,-411.5 -7.10543e-15,-507.5 82.395,-507.5 82.395,-411.5 -7.10543e-15,-411.5"/>
<text text-anchor="middle" x="41.1975" y="-494.5" font-family="Helvetica,sans-Serif" font-size="10.00">HyperArc</text>
<polyline fill="none" stroke="black" points="-7.10543e-15,-487.5 82.395,-487.5 "/>
<text text-anchor="start" x="8" y="-474.5" font-family="Helvetica,sans-Serif" font-size="10.00">+ hIndex</text>
<text text-anchor="start" x="8" y="-462.5" font-family="Helvetica,sans-Serif" font-size="10.00">+ hCost</text>
<polyline fill="none" stroke="black" points="-7.10543e-15,-455.5 82.395,-455.5 "/>
<text text-anchor="start" x="8" y="-442.5" font-family="Helvetica,sans-Serif" font-size="10.00">+ HyperArc()</text>
<text text-anchor="start" x="8" y="-430.5" font-family="Helvetica,sans-Serif" font-size="10.00">+ printArcInfo()</text>
<text text-anchor="start" x="8" y="-418.5" font-family="Helvetica,sans-Serif" font-size="10.00">+ ~HyperArc()</text>
</g>
<!-- Node6 -->
<g id="node6" class="node"><title>Node6</title>
<polygon fill="white" stroke="#bfbfbf" points="146.686,-302.5 146.686,-362.5 267.708,-362.5 267.708,-302.5 146.686,-302.5"/>
<text text-anchor="middle" x="207.197" y="-349.5" font-family="Helvetica,sans-Serif" font-size="10.00">std::vector&lt; HyperArc &gt;</text>
<polyline fill="none" stroke="#bfbfbf" points="146.686,-342.5 267.708,-342.5 "/>
<text text-anchor="middle" x="207.197" y="-329.5" font-family="Helvetica,sans-Serif" font-size="10.00"> </text>
<polyline fill="none" stroke="#bfbfbf" points="146.686,-322.5 267.708,-322.5 "/>
<text text-anchor="middle" x="207.197" y="-309.5" font-family="Helvetica,sans-Serif" font-size="10.00"> </text>
</g>
<!-- Node1&#45;&gt;Node6 -->
<g id="edge7" class="edge"><title>Node1&#45;&gt;Node6</title>
<path fill="none" stroke="#404040" d="M82.4569,-418.292C85.3681,-415.77 88.2983,-413.318 91.1975,-411 109.479,-396.386 130.487,-381.762 149.558,-369.218"/>
<polygon fill="none" stroke="#404040" points="149.568,-369.212 152.416,-362.587 159.627,-362.668 156.778,-369.293 149.568,-369.212"/>
<text text-anchor="middle" x="156.788" y="-384" font-family="Helvetica,sans-Serif" font-size="10.00"> +elements</text>
</g>
<!-- Node2 -->
<g id="node2" class="node"><title>Node2</title>
<polygon fill="white" stroke="#bfbfbf" points="70.8425,-0.5 70.8425,-60.5 193.552,-60.5 193.552,-0.5 70.8425,-0.5"/>
<text text-anchor="middle" x="132.197" y="-47.5" font-family="Helvetica,sans-Serif" font-size="10.00">std::vector&lt; AOnode * &gt;</text>
<polyline fill="none" stroke="#bfbfbf" points="70.8425,-40.5 193.552,-40.5 "/>
<text text-anchor="middle" x="132.197" y="-27.5" font-family="Helvetica,sans-Serif" font-size="10.00"> </text>
<polyline fill="none" stroke="#bfbfbf" points="70.8425,-20.5 193.552,-20.5 "/>
<text text-anchor="middle" x="132.197" y="-7.5" font-family="Helvetica,sans-Serif" font-size="10.00"> </text>
</g>
<!-- Node2&#45;&gt;Node1 -->
<g id="edge1" class="edge"><title>Node2&#45;&gt;Node1</title>
<path fill="none" stroke="#404040" d="M103.409,-60.6886C99.0516,-66.395 95.0627,-72.6048 92.1975,-79 44.9518,-184.454 38.3526,-321.665 38.9842,-398.89"/>
<polygon fill="none" stroke="#404040" points="38.9885,-399.215 43.0694,-405.16 39.1511,-411.214 35.0702,-405.268 38.9885,-399.215"/>
<text text-anchor="middle" x="67.008" y="-275" font-family="Helvetica,sans-Serif" font-size="10.00"> +children</text>
</g>
<!-- Node3 -->
<g id="node3" class="node"><title>Node3</title>
<g id="a_node3"><a xlink:href="../../d6/d22/classAOnode.xhtml" target="_top" xlink:title="class &quot;AOnode&quot; for the generic node element of an AND&#45;OR graph ">
<polygon fill="white" stroke="black" points="97.551,-109.5 97.551,-253.5 188.844,-253.5 188.844,-109.5 97.551,-109.5"/>
<text text-anchor="middle" x="143.197" y="-240.5" font-family="Helvetica,sans-Serif" font-size="10.00">AOnode</text>
<polyline fill="none" stroke="black" points="97.551,-233.5 188.844,-233.5 "/>
<text text-anchor="start" x="105.551" y="-220.5" font-family="Helvetica,sans-Serif" font-size="10.00">+ nCost</text>
<text text-anchor="start" x="105.551" y="-208.5" font-family="Helvetica,sans-Serif" font-size="10.00">+ nSolved</text>
<text text-anchor="start" x="105.551" y="-196.5" font-family="Helvetica,sans-Serif" font-size="10.00">+ nFeasible</text>
<polyline fill="none" stroke="black" points="97.551,-189.5 188.844,-189.5 "/>
<text text-anchor="start" x="105.551" y="-176.5" font-family="Helvetica,sans-Serif" font-size="10.00">+ AOnode()</text>
<text text-anchor="start" x="105.551" y="-164.5" font-family="Helvetica,sans-Serif" font-size="10.00">+ addArc()</text>
<text text-anchor="start" x="105.551" y="-152.5" font-family="Helvetica,sans-Serif" font-size="10.00">+ printNodeInfo()</text>
<text text-anchor="start" x="105.551" y="-140.5" font-family="Helvetica,sans-Serif" font-size="10.00">+ isFeasible()</text>
<text text-anchor="start" x="105.551" y="-128.5" font-family="Helvetica,sans-Serif" font-size="10.00">+ setSolved()</text>
<text text-anchor="start" x="105.551" y="-116.5" font-family="Helvetica,sans-Serif" font-size="10.00">+ ~AOnode()</text>
</a>
</g>
</g>
<!-- Node2&#45;&gt;Node3 -->
<g id="edge3" class="edge"><title>Node2&#45;&gt;Node3</title>
<path fill="none" stroke="#404040" d="M142.198,-60.6005C143.861,-66.6145 145.326,-72.9585 146.197,-79 147.035,-84.8016 147.604,-90.8084 147.96,-96.8693"/>
<polygon fill="none" stroke="#404040" points="147.977,-97.3453 152.192,-103.197 148.411,-109.337 144.197,-103.486 147.977,-97.3453"/>
<text text-anchor="middle" x="169.178" y="-82" font-family="Helvetica,sans-Serif" font-size="10.00"> +parents</text>
</g>
<!-- Node3&#45;&gt;Node2 -->
<g id="edge2" class="edge"><title>Node3&#45;&gt;Node2</title>
<path fill="none" stroke="#404040" d="M102.79,-109.364C100.482,-103.283 98.5016,-97.1168 97.0165,-91 95.4062,-84.3674 96.2479,-77.7451 98.5316,-71.4558"/>
<polygon fill="none" stroke="#404040" points="98.6114,-71.2961 97.7192,-64.1404 103.981,-60.5646 104.874,-67.7203 98.6114,-71.2961"/>
<text text-anchor="middle" x="121.788" y="-82" font-family="Helvetica,sans-Serif" font-size="10.00"> +elements</text>
</g>
<!-- Node4 -->
<g id="node4" class="node"><title>Node4</title>
<g id="a_node4"><a xlink:title="STL class. ">
<polygon fill="white" stroke="#bfbfbf" points="69.527,-302.5 69.527,-362.5 128.868,-362.5 128.868,-302.5 69.527,-302.5"/>
<text text-anchor="middle" x="99.1975" y="-349.5" font-family="Helvetica,sans-Serif" font-size="10.00">std::string</text>
<polyline fill="none" stroke="#bfbfbf" points="69.527,-342.5 128.868,-342.5 "/>
<text text-anchor="middle" x="99.1975" y="-329.5" font-family="Helvetica,sans-Serif" font-size="10.00"> </text>
<polyline fill="none" stroke="#bfbfbf" points="69.527,-322.5 128.868,-322.5 "/>
<text text-anchor="middle" x="99.1975" y="-309.5" font-family="Helvetica,sans-Serif" font-size="10.00"> </text>
</a>
</g>
</g>
<!-- Node4&#45;&gt;Node3 -->
<g id="edge4" class="edge"><title>Node4&#45;&gt;Node3</title>
<path fill="none" stroke="#404040" d="M107.786,-302.418C110.997,-291.544 114.824,-278.583 118.757,-265.266"/>
<polygon fill="none" stroke="#404040" points="118.828,-265.023 116.691,-258.136 122.227,-253.514 124.364,-260.401 118.828,-265.023"/>
<text text-anchor="middle" x="136.619" y="-275" font-family="Helvetica,sans-Serif" font-size="10.00"> +nName</text>
</g>
<!-- Node5 -->
<g id="node5" class="node"><title>Node5</title>
<g id="a_node5"><a xlink:title="STL class. ">
<polygon fill="white" stroke="#bfbfbf" points="100.159,-423.5 100.159,-495.5 194.236,-495.5 194.236,-423.5 100.159,-423.5"/>
<text text-anchor="start" x="108.159" y="-482.5" font-family="Helvetica,sans-Serif" font-size="10.00">std::basic_string&lt;</text>
<text text-anchor="middle" x="147.197" y="-470.5" font-family="Helvetica,sans-Serif" font-size="10.00"> char &gt;</text>
<polyline fill="none" stroke="#bfbfbf" points="100.159,-463.5 194.236,-463.5 "/>
<text text-anchor="middle" x="147.197" y="-450.5" font-family="Helvetica,sans-Serif" font-size="10.00"> </text>
<polyline fill="none" stroke="#bfbfbf" points="100.159,-443.5 194.236,-443.5 "/>
<text text-anchor="middle" x="147.197" y="-430.5" font-family="Helvetica,sans-Serif" font-size="10.00"> </text>
</a>
</g>
</g>
<!-- Node5&#45;&gt;Node4 -->
<g id="edge5" class="edge"><title>Node5&#45;&gt;Node4</title>
<path fill="none" stroke="midnightblue" d="M140.914,-413.165C138.586,-402.376 135.437,-391.076 131.197,-381 128.576,-374.768 125.089,-368.495 121.381,-362.643"/>
<polygon fill="none" stroke="midnightblue" points="137.542,-414.158 142.903,-423.297 144.411,-412.81 137.542,-414.158"/>
</g>
<!-- Node6&#45;&gt;Node3 -->
<g id="edge6" class="edge"><title>Node6&#45;&gt;Node3</title>
<path fill="none" stroke="#404040" d="M194.706,-302.418C189.988,-291.434 184.356,-278.321 178.574,-264.862"/>
<polygon fill="none" stroke="#404040" points="178.436,-264.54 172.393,-260.606 173.7,-253.514 179.743,-257.448 178.436,-264.54"/>
<text text-anchor="middle" x="200.95" y="-275" font-family="Helvetica,sans-Serif" font-size="10.00"> +arcs</text>
</g>
<!-- Node7 -->
<g id="node7" class="node"><title>Node7</title>
<g id="a_node7"><a xlink:title="STL class. ">
<polygon fill="white" stroke="#bfbfbf" points="232.464,-429.5 232.464,-489.5 317.931,-489.5 317.931,-429.5 232.464,-429.5"/>
<text text-anchor="middle" x="275.197" y="-476.5" font-family="Helvetica,sans-Serif" font-size="10.00">std::vector&lt; T &gt;</text>
<polyline fill="none" stroke="#bfbfbf" points="232.464,-469.5 317.931,-469.5 "/>
<text text-anchor="middle" x="275.197" y="-456.5" font-family="Helvetica,sans-Serif" font-size="10.00"> </text>
<polyline fill="none" stroke="#bfbfbf" points="232.464,-449.5 317.931,-449.5 "/>
<text text-anchor="middle" x="275.197" y="-436.5" font-family="Helvetica,sans-Serif" font-size="10.00"> </text>
</a>
</g>
</g>
<!-- Node7&#45;&gt;Node2 -->
<g id="edge10" class="edge"><title>Node7&#45;&gt;Node2</title>
<path fill="none" stroke="orange" d="M280.478,-419.016C283.612,-387.085 285.534,-341.159 277.197,-302 255.177,-198.565 257.071,-164.034 194.197,-79 189.28,-72.3492 183.186,-66.1709 176.755,-60.6176"/>
<polygon fill="orange" stroke="orange" points="276.964,-418.964 279.382,-429.279 283.924,-419.707 276.964,-418.964"/>
<text text-anchor="middle" x="304.881" y="-275" font-family="Helvetica,sans-Serif" font-size="10.00"> &lt; AOnode * &gt;</text>
</g>
<!-- Node7&#45;&gt;Node6 -->
<g id="edge8" class="edge"><title>Node7&#45;&gt;Node6</title>
<path fill="none" stroke="orange" d="M239.223,-421.527C232.162,-412.721 225.432,-402.969 220.518,-393 215.886,-383.6 212.844,-372.572 210.855,-362.581"/>
<polygon fill="orange" stroke="orange" points="236.652,-423.909 245.756,-429.327 242.018,-419.414 236.652,-423.909"/>
<text text-anchor="middle" x="252.037" y="-384" font-family="Helvetica,sans-Serif" font-size="10.00"> &lt; HyperArc &gt;</text>
</g>
<!-- Node8 -->
<g id="node8" class="node"><title>Node8</title>
<polygon fill="white" stroke="#bfbfbf" points="260.697,-556.5 260.697,-616.5 289.697,-616.5 289.697,-556.5 260.697,-556.5"/>
<text text-anchor="middle" x="274.752" y="-603.5" font-family="Helvetica,sans-Serif" font-size="10.00">T</text>
<polyline fill="none" stroke="#bfbfbf" points="260.697,-596.5 288.806,-596.5 "/>
<text text-anchor="middle" x="274.752" y="-583.5" font-family="Helvetica,sans-Serif" font-size="10.00"> </text>
<polyline fill="none" stroke="#bfbfbf" points="260.697,-576.5 288.806,-576.5 "/>
<text text-anchor="middle" x="274.752" y="-563.5" font-family="Helvetica,sans-Serif" font-size="10.00"> </text>
</g>
<!-- Node8&#45;&gt;Node7 -->
<g id="edge9" class="edge"><title>Node8&#45;&gt;Node7</title>
<path fill="none" stroke="#404040" d="M275.197,-556.193C275.197,-539.972 275.197,-519.549 275.197,-501.74"/>
<polygon fill="none" stroke="#404040" points="275.198,-501.623 271.198,-495.623 275.197,-489.623 279.198,-495.623 275.198,-501.623"/>
<text text-anchor="middle" x="299.788" y="-529" font-family="Helvetica,sans-Serif" font-size="10.00"> +elements</text>
</g>
</g>
</svg>
