<?xml version="1.0" encoding="UTF-8" standalone="no"?>
<!DOCTYPE svg PUBLIC "-//W3C//DTD SVG 1.1//EN"
 "http://www.w3.org/Graphics/SVG/1.1/DTD/svg11.dtd">
<!-- Generated by graphviz version 2.38.0 (20140413.2041)
 -->
<!-- Title: HyperArc Pages: 1 -->
<svg width="344pt" height="613pt"
 viewBox="0.00 0.00 343.56 613.00" xmlns="http://www.w3.org/2000/svg" xmlns:xlink="http://www.w3.org/1999/xlink">
<g id="graph0" class="graph" transform="scale(1 1) rotate(0) translate(4 609)">
<title>HyperArc</title>
<polygon fill="white" stroke="none" points="-4,4 -4,-609 339.564,-609 339.564,4 -4,4"/>
<!-- Node1 -->
<g id="node1" class="node"><title>Node1</title>
<polygon fill="#bfbfbf" stroke="black" points="-7.10543e-15,-411.5 -7.10543e-15,-495.5 82.395,-495.5 82.395,-411.5 -7.10543e-15,-411.5"/>
<text text-anchor="middle" x="41.1975" y="-482.5" font-family="Helvetica,sans-Serif" font-size="10.00">HyperArc</text>
<polyline fill="none" stroke="black" points="-7.10543e-15,-475.5 82.395,-475.5 "/>
<text text-anchor="middle" x="41.1975" y="-462.5" font-family="Helvetica,sans-Serif" font-size="10.00"> </text>
<polyline fill="none" stroke="black" points="-7.10543e-15,-455.5 82.395,-455.5 "/>
<text text-anchor="start" x="8" y="-442.5" font-family="Helvetica,sans-Serif" font-size="10.00">+ HyperArc()</text>
<text text-anchor="start" x="8" y="-430.5" font-family="Helvetica,sans-Serif" font-size="10.00">+ printArcInfo()</text>
<text text-anchor="start" x="8" y="-418.5" font-family="Helvetica,sans-Serif" font-size="10.00">+ ~HyperArc()</text>
</g>
<!-- Node6 -->
<g id="node6" class="node"><title>Node6</title>
<polygon fill="white" stroke="#bfbfbf" points="146.686,-302.5 146.686,-362.5 267.708,-362.5 267.708,-302.5 146.686,-302.5"/>
<text text-anchor="middle" x="207.197" y="-349.5" font-family="Helvetica,sans-Serif" font-size="10.00">std::vector&lt; HyperArc &gt;</text>
<polyline fill="none" stroke="#bfbfbf" points="146.686,-342.5 267.708,-342.5 "/>
<text text-anchor="middle" x="207.197" y="-329.5" font-family="Helvetica,sans-Serif" font-size="10.00"> </text>
<polyline fill="none" stroke="#bfbfbf" points="146.686,-322.5 267.708,-322.5 "/>
<text text-anchor="middle" x="207.197" y="-309.5" font-family="Helvetica,sans-Serif" font-size="10.00"> </text>
</g>
<!-- Node1&#45;&gt;Node6 -->
<g id="edge6" class="edge"><title>Node1&#45;&gt;Node6</title>
<path fill="none" stroke="#404040" d="M82.4028,-417.741C85.3524,-415.426 88.3039,-413.158 91.1975,-411 110.287,-396.761 131.825,-382.027 151.115,-369.278"/>
<polygon fill="none" stroke="#404040" points="151.239,-369.197 154.06,-362.56 161.271,-362.612 158.45,-369.248 151.239,-369.197"/>
<text text-anchor="middle" x="156.788" y="-384" font-family="Helvetica,sans-Serif" font-size="10.00"> +elements</text>
</g>
<!-- Node2 -->
<g id="node2" class="node"><title>Node2</title>
<polygon fill="white" stroke="#bfbfbf" points="61.8425,-0.5 61.8425,-60.5 184.552,-60.5 184.552,-0.5 61.8425,-0.5"/>
<text text-anchor="middle" x="123.197" y="-47.5" font-family="Helvetica,sans-Serif" font-size="10.00">std::vector&lt; AOnode * &gt;</text>
<polyline fill="none" stroke="#bfbfbf" points="61.8425,-40.5 184.552,-40.5 "/>
<text text-anchor="middle" x="123.197" y="-27.5" font-family="Helvetica,sans-Serif" font-size="10.00"> </text>
<polyline fill="none" stroke="#bfbfbf" points="61.8425,-20.5 184.552,-20.5 "/>
<text text-anchor="middle" x="123.197" y="-7.5" font-family="Helvetica,sans-Serif" font-size="10.00"> </text>
</g>
<!-- Node2&#45;&gt;Node1 -->
<g id="edge1" class="edge"><title>Node2&#45;&gt;Node1</title>
<path fill="none" stroke="#404040" d="M96.8341,-60.6235C86.0129,-74.3188 74.5521,-91.4728 68.1975,-109 32.7837,-206.678 32.9957,-329.935 36.7932,-399.097"/>
<polygon fill="none" stroke="#404040" points="36.8105,-399.385 41.166,-405.132 37.5362,-411.363 33.1807,-405.616 36.8105,-399.385"/>
<text text-anchor="middle" x="59.008" y="-275" font-family="Helvetica,sans-Serif" font-size="10.00"> +children</text>
</g>
<!-- Node3 -->
<g id="node3" class="node"><title>Node3</title>
<g id="a_node3"><a xlink:href="../../d6/d22/classAOnode.xhtml" target="_top" xlink:title="class &quot;AOnode&quot; for the generic node element of an AND&#45;OR graph ">
<polygon fill="white" stroke="black" points="77.551,-109.5 77.551,-253.5 168.844,-253.5 168.844,-109.5 77.551,-109.5"/>
<text text-anchor="middle" x="123.197" y="-240.5" font-family="Helvetica,sans-Serif" font-size="10.00">AOnode</text>
<polyline fill="none" stroke="black" points="77.551,-233.5 168.844,-233.5 "/>
<text text-anchor="start" x="85.551" y="-220.5" font-family="Helvetica,sans-Serif" font-size="10.00">+ nCost</text>
<text text-anchor="start" x="85.551" y="-208.5" font-family="Helvetica,sans-Serif" font-size="10.00">+ nSolved</text>
<text text-anchor="start" x="85.551" y="-196.5" font-family="Helvetica,sans-Serif" font-size="10.00">+ nFeasible</text>
<polyline fill="none" stroke="black" points="77.551,-189.5 168.844,-189.5 "/>
<text text-anchor="start" x="85.551" y="-176.5" font-family="Helvetica,sans-Serif" font-size="10.00">+ AOnode()</text>
<text text-anchor="start" x="85.551" y="-164.5" font-family="Helvetica,sans-Serif" font-size="10.00">+ addArc()</text>
<text text-anchor="start" x="85.551" y="-152.5" font-family="Helvetica,sans-Serif" font-size="10.00">+ printNodeInfo()</text>
<text text-anchor="start" x="85.551" y="-140.5" font-family="Helvetica,sans-Serif" font-size="10.00">+ isFeasible()</text>
<text text-anchor="start" x="85.551" y="-128.5" font-family="Helvetica,sans-Serif" font-size="10.00">+ setSolved()</text>
<text text-anchor="start" x="85.551" y="-116.5" font-family="Helvetica,sans-Serif" font-size="10.00">+ ~AOnode()</text>
</a>
</g>
</g>
<!-- Node3&#45;&gt;Node2 -->
<g id="edge2" class="edge"><title>Node3&#45;&gt;Node2</title>
<path fill="none" stroke="#404040" d="M123.197,-109.491C123.197,-96.9655 123.197,-84.3081 123.197,-72.9392"/>
<polygon fill="none" stroke="#404040" points="123.198,-72.7265 119.198,-66.7266 123.197,-60.7265 127.198,-66.7265 123.198,-72.7265"/>
<text text-anchor="middle" x="147.788" y="-82" font-family="Helvetica,sans-Serif" font-size="10.00"> +elements</text>
</g>
<!-- Node4 -->
<g id="node4" class="node"><title>Node4</title>
<g id="a_node4"><a xlink:title="STL class. ">
<polygon fill="white" stroke="#bfbfbf" points="69.527,-302.5 69.527,-362.5 128.868,-362.5 128.868,-302.5 69.527,-302.5"/>
<text text-anchor="middle" x="99.1975" y="-349.5" font-family="Helvetica,sans-Serif" font-size="10.00">std::string</text>
<polyline fill="none" stroke="#bfbfbf" points="69.527,-342.5 128.868,-342.5 "/>
<text text-anchor="middle" x="99.1975" y="-329.5" font-family="Helvetica,sans-Serif" font-size="10.00"> </text>
<polyline fill="none" stroke="#bfbfbf" points="69.527,-322.5 128.868,-322.5 "/>
<text text-anchor="middle" x="99.1975" y="-309.5" font-family="Helvetica,sans-Serif" font-size="10.00"> </text>
</a>
</g>
</g>
<!-- Node4&#45;&gt;Node3 -->
<g id="edge3" class="edge"><title>Node4&#45;&gt;Node3</title>
<path fill="none" stroke="#404040" d="M103.882,-302.418C105.616,-291.654 107.679,-278.845 109.801,-265.669"/>
<polygon fill="none" stroke="#404040" points="109.851,-265.361 106.856,-258.802 111.759,-253.514 114.754,-260.074 109.851,-265.361"/>
<text text-anchor="middle" x="129.619" y="-275" font-family="Helvetica,sans-Serif" font-size="10.00"> +nName</text>
</g>
<!-- Node5 -->
<g id="node5" class="node"><title>Node5</title>
<g id="a_node5"><a xlink:title="STL class. ">
<polygon fill="white" stroke="#bfbfbf" points="100.159,-417.5 100.159,-489.5 194.236,-489.5 194.236,-417.5 100.159,-417.5"/>
<text text-anchor="start" x="108.159" y="-476.5" font-family="Helvetica,sans-Serif" font-size="10.00">std::basic_string&lt;</text>
<text text-anchor="middle" x="147.197" y="-464.5" font-family="Helvetica,sans-Serif" font-size="10.00"> char &gt;</text>
<polyline fill="none" stroke="#bfbfbf" points="100.159,-457.5 194.236,-457.5 "/>
<text text-anchor="middle" x="147.197" y="-444.5" font-family="Helvetica,sans-Serif" font-size="10.00"> </text>
<polyline fill="none" stroke="#bfbfbf" points="100.159,-437.5 194.236,-437.5 "/>
<text text-anchor="middle" x="147.197" y="-424.5" font-family="Helvetica,sans-Serif" font-size="10.00"> </text>
</a>
</g>
</g>
<!-- Node5&#45;&gt;Node4 -->
<g id="edge4" class="edge"><title>Node5&#45;&gt;Node4</title>
<path fill="none" stroke="midnightblue" d="M139.821,-407.522C137.605,-398.542 134.779,-389.319 131.197,-381 128.524,-374.79 125.013,-368.527 121.298,-362.678"/>
<polygon fill="none" stroke="midnightblue" points="136.456,-408.511 142.069,-417.496 143.284,-406.971 136.456,-408.511"/>
</g>
<!-- Node6&#45;&gt;Node3 -->
<g id="edge5" class="edge"><title>Node6&#45;&gt;Node3</title>
<path fill="none" stroke="#404040" d="M190.802,-302.418C184.486,-291.215 176.921,-277.796 169.174,-264.054"/>
<polygon fill="none" stroke="#404040" points="169.125,-263.967 162.694,-260.705 163.232,-253.514 169.663,-256.776 169.125,-263.967"/>
<text text-anchor="middle" x="193.95" y="-275" font-family="Helvetica,sans-Serif" font-size="10.00"> +arcs</text>
</g>
<!-- Node7 -->
<g id="node7" class="node"><title>Node7</title>
<g id="a_node7"><a xlink:title="STL class. ">
<polygon fill="white" stroke="#bfbfbf" points="232.464,-423.5 232.464,-483.5 317.931,-483.5 317.931,-423.5 232.464,-423.5"/>
<text text-anchor="middle" x="275.197" y="-470.5" font-family="Helvetica,sans-Serif" font-size="10.00">std::vector&lt; T &gt;</text>
<polyline fill="none" stroke="#bfbfbf" points="232.464,-463.5 317.931,-463.5 "/>
<text text-anchor="middle" x="275.197" y="-450.5" font-family="Helvetica,sans-Serif" font-size="10.00"> </text>
<polyline fill="none" stroke="#bfbfbf" points="232.464,-443.5 317.931,-443.5 "/>
<text text-anchor="middle" x="275.197" y="-430.5" font-family="Helvetica,sans-Serif" font-size="10.00"> </text>
</a>
</g>
</g>
<!-- Node7&#45;&gt;Node2 -->
<g id="edge9" class="edge"><title>Node7&#45;&gt;Node2</title>
<path fill="none" stroke="orange" d="M281.142,-413.118C284.492,-382.381 286.383,-338.857 277.197,-302 250.887,-196.426 240.533,-166.744 176.197,-79 171.449,-72.5231 165.694,-66.273 159.751,-60.552"/>
<polygon fill="orange" stroke="orange" points="277.622,-413.081 279.912,-423.425 284.573,-413.911 277.622,-413.081"/>
<text text-anchor="middle" x="303.881" y="-275" font-family="Helvetica,sans-Serif" font-size="10.00"> &lt; AOnode * &gt;</text>
</g>
<!-- Node7&#45;&gt;Node6 -->
<g id="edge7" class="edge"><title>Node7&#45;&gt;Node6</title>
<path fill="none" stroke="orange" d="M235.875,-415.475C230.047,-408.474 224.63,-400.864 220.518,-393 215.663,-383.713 212.571,-372.71 210.604,-362.708"/>
<polygon fill="orange" stroke="orange" points="233.613,-418.204 242.85,-423.394 238.866,-413.577 233.613,-418.204"/>
<text text-anchor="middle" x="252.037" y="-384" font-family="Helvetica,sans-Serif" font-size="10.00"> &lt; HyperArc &gt;</text>
</g>
<!-- Node8 -->
<g id="node8" class="node"><title>Node8</title>
<polygon fill="white" stroke="#bfbfbf" points="260.697,-544.5 260.697,-604.5 289.697,-604.5 289.697,-544.5 260.697,-544.5"/>
<text text-anchor="middle" x="274.752" y="-591.5" font-family="Helvetica,sans-Serif" font-size="10.00">T</text>
<polyline fill="none" stroke="#bfbfbf" points="260.697,-584.5 288.806,-584.5 "/>
<text text-anchor="middle" x="274.752" y="-571.5" font-family="Helvetica,sans-Serif" font-size="10.00"> </text>
<polyline fill="none" stroke="#bfbfbf" points="260.697,-564.5 288.806,-564.5 "/>
<text text-anchor="middle" x="274.752" y="-551.5" font-family="Helvetica,sans-Serif" font-size="10.00"> </text>
</g>
<!-- Node8&#45;&gt;Node7 -->
<g id="edge8" class="edge"><title>Node8&#45;&gt;Node7</title>
<path fill="none" stroke="#404040" d="M275.197,-544.389C275.197,-529.839 275.197,-511.973 275.197,-496.014"/>
<polygon fill="none" stroke="#404040" points="275.198,-495.723 271.198,-489.723 275.197,-483.723 279.198,-489.723 275.198,-495.723"/>
<text text-anchor="middle" x="299.788" y="-517" font-family="Helvetica,sans-Serif" font-size="10.00"> +elements</text>
</g>
</g>
</svg>
