<?xml version="1.0" encoding="UTF-8" standalone="no"?>
<!DOCTYPE svg PUBLIC "-//W3C//DTD SVG 1.1//EN"
 "http://www.w3.org/Graphics/SVG/1.1/DTD/svg11.dtd">
<!-- Generated by graphviz version 2.38.0 (20140413.2041)
 -->
<!-- Title: AOgraph Pages: 1 -->
<!--zoomable 1036 -->
<svg id="main" version="1.1" xmlns="http://www.w3.org/2000/svg" xmlns:xlink="http://www.w3.org/1999/xlink" xml:space="preserve" onload="init(evt)">
<style type="text/css"><![CDATA[
.edge:hover path { stroke: red; }
.edge:hover polygon { stroke: red; fill: red; }
]]></style>
<script type="text/javascript"><![CDATA[
var edges = document.getElementsByTagName('g');
if (edges && edges.length) {
  for (var i=0;i<edges.length;i++) {
    if (edges[i].id.substr(0,4)=='edge') {
      edges[i].setAttribute('class','edge');
    }
  }
}
]]></script>
        <defs>
                <circle id="rim" cx="0" cy="0" r="7"/>
                <circle id="rim2" cx="0" cy="0" r="3.5"/>
                <g id="zoomPlus">
                        <use xlink:href="#rim" fill="#404040">
                                <set attributeName="fill" to="#808080" begin="zoomplus.mouseover" end="zoomplus.mouseout"/>
                        </use>
                        <path d="M-4,0h8M0,-4v8" fill="none" stroke="white" stroke-width="1.5" pointer-events="none"/>
                </g>
                <g id="zoomMin">
                        <use xlink:href="#rim" fill="#404040">
                                <set attributeName="fill" to="#808080" begin="zoomminus.mouseover" end="zoomminus.mouseout"/>
                        </use>
                        <path d="M-4,0h8" fill="none" stroke="white" stroke-width="1.5" pointer-events="none"/>
                </g>
                <g id="dirArrow">
                        <path fill="none" stroke="white" stroke-width="1.5" d="M0,-3.0v7 M-2.5,-0.5L0,-3.0L2.5,-0.5"/>
                </g>
               <g id="resetDef">
                       <use xlink:href="#rim2" fill="#404040">
                               <set attributeName="fill" to="#808080" begin="reset.mouseover" end="reset.mouseout"/>
                       </use>
               </g>
        </defs>

<script type="text/javascript">
var viewWidth = 662;
var viewHeight = 1036;
var sectionId = 'dynsection-0';
</script>
<script xlink:href="../../svgpan.js"/>
<svg id="graph" class="graph">
<g id="viewport">
<title>AOgraph</title>
<polygon fill="white" stroke="none" points="-4,4 -4,-1032 657.581,-1032 657.581,4 -4,4"/>
<!-- Node1 -->
<g id="node1" class="node"><title>Node1</title>
<polygon fill="#bfbfbf" stroke="black" points="27.0465,-0.5 27.0465,-192.5 156.953,-192.5 156.953,-0.5 27.0465,-0.5"/>
<text text-anchor="middle" x="92" y="-179.5" font-family="Helvetica,sans-Serif" font-size="10.00">AOgraph</text>
<polyline fill="none" stroke="black" points="27.0465,-172.5 156.953,-172.5 "/>
<text text-anchor="middle" x="92" y="-159.5" font-family="Helvetica,sans-Serif" font-size="10.00"> </text>
<polyline fill="none" stroke="black" points="27.0465,-152.5 156.953,-152.5 "/>
<text text-anchor="start" x="35.0465" y="-139.5" font-family="Helvetica,sans-Serif" font-size="10.00">+ AOgraph()</text>
<text text-anchor="start" x="35.0465" y="-127.5" font-family="Helvetica,sans-Serif" font-size="10.00">+ loadFromFile()</text>
<text text-anchor="start" x="35.0465" y="-115.5" font-family="Helvetica,sans-Serif" font-size="10.00">+ printGraphInfo()</text>
<text text-anchor="start" x="35.0465" y="-103.5" font-family="Helvetica,sans-Serif" font-size="10.00">+ solveByName()</text>
<text text-anchor="start" x="35.0465" y="-91.5" font-family="Helvetica,sans-Serif" font-size="10.00">+ suggestNext()</text>
<text text-anchor="start" x="35.0465" y="-79.5" font-family="Helvetica,sans-Serif" font-size="10.00">+ ~AOgraph()</text>
<text text-anchor="start" x="35.0465" y="-67.5" font-family="Helvetica,sans-Serif" font-size="10.00"># addNode()</text>
<text text-anchor="start" x="35.0465" y="-55.5" font-family="Helvetica,sans-Serif" font-size="10.00"># findByName()</text>
<text text-anchor="start" x="35.0465" y="-43.5" font-family="Helvetica,sans-Serif" font-size="10.00"># updateNodeFeasibility()</text>
<text text-anchor="start" x="35.0465" y="-31.5" font-family="Helvetica,sans-Serif" font-size="10.00"># generatePaths()</text>
<text text-anchor="start" x="35.0465" y="-19.5" font-family="Helvetica,sans-Serif" font-size="10.00"># findOptimalPath()</text>
<text text-anchor="start" x="35.0465" y="-7.5" font-family="Helvetica,sans-Serif" font-size="10.00"># setupGraph()</text>
</g>
<!-- Node2 -->
<g id="node2" class="node"><title>Node2</title>
<g id="a_node2"><a xlink:title="STL class. ">
<polygon fill="white" stroke="#bfbfbf" points="32.3295,-857.5 32.3295,-917.5 91.6705,-917.5 91.6705,-857.5 32.3295,-857.5"/>
<text text-anchor="middle" x="62" y="-904.5" font-family="Helvetica,sans-Serif" font-size="10.00">std::string</text>
<polyline fill="none" stroke="#bfbfbf" points="32.3295,-897.5 91.6705,-897.5 "/>
<text text-anchor="middle" x="62" y="-884.5" font-family="Helvetica,sans-Serif" font-size="10.00"> </text>
<polyline fill="none" stroke="#bfbfbf" points="32.3295,-877.5 91.6705,-877.5 "/>
<text text-anchor="middle" x="62" y="-864.5" font-family="Helvetica,sans-Serif" font-size="10.00"> </text>
</a>
</g>
</g>
<!-- Node2&#45;&gt;Node1 -->
<g id="edge1" class="edge"><title>Node2&#45;&gt;Node1</title>
<path fill="none" stroke="#404040" d="M41.8704,-857.449C23.7668,-828.444 0,-781.909 0,-737.5 0,-737.5 0,-737.5 0,-270.5 0,-243.386 8.91825,-216.386 21.2014,-192.057"/>
<polygon fill="none" stroke="#404040" points="21.2153,-192.031 20.5061,-184.854 26.8575,-181.44 27.5667,-188.616 21.2153,-192.031"/>
<text text-anchor="middle" x="20.4215" y="-528" font-family="Helvetica,sans-Serif" font-size="10.00"> +gName</text>
</g>
<!-- Node5 -->
<g id="node5" class="node"><title>Node5</title>
<g id="a_node5"><a xlink:href="../../d6/d22/classAOnode.xhtml" target="_top" xlink:title="class &quot;AOnode&quot; for the generic node element of an AND&#45;OR graph ">
<polygon fill="white" stroke="black" points="88.3535,-664.5 88.3535,-808.5 179.647,-808.5 179.647,-664.5 88.3535,-664.5"/>
<text text-anchor="middle" x="134" y="-795.5" font-family="Helvetica,sans-Serif" font-size="10.00">AOnode</text>
<polyline fill="none" stroke="black" points="88.3535,-788.5 179.647,-788.5 "/>
<text text-anchor="start" x="96.3535" y="-775.5" font-family="Helvetica,sans-Serif" font-size="10.00">+ nCost</text>
<text text-anchor="start" x="96.3535" y="-763.5" font-family="Helvetica,sans-Serif" font-size="10.00">+ nSolved</text>
<text text-anchor="start" x="96.3535" y="-751.5" font-family="Helvetica,sans-Serif" font-size="10.00">+ nFeasible</text>
<polyline fill="none" stroke="black" points="88.3535,-744.5 179.647,-744.5 "/>
<text text-anchor="start" x="96.3535" y="-731.5" font-family="Helvetica,sans-Serif" font-size="10.00">+ AOnode()</text>
<text text-anchor="start" x="96.3535" y="-719.5" font-family="Helvetica,sans-Serif" font-size="10.00">+ addArc()</text>
<text text-anchor="start" x="96.3535" y="-707.5" font-family="Helvetica,sans-Serif" font-size="10.00">+ printNodeInfo()</text>
<text text-anchor="start" x="96.3535" y="-695.5" font-family="Helvetica,sans-Serif" font-size="10.00">+ isFeasible()</text>
<text text-anchor="start" x="96.3535" y="-683.5" font-family="Helvetica,sans-Serif" font-size="10.00">+ setSolved()</text>
<text text-anchor="start" x="96.3535" y="-671.5" font-family="Helvetica,sans-Serif" font-size="10.00">+ ~AOnode()</text>
</a>
</g>
</g>
<!-- Node2&#45;&gt;Node5 -->
<g id="edge5" class="edge"><title>Node2&#45;&gt;Node5</title>
<path fill="none" stroke="#404040" d="M76.0532,-857.418C81.4137,-846.324 87.824,-833.059 94.3961,-819.458"/>
<polygon fill="none" stroke="#404040" points="94.4634,-819.319 93.4724,-812.176 99.6845,-808.514 100.675,-815.657 94.4634,-819.319"/>
<text text-anchor="middle" x="110.421" y="-830" font-family="Helvetica,sans-Serif" font-size="10.00"> +nName</text>
</g>
<!-- Node3 -->
<g id="node3" class="node"><title>Node3</title>
<g id="a_node3"><a xlink:title="STL class. ">
<polygon fill="white" stroke="#bfbfbf" points="14.962,-955.5 14.962,-1027.5 109.038,-1027.5 109.038,-955.5 14.962,-955.5"/>
<text text-anchor="start" x="22.962" y="-1014.5" font-family="Helvetica,sans-Serif" font-size="10.00">std::basic_string&lt;</text>
<text text-anchor="middle" x="62" y="-1002.5" font-family="Helvetica,sans-Serif" font-size="10.00"> char &gt;</text>
<polyline fill="none" stroke="#bfbfbf" points="14.962,-995.5 109.038,-995.5 "/>
<text text-anchor="middle" x="62" y="-982.5" font-family="Helvetica,sans-Serif" font-size="10.00"> </text>
<polyline fill="none" stroke="#bfbfbf" points="14.962,-975.5 109.038,-975.5 "/>
<text text-anchor="middle" x="62" y="-962.5" font-family="Helvetica,sans-Serif" font-size="10.00"> </text>
</a>
</g>
</g>
<!-- Node3&#45;&gt;Node2 -->
<g id="edge2" class="edge"><title>Node3&#45;&gt;Node2</title>
<path fill="none" stroke="midnightblue" d="M62,-945.341C62,-935.918 62,-926.226 62,-917.573"/>
<polygon fill="none" stroke="midnightblue" points="58.5001,-945.397 62,-955.397 65.5001,-945.397 58.5001,-945.397"/>
</g>
<!-- Node4 -->
<g id="node4" class="node"><title>Node4</title>
<polygon fill="white" stroke="#bfbfbf" points="83.979,-555.5 83.979,-615.5 200.021,-615.5 200.021,-555.5 83.979,-555.5"/>
<text text-anchor="middle" x="142" y="-602.5" font-family="Helvetica,sans-Serif" font-size="10.00">std::vector&lt; AOnode &gt;</text>
<polyline fill="none" stroke="#bfbfbf" points="83.979,-595.5 200.021,-595.5 "/>
<text text-anchor="middle" x="142" y="-582.5" font-family="Helvetica,sans-Serif" font-size="10.00"> </text>
<polyline fill="none" stroke="#bfbfbf" points="83.979,-575.5 200.021,-575.5 "/>
<text text-anchor="middle" x="142" y="-562.5" font-family="Helvetica,sans-Serif" font-size="10.00"> </text>
</g>
<!-- Node4&#45;&gt;Node1 -->
<g id="edge3" class="edge"><title>Node4&#45;&gt;Node1</title>
<path fill="none" stroke="#404040" d="M139.022,-555.494C132.095,-488.024 114.609,-317.716 103.024,-204.875"/>
<polygon fill="none" stroke="#404040" points="103.008,-204.714 98.4157,-199.154 101.782,-192.776 106.374,-198.336 103.008,-204.714"/>
<text text-anchor="middle" x="133.091" y="-323" font-family="Helvetica,sans-Serif" font-size="10.00"> +graph</text>
</g>
<!-- Node5&#45;&gt;Node1 -->
<g id="edge20" class="edge"><title>Node5&#45;&gt;Node1</title>
<path fill="none" stroke="#404040" d="M88.1759,-678.849C71.1975,-652.391 56,-619.494 56,-586.5 56,-586.5 56,-586.5 56,-270.5 56,-249.016 58.6941,-226.339 62.6082,-204.731"/>
<polygon fill="none" stroke="#404040" points="62.6269,-204.634 59.8352,-197.985 64.8989,-192.851 67.6905,-199.5 62.6269,-204.634"/>
<text text-anchor="middle" x="71.427" y="-425.5" font-family="Helvetica,sans-Serif" font-size="10.00"> +head</text>
</g>
<!-- Node5&#45;&gt;Node4 -->
<g id="edge4" class="edge"><title>Node5&#45;&gt;Node4</title>
<path fill="none" stroke="#404040" d="M133.292,-664.459C133.562,-654.228 134.04,-643.838 134.819,-634 134.982,-631.942 135.181,-629.838 135.406,-627.717"/>
<polygon fill="none" stroke="#404040" points="135.437,-627.47 132.219,-621.017 136.939,-615.564 140.157,-622.017 135.437,-627.47"/>
<text text-anchor="middle" x="159.591" y="-637" font-family="Helvetica,sans-Serif" font-size="10.00"> +elements</text>
</g>
<!-- Node8 -->
<g id="node8" class="node"><title>Node8</title>
<polygon fill="white" stroke="#bfbfbf" points="279.645,-555.5 279.645,-615.5 402.355,-615.5 402.355,-555.5 279.645,-555.5"/>
<text text-anchor="middle" x="341" y="-602.5" font-family="Helvetica,sans-Serif" font-size="10.00">std::vector&lt; AOnode * &gt;</text>
<polyline fill="none" stroke="#bfbfbf" points="279.645,-595.5 402.355,-595.5 "/>
<text text-anchor="middle" x="341" y="-582.5" font-family="Helvetica,sans-Serif" font-size="10.00"> </text>
<polyline fill="none" stroke="#bfbfbf" points="279.645,-575.5 402.355,-575.5 "/>
<text text-anchor="middle" x="341" y="-562.5" font-family="Helvetica,sans-Serif" font-size="10.00"> </text>
</g>
<!-- Node5&#45;&gt;Node8 -->
<g id="edge9" class="edge"><title>Node5&#45;&gt;Node8</title>
<path fill="none" stroke="#404040" d="M179.736,-680.245C195.106,-663.93 213.126,-646.984 231.819,-634 243.046,-626.202 255.758,-619.262 268.439,-613.259"/>
<polygon fill="none" stroke="#404040" points="268.608,-613.183 272.42,-607.062 279.536,-608.226 275.724,-614.347 268.608,-613.183"/>
<text text-anchor="middle" x="256.591" y="-637" font-family="Helvetica,sans-Serif" font-size="10.00"> +elements</text>
</g>
<!-- Node6 -->
<g id="node6" class="node"><title>Node6</title>
<polygon fill="white" stroke="#bfbfbf" points="243.489,-241.5 243.489,-301.5 364.511,-301.5 364.511,-241.5 243.489,-241.5"/>
<text text-anchor="middle" x="304" y="-288.5" font-family="Helvetica,sans-Serif" font-size="10.00">std::vector&lt; HyperArc &gt;</text>
<polyline fill="none" stroke="#bfbfbf" points="243.489,-281.5 364.511,-281.5 "/>
<text text-anchor="middle" x="304" y="-268.5" font-family="Helvetica,sans-Serif" font-size="10.00"> </text>
<polyline fill="none" stroke="#bfbfbf" points="243.489,-261.5 364.511,-261.5 "/>
<text text-anchor="middle" x="304" y="-248.5" font-family="Helvetica,sans-Serif" font-size="10.00"> </text>
</g>
<!-- Node6&#45;&gt;Node5 -->
<g id="edge6" class="edge"><title>Node6&#45;&gt;Node5</title>
<path fill="none" stroke="#404040" d="M281.269,-301.511C271.43,-315.451 260.663,-332.834 254,-350 210.611,-461.776 251.69,-503.955 209,-616 203.035,-631.656 194.903,-647.476 186.189,-662.256"/>
<polygon fill="none" stroke="#404040" points="186.001,-662.565 186.299,-669.77 179.763,-672.816 179.465,-665.612 186.001,-662.565"/>
<text text-anchor="middle" x="243.753" y="-528" font-family="Helvetica,sans-Serif" font-size="10.00"> +arcs</text>
</g>
<!-- Node7 -->
<g id="node7" class="node"><title>Node7</title>
<g id="a_node7"><a xlink:href="../../db/dba/classHyperArc.xhtml" target="_top" xlink:title="class &quot;HyperArc&quot; for the hyperarc connecting one parent node to a number of child nodes in an AND rel...">
<polygon fill="white" stroke="black" points="262.803,-386.5 262.803,-470.5 345.197,-470.5 345.197,-386.5 262.803,-386.5"/>
<text text-anchor="middle" x="304" y="-457.5" font-family="Helvetica,sans-Serif" font-size="10.00">HyperArc</text>
<polyline fill="none" stroke="black" points="262.803,-450.5 345.197,-450.5 "/>
<text text-anchor="middle" x="304" y="-437.5" font-family="Helvetica,sans-Serif" font-size="10.00"> </text>
<polyline fill="none" stroke="black" points="262.803,-430.5 345.197,-430.5 "/>
<text text-anchor="start" x="270.803" y="-417.5" font-family="Helvetica,sans-Serif" font-size="10.00">+ HyperArc()</text>
<text text-anchor="start" x="270.803" y="-405.5" font-family="Helvetica,sans-Serif" font-size="10.00">+ printArcInfo()</text>
<text text-anchor="start" x="270.803" y="-393.5" font-family="Helvetica,sans-Serif" font-size="10.00">+ ~HyperArc()</text>
</a>
</g>
</g>
<!-- Node7&#45;&gt;Node6 -->
<g id="edge7" class="edge"><title>Node7&#45;&gt;Node6</title>
<path fill="none" stroke="#404040" d="M304,-386.37C304,-363.924 304,-336.213 304,-313.749"/>
<polygon fill="none" stroke="#404040" points="304,-313.542 300,-307.542 304,-301.542 308,-307.542 304,-313.542"/>
<text text-anchor="middle" x="328.591" y="-323" font-family="Helvetica,sans-Serif" font-size="10.00"> +elements</text>
</g>
<!-- Node8&#45;&gt;Node7 -->
<g id="edge8" class="edge"><title>Node8&#45;&gt;Node7</title>
<path fill="none" stroke="#404040" d="M314.884,-555.486C311.001,-549.717 307.572,-543.44 305.379,-537 299.567,-519.927 297.946,-500.427 298.18,-482.765"/>
<polygon fill="none" stroke="#404040" points="298.187,-482.579 294.41,-476.437 298.627,-470.587 302.404,-476.73 298.187,-482.579"/>
<text text-anchor="middle" x="327.81" y="-528" font-family="Helvetica,sans-Serif" font-size="10.00"> +children</text>
</g>
<!-- Node12 -->
<g id="node12" class="node"><title>Node12</title>
<g id="a_node12"><a xlink:href="../../db/dc7/classPath.xhtml" target="_top" xlink:title="class &quot;Path&quot; for each unique path traversing the graph from the head to the leaves ...">
<polygon fill="white" stroke="black" points="484.906,-350.5 484.906,-506.5 575.093,-506.5 575.093,-350.5 484.906,-350.5"/>
<text text-anchor="middle" x="530" y="-493.5" font-family="Helvetica,sans-Serif" font-size="10.00">Path</text>
<polyline fill="none" stroke="black" points="484.906,-486.5 575.093,-486.5 "/>
<text text-anchor="start" x="492.906" y="-473.5" font-family="Helvetica,sans-Serif" font-size="10.00">+ pIndex</text>
<text text-anchor="start" x="492.906" y="-461.5" font-family="Helvetica,sans-Serif" font-size="10.00">+ pCost</text>
<text text-anchor="start" x="492.906" y="-449.5" font-family="Helvetica,sans-Serif" font-size="10.00">+ pComplete</text>
<polyline fill="none" stroke="black" points="484.906,-442.5 575.093,-442.5 "/>
<text text-anchor="start" x="492.906" y="-429.5" font-family="Helvetica,sans-Serif" font-size="10.00">+ Path()</text>
<text text-anchor="start" x="492.906" y="-417.5" font-family="Helvetica,sans-Serif" font-size="10.00">+ Path()</text>
<text text-anchor="start" x="492.906" y="-405.5" font-family="Helvetica,sans-Serif" font-size="10.00">+ printPathInfo()</text>
<text text-anchor="start" x="492.906" y="-393.5" font-family="Helvetica,sans-Serif" font-size="10.00">+ addNode()</text>
<text text-anchor="start" x="492.906" y="-381.5" font-family="Helvetica,sans-Serif" font-size="10.00">+ updatePath()</text>
<text text-anchor="start" x="492.906" y="-369.5" font-family="Helvetica,sans-Serif" font-size="10.00">+ suggestNode()</text>
<text text-anchor="start" x="492.906" y="-357.5" font-family="Helvetica,sans-Serif" font-size="10.00">+ ~Path()</text>
</a>
</g>
</g>
<!-- Node8&#45;&gt;Node12 -->
<g id="edge16" class="edge"><title>Node8&#45;&gt;Node12</title>
<path fill="none" stroke="#404040" d="M352.347,-555.215C357.318,-544.869 363.896,-533.663 372.03,-525 400.606,-494.563 441.006,-470.373 473.797,-453.954"/>
<polygon fill="none" stroke="#404040" points="473.812,-453.947 477.451,-447.721 484.597,-448.686 480.958,-454.911 473.812,-453.947"/>
<text text-anchor="middle" x="401.485" y="-528" font-family="Helvetica,sans-Serif" font-size="10.00"> +pathNodes</text>
</g>
<!-- Node9 -->
<g id="node9" class="node"><title>Node9</title>
<g id="a_node9"><a xlink:title="STL class. ">
<polygon fill="white" stroke="#bfbfbf" points="418.267,-706.5 418.267,-766.5 503.733,-766.5 503.733,-706.5 418.267,-706.5"/>
<text text-anchor="middle" x="461" y="-753.5" font-family="Helvetica,sans-Serif" font-size="10.00">std::vector&lt; T &gt;</text>
<polyline fill="none" stroke="#bfbfbf" points="418.267,-746.5 503.733,-746.5 "/>
<text text-anchor="middle" x="461" y="-733.5" font-family="Helvetica,sans-Serif" font-size="10.00"> </text>
<polyline fill="none" stroke="#bfbfbf" points="418.267,-726.5 503.733,-726.5 "/>
<text text-anchor="middle" x="461" y="-713.5" font-family="Helvetica,sans-Serif" font-size="10.00"> </text>
</a>
</g>
</g>
<!-- Node9&#45;&gt;Node4 -->
<g id="edge13" class="edge"><title>Node9&#45;&gt;Node4</title>
<path fill="none" stroke="orange" d="M409.472,-703.078C374.176,-681.717 325.818,-654.088 281,-634 255.052,-622.37 225.339,-611.86 200.063,-603.701"/>
<polygon fill="orange" stroke="orange" points="407.793,-706.153 418.154,-708.365 411.434,-700.174 407.793,-706.153"/>
<text text-anchor="middle" x="335.35" y="-637" font-family="Helvetica,sans-Serif" font-size="10.00"> &lt; AOnode &gt;</text>
</g>
<!-- Node9&#45;&gt;Node6 -->
<g id="edge12" class="edge"><title>Node9&#45;&gt;Node6</title>
<path fill="none" stroke="orange" d="M455.82,-696.151C453.279,-677.326 450.103,-654.479 447,-634 425.253,-490.463 437.639,-440.719 357,-320 352.676,-313.527 347.271,-307.363 341.578,-301.749"/>
<polygon fill="orange" stroke="orange" points="452.364,-696.709 457.162,-706.155 459.302,-695.779 452.364,-696.709"/>
<text text-anchor="middle" x="465.839" y="-528" font-family="Helvetica,sans-Serif" font-size="10.00"> &lt; HyperArc &gt;</text>
</g>
<!-- Node9&#45;&gt;Node8 -->
<g id="edge10" class="edge"><title>Node9&#45;&gt;Node8</title>
<path fill="none" stroke="orange" d="M427.853,-698.69C413.865,-682.767 397.614,-663.747 383.633,-646 376.005,-636.317 368.036,-625.43 361.081,-615.641"/>
<polygon fill="orange" stroke="orange" points="425.276,-701.059 434.519,-706.238 430.523,-696.426 425.276,-701.059"/>
<text text-anchor="middle" x="415.683" y="-637" font-family="Helvetica,sans-Serif" font-size="10.00"> &lt; AOnode * &gt;</text>
</g>
<!-- Node11 -->
<g id="node11" class="node"><title>Node11</title>
<polygon fill="white" stroke="#bfbfbf" points="480.038,-241.5 480.038,-301.5 579.962,-301.5 579.962,-241.5 480.038,-241.5"/>
<text text-anchor="middle" x="530" y="-288.5" font-family="Helvetica,sans-Serif" font-size="10.00">std::vector&lt; Path &gt;</text>
<polyline fill="none" stroke="#bfbfbf" points="480.038,-281.5 579.962,-281.5 "/>
<text text-anchor="middle" x="530" y="-268.5" font-family="Helvetica,sans-Serif" font-size="10.00"> </text>
<polyline fill="none" stroke="#bfbfbf" points="480.038,-261.5 579.962,-261.5 "/>
<text text-anchor="middle" x="530" y="-248.5" font-family="Helvetica,sans-Serif" font-size="10.00"> </text>
</g>
<!-- Node9&#45;&gt;Node11 -->
<g id="edge19" class="edge"><title>Node9&#45;&gt;Node11</title>
<path fill="none" stroke="orange" d="M511.987,-700.583C539.532,-679.197 571.918,-649.532 592,-616 610.609,-584.928 607.521,-572.941 612,-537 624.032,-440.445 628.819,-405.839 583,-320 579.451,-313.351 574.584,-307.173 569.229,-301.62"/>
<polygon fill="orange" stroke="orange" points="509.827,-697.829 503.988,-706.67 514.065,-703.4 509.827,-697.829"/>
<text text-anchor="middle" x="633.29" y="-528" font-family="Helvetica,sans-Serif" font-size="10.00"> &lt; Path &gt;</text>
</g>
<!-- Node13 -->
<g id="node13" class="node"><title>Node13</title>
<polygon fill="white" stroke="#bfbfbf" points="484.873,-555.5 484.873,-615.5 583.127,-615.5 583.127,-555.5 484.873,-555.5"/>
<text text-anchor="middle" x="534" y="-602.5" font-family="Helvetica,sans-Serif" font-size="10.00">std::vector&lt; bool &gt;</text>
<polyline fill="none" stroke="#bfbfbf" points="484.873,-595.5 583.127,-595.5 "/>
<text text-anchor="start" x="492.873" y="-582.5" font-family="Helvetica,sans-Serif" font-size="10.00">+ elements</text>
<polyline fill="none" stroke="#bfbfbf" points="484.873,-575.5 583.127,-575.5 "/>
<text text-anchor="middle" x="534" y="-562.5" font-family="Helvetica,sans-Serif" font-size="10.00"> </text>
</g>
<!-- Node9&#45;&gt;Node13 -->
<g id="edge18" class="edge"><title>Node9&#45;&gt;Node13</title>
<path fill="none" stroke="orange" d="M479.667,-697.398C492.158,-671.904 508.341,-638.871 519.788,-615.509"/>
<polygon fill="orange" stroke="orange" points="476.505,-695.898 475.248,-706.418 482.791,-698.977 476.505,-695.898"/>
<text text-anchor="middle" x="530.456" y="-637" font-family="Helvetica,sans-Serif" font-size="10.00"> &lt; bool &gt;</text>
</g>
<!-- Node10 -->
<g id="node10" class="node"><title>Node10</title>
<polygon fill="white" stroke="#bfbfbf" points="446.5,-857.5 446.5,-917.5 475.5,-917.5 475.5,-857.5 446.5,-857.5"/>
<text text-anchor="middle" x="460.555" y="-904.5" font-family="Helvetica,sans-Serif" font-size="10.00">T</text>
<polyline fill="none" stroke="#bfbfbf" points="446.5,-897.5 474.609,-897.5 "/>
<text text-anchor="middle" x="460.555" y="-884.5" font-family="Helvetica,sans-Serif" font-size="10.00"> </text>
<polyline fill="none" stroke="#bfbfbf" points="446.5,-877.5 474.609,-877.5 "/>
<text text-anchor="middle" x="460.555" y="-864.5" font-family="Helvetica,sans-Serif" font-size="10.00"> </text>
</g>
<!-- Node10&#45;&gt;Node9 -->
<g id="edge11" class="edge"><title>Node10&#45;&gt;Node9</title>
<path fill="none" stroke="#404040" d="M461,-857.418C461,-834.958 461,-803.593 461,-778.573"/>
<polygon fill="none" stroke="#404040" points="461,-778.509 457,-772.509 461,-766.509 465,-772.509 461,-778.509"/>
<text text-anchor="middle" x="485.591" y="-830" font-family="Helvetica,sans-Serif" font-size="10.00"> +elements</text>
</g>
<!-- Node11&#45;&gt;Node1 -->
<g id="edge14" class="edge"><title>Node11&#45;&gt;Node1</title>
<path fill="none" stroke="#404040" d="M479.756,-250.655C403.551,-220.555 258.175,-163.135 168.696,-127.793"/>
<polygon fill="none" stroke="#404040" points="168.423,-127.686 161.374,-129.202 157.263,-123.277 164.312,-121.761 168.423,-127.686"/>
<text text-anchor="middle" x="417.537" y="-214" font-family="Helvetica,sans-Serif" font-size="10.00"> +paths</text>
</g>
<!-- Node12&#45;&gt;Node11 -->
<g id="edge15" class="edge"><title>Node12&#45;&gt;Node11</title>
<path fill="none" stroke="#404040" d="M530,-350.454C530,-337.868 530,-325.266 530,-313.975"/>
<polygon fill="none" stroke="#404040" points="530,-313.856 526,-307.857 530,-301.856 534,-307.856 530,-313.856"/>
<text text-anchor="middle" x="554.591" y="-323" font-family="Helvetica,sans-Serif" font-size="10.00"> +elements</text>
</g>
<!-- Node13&#45;&gt;Node12 -->
<g id="edge17" class="edge"><title>Node13&#45;&gt;Node12</title>
<path fill="none" stroke="#404040" d="M533.248,-555.346C532.972,-544.67 532.644,-531.957 532.304,-518.779"/>
<polygon fill="none" stroke="#404040" points="532.299,-518.586 528.146,-512.691 531.989,-506.59 536.143,-512.485 532.299,-518.586"/>
<text text-anchor="middle" x="570.375" y="-528" font-family="Helvetica,sans-Serif" font-size="10.00"> +checkedNodes</text>
</g>
</g>
</svg>
        <g id="navigator" transform="translate(0 0)" fill="#404254">
                <rect fill="#f2f5e9" fill-opacity="0.5" stroke="#606060" stroke-width=".5" x="0" y="0" width="60" height="60"/>
                <use id="zoomplus" xlink:href="#zoomPlus" x="17" y="9" onmousedown="handleZoom(evt,'in')"/>
                <use id="zoomminus" xlink:href="#zoomMin" x="42" y="9" onmousedown="handleZoom(evt,'out')"/>
                <use id="reset" xlink:href="#resetDef" x="30" y="36" onmousedown="handleReset()"/>
                <g id="arrowUp" xlink:href="#dirArrow" transform="translate(30 24)" onmousedown="handlePan(0,-1)">
                  <use xlink:href="#rim" fill="#404040">
                        <set attributeName="fill" to="#808080" begin="arrowUp.mouseover" end="arrowUp.mouseout"/>
                  </use>
                  <path fill="none" stroke="white" stroke-width="1.5" d="M0,-3.0v7 M-2.5,-0.5L0,-3.0L2.5,-0.5"/>
                </g>
                <g id="arrowRight" xlink:href="#dirArrow" transform="rotate(90) translate(36 -43)" onmousedown="handlePan(1,0)">
                  <use xlink:href="#rim" fill="#404040">
                        <set attributeName="fill" to="#808080" begin="arrowRight.mouseover" end="arrowRight.mouseout"/>
                  </use>
                  <path fill="none" stroke="white" stroke-width="1.5" d="M0,-3.0v7 M-2.5,-0.5L0,-3.0L2.5,-0.5"/>
                </g>
                <g id="arrowDown" xlink:href="#dirArrow" transform="rotate(180) translate(-30 -48)" onmousedown="handlePan(0,1)">
                  <use xlink:href="#rim" fill="#404040">
                        <set attributeName="fill" to="#808080" begin="arrowDown.mouseover" end="arrowDown.mouseout"/>
                  </use>
                  <path fill="none" stroke="white" stroke-width="1.5" d="M0,-3.0v7 M-2.5,-0.5L0,-3.0L2.5,-0.5"/>
                </g>
                <g id="arrowLeft" xlink:href="#dirArrow" transform="rotate(270) translate(-36 17)" onmousedown="handlePan(-1,0)">
                  <use xlink:href="#rim" fill="#404040">
                        <set attributeName="fill" to="#808080" begin="arrowLeft.mouseover" end="arrowLeft.mouseout"/>
                  </use>
                  <path fill="none" stroke="white" stroke-width="1.5" d="M0,-3.0v7 M-2.5,-0.5L0,-3.0L2.5,-0.5"/>
                </g>
        </g>
        <svg viewBox="0 0 15 15" width="100%" height="30px" preserveAspectRatio="xMaxYMin meet">
         <g id="arrow_out" transform="scale(0.3 0.3)">
          <a xlink:href="classAOgraph__coll__graph_org.svg" target="_base">
           <rect id="button" ry="5" rx="5" y="6" x="6" height="38" width="38"
                fill="#f2f5e9" fill-opacity="0.5" stroke="#606060" stroke-width="1.0"/>
           <path id="arrow"
             d="M 11.500037,31.436501 C 11.940474,20.09759 22.043105,11.32322 32.158766,21.979434 L 37.068811,17.246167 C 37.068811,17.246167 37.088388,32 37.088388,32 L 22.160133,31.978069 C 22.160133,31.978069 26.997745,27.140456 26.997745,27.140456 C 18.528582,18.264221 13.291696,25.230495 11.500037,31.436501 z"
             style="fill:#404040;"/>
          </a>
         </g>
        </svg>
</svg>
