<?xml version="1.0" encoding="UTF-8" standalone="no"?>
<!DOCTYPE svg PUBLIC "-//W3C//DTD SVG 1.1//EN"
 "http://www.w3.org/Graphics/SVG/1.1/DTD/svg11.dtd">
<!-- Generated by graphviz version 2.38.0 (20140413.2041)
 -->
<!-- Title: AOgraph Pages: 1 -->
<svg width="717pt" height="1096pt"
 viewBox="0.00 0.00 716.58 1096.00" xmlns="http://www.w3.org/2000/svg" xmlns:xlink="http://www.w3.org/1999/xlink">
<g id="graph0" class="graph" transform="scale(1 1) rotate(0) translate(4 1092)">
<title>AOgraph</title>
<polygon fill="white" stroke="none" points="-4,4 -4,-1092 712.581,-1092 712.581,4 -4,4"/>
<!-- Node1 -->
<g id="node1" class="node"><title>Node1</title>
<polygon fill="#bfbfbf" stroke="black" points="295.381,-0.5 295.381,-240.5 428.619,-240.5 428.619,-0.5 295.381,-0.5"/>
<text text-anchor="middle" x="362" y="-227.5" font-family="Helvetica,sans-Serif" font-size="10.00">AOgraph</text>
<polyline fill="none" stroke="black" points="295.381,-220.5 428.619,-220.5 "/>
<text text-anchor="middle" x="362" y="-207.5" font-family="Helvetica,sans-Serif" font-size="10.00"> </text>
<polyline fill="none" stroke="black" points="295.381,-200.5 428.619,-200.5 "/>
<text text-anchor="start" x="303.381" y="-187.5" font-family="Helvetica,sans-Serif" font-size="10.00">+ AOgraph()</text>
<text text-anchor="start" x="303.381" y="-175.5" font-family="Helvetica,sans-Serif" font-size="10.00">+ loadFromFile()</text>
<text text-anchor="start" x="303.381" y="-163.5" font-family="Helvetica,sans-Serif" font-size="10.00">+ printGraphInfo()</text>
<text text-anchor="start" x="303.381" y="-151.5" font-family="Helvetica,sans-Serif" font-size="10.00">+ suggestNext()</text>
<text text-anchor="start" x="303.381" y="-139.5" font-family="Helvetica,sans-Serif" font-size="10.00">+ solveByName()</text>
<text text-anchor="start" x="303.381" y="-127.5" font-family="Helvetica,sans-Serif" font-size="10.00">+ ~AOgraph()</text>
<text text-anchor="start" x="303.381" y="-115.5" font-family="Helvetica,sans-Serif" font-size="10.00"># addNode()</text>
<text text-anchor="start" x="303.381" y="-103.5" font-family="Helvetica,sans-Serif" font-size="10.00"># findByName()</text>
<text text-anchor="start" x="303.381" y="-91.5" font-family="Helvetica,sans-Serif" font-size="10.00"># updateNodeFeasibility()</text>
<text text-anchor="start" x="303.381" y="-79.5" font-family="Helvetica,sans-Serif" font-size="10.00"># computeAddCost()</text>
<text text-anchor="start" x="303.381" y="-67.5" font-family="Helvetica,sans-Serif" font-size="10.00"># generatePaths()</text>
<text text-anchor="start" x="303.381" y="-55.5" font-family="Helvetica,sans-Serif" font-size="10.00"># setupGraph()</text>
<text text-anchor="start" x="303.381" y="-43.5" font-family="Helvetica,sans-Serif" font-size="10.00"># findHyperarc()</text>
<text text-anchor="start" x="303.381" y="-31.5" font-family="Helvetica,sans-Serif" font-size="10.00"># computeOverallUpdate()</text>
<text text-anchor="start" x="303.381" y="-19.5" font-family="Helvetica,sans-Serif" font-size="10.00"># updatePaths()</text>
<text text-anchor="start" x="303.381" y="-7.5" font-family="Helvetica,sans-Serif" font-size="10.00"># findOptimalPath()</text>
</g>
<!-- Node2 -->
<g id="node2" class="node"><title>Node2</title>
<g id="a_node2"><a xlink:title="STL class. ">
<polygon fill="white" stroke="#bfbfbf" points="27.3295,-917.5 27.3295,-977.5 86.6705,-977.5 86.6705,-917.5 27.3295,-917.5"/>
<text text-anchor="middle" x="57" y="-964.5" font-family="Helvetica,sans-Serif" font-size="10.00">std::string</text>
<polyline fill="none" stroke="#bfbfbf" points="27.3295,-957.5 86.6705,-957.5 "/>
<text text-anchor="middle" x="57" y="-944.5" font-family="Helvetica,sans-Serif" font-size="10.00"> </text>
<polyline fill="none" stroke="#bfbfbf" points="27.3295,-937.5 86.6705,-937.5 "/>
<text text-anchor="middle" x="57" y="-924.5" font-family="Helvetica,sans-Serif" font-size="10.00"> </text>
</a>
</g>
</g>
<!-- Node2&#45;&gt;Node1 -->
<g id="edge1" class="edge"><title>Node2&#45;&gt;Node1</title>
<path fill="none" stroke="#404040" d="M38.4937,-917.227C21.8501,-888.055 0,-841.399 0,-797.5 0,-797.5 0,-797.5 0,-318.5 0,-190.527 176.701,-145.212 283.196,-129.523"/>
<polygon fill="none" stroke="#404040" points="283.299,-129.509 288.683,-124.712 295.182,-127.838 289.797,-132.634 283.299,-129.509"/>
<text text-anchor="middle" x="20.4215" y="-588" font-family="Helvetica,sans-Serif" font-size="10.00"> +gName</text>
</g>
<!-- Node8 -->
<g id="node8" class="node"><title>Node8</title>
<g id="a_node8"><a xlink:href="../../d6/d22/classAOnode.xhtml" target="_top" xlink:title="class &quot;AOnode&quot; for the generic node element of an AND&#45;OR graph ">
<polygon fill="white" stroke="black" points="54.3535,-724.5 54.3535,-868.5 145.647,-868.5 145.647,-724.5 54.3535,-724.5"/>
<text text-anchor="middle" x="100" y="-855.5" font-family="Helvetica,sans-Serif" font-size="10.00">AOnode</text>
<polyline fill="none" stroke="black" points="54.3535,-848.5 145.647,-848.5 "/>
<text text-anchor="start" x="62.3535" y="-835.5" font-family="Helvetica,sans-Serif" font-size="10.00">+ nCost</text>
<text text-anchor="start" x="62.3535" y="-823.5" font-family="Helvetica,sans-Serif" font-size="10.00">+ nSolved</text>
<text text-anchor="start" x="62.3535" y="-811.5" font-family="Helvetica,sans-Serif" font-size="10.00">+ nFeasible</text>
<polyline fill="none" stroke="black" points="54.3535,-804.5 145.647,-804.5 "/>
<text text-anchor="start" x="62.3535" y="-791.5" font-family="Helvetica,sans-Serif" font-size="10.00">+ AOnode()</text>
<text text-anchor="start" x="62.3535" y="-779.5" font-family="Helvetica,sans-Serif" font-size="10.00">+ addArc()</text>
<text text-anchor="start" x="62.3535" y="-767.5" font-family="Helvetica,sans-Serif" font-size="10.00">+ printNodeInfo()</text>
<text text-anchor="start" x="62.3535" y="-755.5" font-family="Helvetica,sans-Serif" font-size="10.00">+ isFeasible()</text>
<text text-anchor="start" x="62.3535" y="-743.5" font-family="Helvetica,sans-Serif" font-size="10.00">+ setSolved()</text>
<text text-anchor="start" x="62.3535" y="-731.5" font-family="Helvetica,sans-Serif" font-size="10.00">+ ~AOnode()</text>
</a>
</g>
</g>
<!-- Node2&#45;&gt;Node8 -->
<g id="edge11" class="edge"><title>Node2&#45;&gt;Node8</title>
<path fill="none" stroke="#404040" d="M65.3929,-917.418C68.5309,-906.544 72.2713,-893.583 76.1146,-880.266"/>
<polygon fill="none" stroke="#404040" points="76.1786,-880.044 73.9992,-873.17 79.506,-868.514 81.6855,-875.388 76.1786,-880.044"/>
<text text-anchor="middle" x="94.4215" y="-890" font-family="Helvetica,sans-Serif" font-size="10.00"> +nName</text>
</g>
<!-- Node3 -->
<g id="node3" class="node"><title>Node3</title>
<g id="a_node3"><a xlink:title="STL class. ">
<polygon fill="white" stroke="#bfbfbf" points="9.962,-1015.5 9.962,-1087.5 104.038,-1087.5 104.038,-1015.5 9.962,-1015.5"/>
<text text-anchor="start" x="17.962" y="-1074.5" font-family="Helvetica,sans-Serif" font-size="10.00">std::basic_string&lt;</text>
<text text-anchor="middle" x="57" y="-1062.5" font-family="Helvetica,sans-Serif" font-size="10.00"> char &gt;</text>
<polyline fill="none" stroke="#bfbfbf" points="9.962,-1055.5 104.038,-1055.5 "/>
<text text-anchor="middle" x="57" y="-1042.5" font-family="Helvetica,sans-Serif" font-size="10.00"> </text>
<polyline fill="none" stroke="#bfbfbf" points="9.962,-1035.5 104.038,-1035.5 "/>
<text text-anchor="middle" x="57" y="-1022.5" font-family="Helvetica,sans-Serif" font-size="10.00"> </text>
</a>
</g>
</g>
<!-- Node3&#45;&gt;Node2 -->
<g id="edge2" class="edge"><title>Node3&#45;&gt;Node2</title>
<path fill="none" stroke="midnightblue" d="M57,-1005.34C57,-995.918 57,-986.226 57,-977.573"/>
<polygon fill="none" stroke="midnightblue" points="53.5001,-1005.4 57,-1015.4 60.5001,-1005.4 53.5001,-1005.4"/>
</g>
<!-- Node4 -->
<g id="node4" class="node"><title>Node4</title>
<polygon fill="white" stroke="#bfbfbf" points="554.043,-615.5 554.043,-675.5 643.957,-675.5 643.957,-615.5 554.043,-615.5"/>
<text text-anchor="middle" x="599" y="-662.5" font-family="Helvetica,sans-Serif" font-size="10.00">std::vector&lt; int &gt;</text>
<polyline fill="none" stroke="#bfbfbf" points="554.043,-655.5 643.957,-655.5 "/>
<text text-anchor="start" x="562.043" y="-642.5" font-family="Helvetica,sans-Serif" font-size="10.00">+ elements</text>
<polyline fill="none" stroke="#bfbfbf" points="554.043,-635.5 643.957,-635.5 "/>
<text text-anchor="middle" x="599" y="-622.5" font-family="Helvetica,sans-Serif" font-size="10.00"> </text>
</g>
<!-- Node4&#45;&gt;Node1 -->
<g id="edge3" class="edge"><title>Node4&#45;&gt;Node1</title>
<path fill="none" stroke="#404040" d="M611.574,-615.458C614.439,-605.87 616.306,-595.078 615,-585 597.522,-450.081 606.066,-406.211 537,-289 512.02,-246.607 473.32,-207.977 438.658,-178.525"/>
<polygon fill="none" stroke="#404040" points="438.216,-178.156 431.046,-177.382 429.004,-170.466 436.173,-171.24 438.216,-178.156"/>
<text text-anchor="middle" x="609.206" y="-383" font-family="Helvetica,sans-Serif" font-size="10.00"> +pUpdate</text>
<text text-anchor="middle" x="609.206" y="-371" font-family="Helvetica,sans-Serif" font-size="10.00">+pIndices</text>
</g>
<!-- Node13 -->
<g id="node13" class="node"><title>Node13</title>
<g id="a_node13"><a xlink:href="../../db/dc7/classPath.xhtml" target="_top" xlink:title="class &quot;Path&quot; for each unique path traversing the graph from the head to the leaves ...">
<polygon fill="white" stroke="black" points="432.906,-410.5 432.906,-566.5 523.093,-566.5 523.093,-410.5 432.906,-410.5"/>
<text text-anchor="middle" x="478" y="-553.5" font-family="Helvetica,sans-Serif" font-size="10.00">Path</text>
<polyline fill="none" stroke="black" points="432.906,-546.5 523.093,-546.5 "/>
<text text-anchor="start" x="440.906" y="-533.5" font-family="Helvetica,sans-Serif" font-size="10.00">+ pIndex</text>
<text text-anchor="start" x="440.906" y="-521.5" font-family="Helvetica,sans-Serif" font-size="10.00">+ pCost</text>
<text text-anchor="start" x="440.906" y="-509.5" font-family="Helvetica,sans-Serif" font-size="10.00">+ pComplete</text>
<polyline fill="none" stroke="black" points="432.906,-502.5 523.093,-502.5 "/>
<text text-anchor="start" x="440.906" y="-489.5" font-family="Helvetica,sans-Serif" font-size="10.00">+ Path()</text>
<text text-anchor="start" x="440.906" y="-477.5" font-family="Helvetica,sans-Serif" font-size="10.00">+ Path()</text>
<text text-anchor="start" x="440.906" y="-465.5" font-family="Helvetica,sans-Serif" font-size="10.00">+ printPathInfo()</text>
<text text-anchor="start" x="440.906" y="-453.5" font-family="Helvetica,sans-Serif" font-size="10.00">+ addNode()</text>
<text text-anchor="start" x="440.906" y="-441.5" font-family="Helvetica,sans-Serif" font-size="10.00">+ updatePath()</text>
<text text-anchor="start" x="440.906" y="-429.5" font-family="Helvetica,sans-Serif" font-size="10.00">+ suggestNode()</text>
<text text-anchor="start" x="440.906" y="-417.5" font-family="Helvetica,sans-Serif" font-size="10.00">+ ~Path()</text>
</a>
</g>
</g>
<!-- Node4&#45;&gt;Node13 -->
<g id="edge20" class="edge"><title>Node4&#45;&gt;Node13</title>
<path fill="none" stroke="#404040" d="M577.17,-615.338C569.855,-605.646 561.622,-594.823 554,-585 546.519,-575.358 538.558,-565.221 530.71,-555.299"/>
<polygon fill="none" stroke="#404040" points="530.695,-555.28 523.834,-553.063 523.241,-545.876 530.103,-548.094 530.695,-555.28"/>
<text text-anchor="middle" x="587.036" y="-588" font-family="Helvetica,sans-Serif" font-size="10.00"> +pathArcs</text>
</g>
<!-- Node5 -->
<g id="node5" class="node"><title>Node5</title>
<g id="a_node5"><a xlink:title="STL class. ">
<polygon fill="white" stroke="#bfbfbf" points="431.267,-766.5 431.267,-826.5 516.734,-826.5 516.734,-766.5 431.267,-766.5"/>
<text text-anchor="middle" x="474" y="-813.5" font-family="Helvetica,sans-Serif" font-size="10.00">std::vector&lt; T &gt;</text>
<polyline fill="none" stroke="#bfbfbf" points="431.267,-806.5 516.734,-806.5 "/>
<text text-anchor="middle" x="474" y="-793.5" font-family="Helvetica,sans-Serif" font-size="10.00"> </text>
<polyline fill="none" stroke="#bfbfbf" points="431.267,-786.5 516.734,-786.5 "/>
<text text-anchor="middle" x="474" y="-773.5" font-family="Helvetica,sans-Serif" font-size="10.00"> </text>
</a>
</g>
</g>
<!-- Node5&#45;&gt;Node4 -->
<g id="edge4" class="edge"><title>Node5&#45;&gt;Node4</title>
<path fill="none" stroke="orange" d="M504.845,-758.733C526.377,-733.066 554.72,-699.281 574.664,-675.509"/>
<polygon fill="orange" stroke="orange" points="502.144,-756.507 498.398,-766.418 507.507,-761.006 502.144,-756.507"/>
<text text-anchor="middle" x="574.286" y="-697" font-family="Helvetica,sans-Serif" font-size="10.00"> &lt; int &gt;</text>
</g>
<!-- Node7 -->
<g id="node7" class="node"><title>Node7</title>
<polygon fill="white" stroke="#bfbfbf" points="303.979,-615.5 303.979,-675.5 420.021,-675.5 420.021,-615.5 303.979,-615.5"/>
<text text-anchor="middle" x="362" y="-662.5" font-family="Helvetica,sans-Serif" font-size="10.00">std::vector&lt; AOnode &gt;</text>
<polyline fill="none" stroke="#bfbfbf" points="303.979,-655.5 420.021,-655.5 "/>
<text text-anchor="middle" x="362" y="-642.5" font-family="Helvetica,sans-Serif" font-size="10.00"> </text>
<polyline fill="none" stroke="#bfbfbf" points="303.979,-635.5 420.021,-635.5 "/>
<text text-anchor="middle" x="362" y="-622.5" font-family="Helvetica,sans-Serif" font-size="10.00"> </text>
</g>
<!-- Node5&#45;&gt;Node7 -->
<g id="edge16" class="edge"><title>Node5&#45;&gt;Node7</title>
<path fill="none" stroke="orange" d="M453.912,-757.422C442.724,-737.671 427.87,-713.637 412,-694 406.958,-687.761 401.13,-681.534 395.273,-675.74"/>
<polygon fill="orange" stroke="orange" points="450.859,-759.133 458.785,-766.164 456.973,-755.725 450.859,-759.133"/>
<text text-anchor="middle" x="448.35" y="-697" font-family="Helvetica,sans-Serif" font-size="10.00"> &lt; AOnode &gt;</text>
</g>
<!-- Node9 -->
<g id="node9" class="node"><title>Node9</title>
<polygon fill="white" stroke="#bfbfbf" points="123.645,-615.5 123.645,-675.5 246.355,-675.5 246.355,-615.5 123.645,-615.5"/>
<text text-anchor="middle" x="185" y="-662.5" font-family="Helvetica,sans-Serif" font-size="10.00">std::vector&lt; AOnode * &gt;</text>
<polyline fill="none" stroke="#bfbfbf" points="123.645,-655.5 246.355,-655.5 "/>
<text text-anchor="middle" x="185" y="-642.5" font-family="Helvetica,sans-Serif" font-size="10.00"> </text>
<polyline fill="none" stroke="#bfbfbf" points="123.645,-635.5 246.355,-635.5 "/>
<text text-anchor="middle" x="185" y="-622.5" font-family="Helvetica,sans-Serif" font-size="10.00"> </text>
</g>
<!-- Node5&#45;&gt;Node9 -->
<g id="edge10" class="edge"><title>Node5&#45;&gt;Node9</title>
<path fill="none" stroke="orange" d="M421.343,-780.04C374.683,-765.037 305.76,-739.617 251.633,-706 237.931,-697.49 224.365,-686.075 213.086,-675.519"/>
<polygon fill="orange" stroke="orange" points="420.358,-783.399 430.948,-783.083 422.472,-776.726 420.358,-783.399"/>
<text text-anchor="middle" x="283.683" y="-697" font-family="Helvetica,sans-Serif" font-size="10.00"> &lt; AOnode * &gt;</text>
</g>
<!-- Node10 -->
<g id="node10" class="node"><title>Node10</title>
<polygon fill="white" stroke="#bfbfbf" points="124.489,-289.5 124.489,-349.5 245.511,-349.5 245.511,-289.5 124.489,-289.5"/>
<text text-anchor="middle" x="185" y="-336.5" font-family="Helvetica,sans-Serif" font-size="10.00">std::vector&lt; HyperArc &gt;</text>
<polyline fill="none" stroke="#bfbfbf" points="124.489,-329.5 245.511,-329.5 "/>
<text text-anchor="middle" x="185" y="-316.5" font-family="Helvetica,sans-Serif" font-size="10.00"> </text>
<polyline fill="none" stroke="#bfbfbf" points="124.489,-309.5 245.511,-309.5 "/>
<text text-anchor="middle" x="185" y="-296.5" font-family="Helvetica,sans-Serif" font-size="10.00"> </text>
</g>
<!-- Node5&#45;&gt;Node10 -->
<g id="edge15" class="edge"><title>Node5&#45;&gt;Node10</title>
<path fill="none" stroke="orange" d="M422.491,-763.985C372.612,-733.017 303.315,-688.62 295,-676 218.409,-559.75 306.147,-489.393 238,-368 234.31,-361.428 229.37,-355.29 223.984,-349.754"/>
<polygon fill="orange" stroke="orange" points="420.904,-767.119 431.248,-769.409 424.59,-761.168 420.904,-767.119"/>
<text text-anchor="middle" x="294.839" y="-588" font-family="Helvetica,sans-Serif" font-size="10.00"> &lt; HyperArc &gt;</text>
</g>
<!-- Node12 -->
<g id="node12" class="node"><title>Node12</title>
<polygon fill="white" stroke="#bfbfbf" points="428.038,-289.5 428.038,-349.5 527.962,-349.5 527.962,-289.5 428.038,-289.5"/>
<text text-anchor="middle" x="478" y="-336.5" font-family="Helvetica,sans-Serif" font-size="10.00">std::vector&lt; Path &gt;</text>
<polyline fill="none" stroke="#bfbfbf" points="428.038,-329.5 527.962,-329.5 "/>
<text text-anchor="middle" x="478" y="-316.5" font-family="Helvetica,sans-Serif" font-size="10.00"> </text>
<polyline fill="none" stroke="#bfbfbf" points="428.038,-309.5 527.962,-309.5 "/>
<text text-anchor="middle" x="478" y="-296.5" font-family="Helvetica,sans-Serif" font-size="10.00"> </text>
</g>
<!-- Node5&#45;&gt;Node12 -->
<g id="edge23" class="edge"><title>Node5&#45;&gt;Node12</title>
<path fill="none" stroke="orange" d="M526.54,-776.648C569.194,-758.221 626.462,-725.625 653,-676 716.826,-556.647 579.176,-410.767 512.04,-349.634"/>
<polygon fill="orange" stroke="orange" points="525.005,-773.496 517.133,-780.587 527.708,-779.953 525.005,-773.496"/>
<text text-anchor="middle" x="688.29" y="-588" font-family="Helvetica,sans-Serif" font-size="10.00"> &lt; Path &gt;</text>
</g>
<!-- Node14 -->
<g id="node14" class="node"><title>Node14</title>
<polygon fill="white" stroke="#bfbfbf" points="437.873,-615.5 437.873,-675.5 536.127,-675.5 536.127,-615.5 437.873,-615.5"/>
<text text-anchor="middle" x="487" y="-662.5" font-family="Helvetica,sans-Serif" font-size="10.00">std::vector&lt; bool &gt;</text>
<polyline fill="none" stroke="#bfbfbf" points="437.873,-655.5 536.127,-655.5 "/>
<text text-anchor="start" x="445.873" y="-642.5" font-family="Helvetica,sans-Serif" font-size="10.00">+ elements</text>
<polyline fill="none" stroke="#bfbfbf" points="437.873,-635.5 536.127,-635.5 "/>
<text text-anchor="middle" x="487" y="-622.5" font-family="Helvetica,sans-Serif" font-size="10.00"> </text>
</g>
<!-- Node5&#45;&gt;Node14 -->
<g id="edge22" class="edge"><title>Node5&#45;&gt;Node14</title>
<path fill="none" stroke="orange" d="M485.19,-756.446C489.467,-737.687 493.092,-714.81 492,-694 491.687,-688.038 491.155,-681.672 490.551,-675.601"/>
<polygon fill="orange" stroke="orange" points="481.73,-755.862 482.773,-766.405 488.533,-757.513 481.73,-755.862"/>
<text text-anchor="middle" x="512.456" y="-697" font-family="Helvetica,sans-Serif" font-size="10.00"> &lt; bool &gt;</text>
</g>
<!-- Node6 -->
<g id="node6" class="node"><title>Node6</title>
<polygon fill="white" stroke="#bfbfbf" points="459.5,-917.5 459.5,-977.5 488.5,-977.5 488.5,-917.5 459.5,-917.5"/>
<text text-anchor="middle" x="473.555" y="-964.5" font-family="Helvetica,sans-Serif" font-size="10.00">T</text>
<polyline fill="none" stroke="#bfbfbf" points="459.5,-957.5 487.609,-957.5 "/>
<text text-anchor="middle" x="473.555" y="-944.5" font-family="Helvetica,sans-Serif" font-size="10.00"> </text>
<polyline fill="none" stroke="#bfbfbf" points="459.5,-937.5 487.609,-937.5 "/>
<text text-anchor="middle" x="473.555" y="-924.5" font-family="Helvetica,sans-Serif" font-size="10.00"> </text>
</g>
<!-- Node6&#45;&gt;Node5 -->
<g id="edge5" class="edge"><title>Node6&#45;&gt;Node5</title>
<path fill="none" stroke="#404040" d="M474,-917.418C474,-894.958 474,-863.593 474,-838.573"/>
<polygon fill="none" stroke="#404040" points="474,-838.509 470,-832.509 474,-826.509 478,-832.509 474,-838.509"/>
<text text-anchor="middle" x="498.591" y="-890" font-family="Helvetica,sans-Serif" font-size="10.00"> +elements</text>
</g>
<!-- Node7&#45;&gt;Node1 -->
<g id="edge6" class="edge"><title>Node7&#45;&gt;Node1</title>
<path fill="none" stroke="#404040" d="M362,-615.261C362,-547.184 362,-374.628 362,-252.756"/>
<polygon fill="none" stroke="#404040" points="362,-252.756 358,-246.756 362,-240.756 366,-246.756 362,-252.756"/>
<text text-anchor="middle" x="379.091" y="-377" font-family="Helvetica,sans-Serif" font-size="10.00"> +graph</text>
</g>
<!-- Node8&#45;&gt;Node1 -->
<g id="edge24" class="edge"><title>Node8&#45;&gt;Node1</title>
<path fill="none" stroke="#404040" d="M70.0428,-724.366C62.2521,-700.106 56,-672.528 56,-646.5 56,-646.5 56,-646.5 56,-318.5 56,-210.414 192.643,-158.814 283.308,-136.472"/>
<polygon fill="none" stroke="#404040" points="283.551,-136.414 288.462,-131.134 295.225,-133.637 290.314,-138.917 283.551,-136.414"/>
<text text-anchor="middle" x="71.427" y="-485.5" font-family="Helvetica,sans-Serif" font-size="10.00"> +head</text>
</g>
<!-- Node8&#45;&gt;Node7 -->
<g id="edge7" class="edge"><title>Node8&#45;&gt;Node7</title>
<path fill="none" stroke="#404040" d="M145.878,-784.516C192.757,-771.598 265.875,-746.605 318,-706 325.399,-700.236 332.157,-692.92 338.037,-685.407"/>
<polygon fill="none" stroke="#404040" points="338.17,-685.224 338.474,-678.02 345.242,-675.529 344.937,-682.734 338.17,-685.224"/>
<text text-anchor="middle" x="354.591" y="-697" font-family="Helvetica,sans-Serif" font-size="10.00"> +elements</text>
</g>
<!-- Node8&#45;&gt;Node9 -->
<g id="edge9" class="edge"><title>Node8&#45;&gt;Node9</title>
<path fill="none" stroke="#404040" d="M145.667,-725.657C149.609,-719.077 153.445,-712.454 157,-706 160.423,-699.786 163.834,-693.083 167.037,-686.494"/>
<polygon fill="none" stroke="#404040" points="167.052,-686.462 166.011,-679.327 172.197,-675.621 173.238,-682.756 167.052,-686.462"/>
<text text-anchor="middle" x="187.591" y="-697" font-family="Helvetica,sans-Serif" font-size="10.00"> +elements</text>
</g>
<!-- Node9&#45;&gt;Node8 -->
<g id="edge8" class="edge"><title>Node9&#45;&gt;Node8</title>
<path fill="none" stroke="#404040" d="M131.28,-675.718C125.01,-681.069 119.332,-687.162 115.038,-694 111.456,-699.704 108.604,-705.938 106.345,-712.42"/>
<polygon fill="none" stroke="#404040" points="106.242,-712.774 108.405,-719.653 102.888,-724.296 100.724,-717.417 106.242,-712.774"/>
<text text-anchor="middle" x="136.981" y="-697" font-family="Helvetica,sans-Serif" font-size="10.00"> +parents</text>
</g>
<!-- Node11 -->
<g id="node11" class="node"><title>Node11</title>
<g id="a_node11"><a xlink:href="../../db/dba/classHyperArc.xhtml" target="_top" xlink:title="class &quot;HyperArc&quot; for the hyperarc connecting one parent node to a number of child nodes in an AND rel...">
<polygon fill="white" stroke="black" points="143.803,-440.5 143.803,-536.5 226.197,-536.5 226.197,-440.5 143.803,-440.5"/>
<text text-anchor="middle" x="185" y="-523.5" font-family="Helvetica,sans-Serif" font-size="10.00">HyperArc</text>
<polyline fill="none" stroke="black" points="143.803,-516.5 226.197,-516.5 "/>
<text text-anchor="start" x="151.803" y="-503.5" font-family="Helvetica,sans-Serif" font-size="10.00">+ hIndex</text>
<text text-anchor="start" x="151.803" y="-491.5" font-family="Helvetica,sans-Serif" font-size="10.00">+ hCost</text>
<polyline fill="none" stroke="black" points="143.803,-484.5 226.197,-484.5 "/>
<text text-anchor="start" x="151.803" y="-471.5" font-family="Helvetica,sans-Serif" font-size="10.00">+ HyperArc()</text>
<text text-anchor="start" x="151.803" y="-459.5" font-family="Helvetica,sans-Serif" font-size="10.00">+ printArcInfo()</text>
<text text-anchor="start" x="151.803" y="-447.5" font-family="Helvetica,sans-Serif" font-size="10.00">+ ~HyperArc()</text>
</a>
</g>
</g>
<!-- Node9&#45;&gt;Node11 -->
<g id="edge14" class="edge"><title>Node9&#45;&gt;Node11</title>
<path fill="none" stroke="#404040" d="M185,-615.346C185,-596.613 185,-571.607 185,-548.822"/>
<polygon fill="none" stroke="#404040" points="185,-548.801 181,-542.801 185,-536.801 189,-542.801 185,-548.801"/>
<text text-anchor="middle" x="206.81" y="-588" font-family="Helvetica,sans-Serif" font-size="10.00"> +children</text>
</g>
<!-- Node9&#45;&gt;Node13 -->
<g id="edge19" class="edge"><title>Node9&#45;&gt;Node13</title>
<path fill="none" stroke="#404040" d="M246.462,-628.437C282.865,-618.434 325.088,-605.833 342,-597 371.085,-581.808 400.064,-560.058 423.752,-540.091"/>
<polygon fill="none" stroke="#404040" points="423.783,-540.065 425.734,-533.123 432.893,-532.254 430.941,-539.196 423.783,-540.065"/>
<text text-anchor="middle" x="391.485" y="-588" font-family="Helvetica,sans-Serif" font-size="10.00"> +pathNodes</text>
</g>
<!-- Node10&#45;&gt;Node8 -->
<g id="edge12" class="edge"><title>Node10&#45;&gt;Node8</title>
<path fill="none" stroke="#404040" d="M164.634,-349.753C153.965,-366.598 141.748,-388.613 135,-410 103.284,-510.528 97.294,-632.594 97.4116,-712.062"/>
<polygon fill="none" stroke="#404040" points="97.4136,-712.441 101.447,-718.419 97.4799,-724.441 93.4469,-718.463 97.4136,-712.441"/>
<text text-anchor="middle" x="116.753" y="-588" font-family="Helvetica,sans-Serif" font-size="10.00"> +arcs</text>
</g>
<!-- Node11&#45;&gt;Node10 -->
<g id="edge13" class="edge"><title>Node11&#45;&gt;Node10</title>
<path fill="none" stroke="#404040" d="M185,-440.091C185,-415.406 185,-385.509 185,-361.783"/>
<polygon fill="none" stroke="#404040" points="185,-361.655 181,-355.655 185,-349.655 189,-355.655 185,-361.655"/>
<text text-anchor="middle" x="209.591" y="-377" font-family="Helvetica,sans-Serif" font-size="10.00"> +elements</text>
</g>
<!-- Node12&#45;&gt;Node1 -->
<g id="edge17" class="edge"><title>Node12&#45;&gt;Node1</title>
<path fill="none" stroke="#404040" d="M460.884,-289.432C453.646,-277.14 444.68,-261.914 435.126,-245.687"/>
<polygon fill="none" stroke="#404040" points="434.863,-245.241 428.372,-242.101 428.774,-234.901 435.265,-238.041 434.863,-245.241"/>
<text text-anchor="middle" x="466.537" y="-262" font-family="Helvetica,sans-Serif" font-size="10.00"> +paths</text>
</g>
<!-- Node13&#45;&gt;Node12 -->
<g id="edge18" class="edge"><title>Node13&#45;&gt;Node12</title>
<path fill="none" stroke="#404040" d="M478,-410.355C478,-393.698 478,-376.701 478,-362.038"/>
<polygon fill="none" stroke="#404040" points="478,-361.819 474,-355.819 478,-349.819 482,-355.819 478,-361.819"/>
<text text-anchor="middle" x="502.591" y="-377" font-family="Helvetica,sans-Serif" font-size="10.00"> +elements</text>
</g>
<!-- Node14&#45;&gt;Node13 -->
<g id="edge21" class="edge"><title>Node14&#45;&gt;Node13</title>
<path fill="none" stroke="#404040" d="M481.551,-615.447C480.612,-609.373 479.771,-602.993 479.25,-597 478.746,-591.204 478.347,-585.225 478.033,-579.195"/>
<polygon fill="none" stroke="#404040" points="478.016,-578.774 473.764,-572.95 477.506,-566.785 481.757,-572.61 478.016,-578.774"/>
<text text-anchor="middle" x="517.375" y="-588" font-family="Helvetica,sans-Serif" font-size="10.00"> +checkedNodes</text>
</g>
</g>
</svg>
