<?xml version="1.0" encoding="UTF-8" standalone="no"?>
<!DOCTYPE svg PUBLIC "-//W3C//DTD SVG 1.1//EN"
 "http://www.w3.org/Graphics/SVG/1.1/DTD/svg11.dtd">
<!-- Generated by graphviz version 2.38.0 (20140413.2041)
 -->
<!-- Title: AOgraph Pages: 1 -->
<svg width="752pt" height="1145pt"
 viewBox="0.00 0.00 751.80 1145.00" xmlns="http://www.w3.org/2000/svg" xmlns:xlink="http://www.w3.org/1999/xlink">
<g id="graph0" class="graph" transform="scale(1 1) rotate(0) translate(4 1141)">
<title>AOgraph</title>
<polygon fill="white" stroke="none" points="-4,4 -4,-1141 747.8,-1141 747.8,4 -4,4"/>
<!-- Node1 -->
<g id="node1" class="node"><title>Node1</title>
<polygon fill="#bfbfbf" stroke="black" points="221.338,-0.5 221.338,-240.5 354.577,-240.5 354.577,-0.5 221.338,-0.5"/>
<text text-anchor="middle" x="287.957" y="-227.5" font-family="Helvetica,sans-Serif" font-size="10.00">AOgraph</text>
<polyline fill="none" stroke="black" points="221.338,-220.5 354.577,-220.5 "/>
<text text-anchor="middle" x="287.957" y="-207.5" font-family="Helvetica,sans-Serif" font-size="10.00"> </text>
<polyline fill="none" stroke="black" points="221.338,-200.5 354.577,-200.5 "/>
<text text-anchor="start" x="229.338" y="-187.5" font-family="Helvetica,sans-Serif" font-size="10.00">+ AOgraph()</text>
<text text-anchor="start" x="229.338" y="-175.5" font-family="Helvetica,sans-Serif" font-size="10.00">+ loadFromFile()</text>
<text text-anchor="start" x="229.338" y="-163.5" font-family="Helvetica,sans-Serif" font-size="10.00">+ printGraphInfo()</text>
<text text-anchor="start" x="229.338" y="-151.5" font-family="Helvetica,sans-Serif" font-size="10.00">+ suggestNext()</text>
<text text-anchor="start" x="229.338" y="-139.5" font-family="Helvetica,sans-Serif" font-size="10.00">+ solveByName()</text>
<text text-anchor="start" x="229.338" y="-127.5" font-family="Helvetica,sans-Serif" font-size="10.00">+ ~AOgraph()</text>
<text text-anchor="start" x="229.338" y="-115.5" font-family="Helvetica,sans-Serif" font-size="10.00"># addNode()</text>
<text text-anchor="start" x="229.338" y="-103.5" font-family="Helvetica,sans-Serif" font-size="10.00"># findByName()</text>
<text text-anchor="start" x="229.338" y="-91.5" font-family="Helvetica,sans-Serif" font-size="10.00"># updateNodeFeasibility()</text>
<text text-anchor="start" x="229.338" y="-79.5" font-family="Helvetica,sans-Serif" font-size="10.00"># computeAddCost()</text>
<text text-anchor="start" x="229.338" y="-67.5" font-family="Helvetica,sans-Serif" font-size="10.00"># generatePaths()</text>
<text text-anchor="start" x="229.338" y="-55.5" font-family="Helvetica,sans-Serif" font-size="10.00"># setupGraph()</text>
<text text-anchor="start" x="229.338" y="-43.5" font-family="Helvetica,sans-Serif" font-size="10.00"># findHyperarc()</text>
<text text-anchor="start" x="229.338" y="-31.5" font-family="Helvetica,sans-Serif" font-size="10.00"># computeOverallUpdate()</text>
<text text-anchor="start" x="229.338" y="-19.5" font-family="Helvetica,sans-Serif" font-size="10.00"># updatePaths()</text>
<text text-anchor="start" x="229.338" y="-7.5" font-family="Helvetica,sans-Serif" font-size="10.00"># findOptimalPath()</text>
</g>
<!-- Node2 -->
<g id="node2" class="node"><title>Node2</title>
<g id="a_node2"><a xlink:title="STL class. ">
<polygon fill="white" stroke="#bfbfbf" points="633.287,-966.5 633.287,-1026.5 692.628,-1026.5 692.628,-966.5 633.287,-966.5"/>
<text text-anchor="middle" x="662.957" y="-1013.5" font-family="Helvetica,sans-Serif" font-size="10.00">std::string</text>
<polyline fill="none" stroke="#bfbfbf" points="633.287,-1006.5 692.628,-1006.5 "/>
<text text-anchor="middle" x="662.957" y="-993.5" font-family="Helvetica,sans-Serif" font-size="10.00"> </text>
<polyline fill="none" stroke="#bfbfbf" points="633.287,-986.5 692.628,-986.5 "/>
<text text-anchor="middle" x="662.957" y="-973.5" font-family="Helvetica,sans-Serif" font-size="10.00"> </text>
</a>
</g>
</g>
<!-- Node2&#45;&gt;Node1 -->
<g id="edge1" class="edge"><title>Node2&#45;&gt;Node1</title>
<path fill="none" stroke="#404040" d="M675.614,-966.435C687.332,-936.844 702.957,-889.354 702.957,-846.5 702.957,-846.5 702.957,-846.5 702.957,-318.5 702.957,-171.227 487.031,-133.916 366.683,-124.559"/>
<polygon fill="none" stroke="#404040" points="366.603,-124.553 360.331,-128.111 354.634,-123.69 360.907,-120.132 366.603,-124.553"/>
<text text-anchor="middle" x="723.379" y="-612.5" font-family="Helvetica,sans-Serif" font-size="10.00"> +gName</text>
</g>
<!-- Node8 -->
<g id="node8" class="node"><title>Node8</title>
<g id="a_node8"><a xlink:href="../../d6/d22/classAOnode.xhtml" target="_top" xlink:title="class &quot;AOnode&quot; for the generic node element of an AND&#45;OR graph ">
<polygon fill="white" stroke="black" points="532.311,-773.5 532.311,-917.5 623.604,-917.5 623.604,-773.5 532.311,-773.5"/>
<text text-anchor="middle" x="577.957" y="-904.5" font-family="Helvetica,sans-Serif" font-size="10.00">AOnode</text>
<polyline fill="none" stroke="black" points="532.311,-897.5 623.604,-897.5 "/>
<text text-anchor="start" x="540.311" y="-884.5" font-family="Helvetica,sans-Serif" font-size="10.00">+ nCost</text>
<text text-anchor="start" x="540.311" y="-872.5" font-family="Helvetica,sans-Serif" font-size="10.00">+ nSolved</text>
<text text-anchor="start" x="540.311" y="-860.5" font-family="Helvetica,sans-Serif" font-size="10.00">+ nFeasible</text>
<polyline fill="none" stroke="black" points="532.311,-853.5 623.604,-853.5 "/>
<text text-anchor="start" x="540.311" y="-840.5" font-family="Helvetica,sans-Serif" font-size="10.00">+ AOnode()</text>
<text text-anchor="start" x="540.311" y="-828.5" font-family="Helvetica,sans-Serif" font-size="10.00">+ addArc()</text>
<text text-anchor="start" x="540.311" y="-816.5" font-family="Helvetica,sans-Serif" font-size="10.00">+ printNodeInfo()</text>
<text text-anchor="start" x="540.311" y="-804.5" font-family="Helvetica,sans-Serif" font-size="10.00">+ isFeasible()</text>
<text text-anchor="start" x="540.311" y="-792.5" font-family="Helvetica,sans-Serif" font-size="10.00">+ setSolved()</text>
<text text-anchor="start" x="540.311" y="-780.5" font-family="Helvetica,sans-Serif" font-size="10.00">+ ~AOnode()</text>
</a>
</g>
</g>
<!-- Node2&#45;&gt;Node8 -->
<g id="edge11" class="edge"><title>Node2&#45;&gt;Node8</title>
<path fill="none" stroke="#404040" d="M646.367,-966.418C639.976,-955.215 632.321,-941.796 624.482,-928.054"/>
<polygon fill="none" stroke="#404040" points="624.415,-927.937 617.968,-924.708 618.469,-917.514 624.916,-920.744 624.415,-927.937"/>
<text text-anchor="middle" x="656.379" y="-939" font-family="Helvetica,sans-Serif" font-size="10.00"> +nName</text>
</g>
<!-- Node3 -->
<g id="node3" class="node"><title>Node3</title>
<g id="a_node3"><a xlink:title="STL class. ">
<polygon fill="white" stroke="#bfbfbf" points="615.919,-1064.5 615.919,-1136.5 709.995,-1136.5 709.995,-1064.5 615.919,-1064.5"/>
<text text-anchor="start" x="623.919" y="-1123.5" font-family="Helvetica,sans-Serif" font-size="10.00">std::basic_string&lt;</text>
<text text-anchor="middle" x="662.957" y="-1111.5" font-family="Helvetica,sans-Serif" font-size="10.00"> char &gt;</text>
<polyline fill="none" stroke="#bfbfbf" points="615.919,-1104.5 709.995,-1104.5 "/>
<text text-anchor="middle" x="662.957" y="-1091.5" font-family="Helvetica,sans-Serif" font-size="10.00"> </text>
<polyline fill="none" stroke="#bfbfbf" points="615.919,-1084.5 709.995,-1084.5 "/>
<text text-anchor="middle" x="662.957" y="-1071.5" font-family="Helvetica,sans-Serif" font-size="10.00"> </text>
</a>
</g>
</g>
<!-- Node3&#45;&gt;Node2 -->
<g id="edge2" class="edge"><title>Node3&#45;&gt;Node2</title>
<path fill="none" stroke="midnightblue" d="M662.957,-1054.34C662.957,-1044.92 662.957,-1035.23 662.957,-1026.57"/>
<polygon fill="none" stroke="midnightblue" points="659.458,-1054.4 662.957,-1064.4 666.458,-1054.4 659.458,-1054.4"/>
</g>
<!-- Node4 -->
<g id="node4" class="node"><title>Node4</title>
<polygon fill="white" stroke="#bfbfbf" points="-1.42109e-14,-585.5 -1.42109e-14,-645.5 89.915,-645.5 89.915,-585.5 -1.42109e-14,-585.5"/>
<text text-anchor="middle" x="44.9575" y="-632.5" font-family="Helvetica,sans-Serif" font-size="10.00">std::vector&lt; int &gt;</text>
<polyline fill="none" stroke="#bfbfbf" points="-1.42109e-14,-625.5 89.915,-625.5 "/>
<text text-anchor="start" x="8" y="-612.5" font-family="Helvetica,sans-Serif" font-size="10.00">+ elements</text>
<polyline fill="none" stroke="#bfbfbf" points="-1.42109e-14,-605.5 89.915,-605.5 "/>
<text text-anchor="middle" x="44.9575" y="-592.5" font-family="Helvetica,sans-Serif" font-size="10.00"> </text>
</g>
<!-- Node4&#45;&gt;Node1 -->
<g id="edge3" class="edge"><title>Node4&#45;&gt;Node1</title>
<path fill="none" stroke="#404040" d="M39.3872,-585.381C31.6646,-537.776 21.8679,-441.258 52.5465,-368 85.6065,-289.055 156.452,-220.632 211.835,-176.041"/>
<polygon fill="none" stroke="#404040" points="211.882,-176.004 214.095,-169.141 221.282,-168.544 219.069,-175.407 211.882,-176.004"/>
<text text-anchor="middle" x="76.163" y="-383" font-family="Helvetica,sans-Serif" font-size="10.00"> +pUpdate</text>
<text text-anchor="middle" x="76.163" y="-371" font-family="Helvetica,sans-Serif" font-size="10.00">+pIndices</text>
</g>
<!-- Node5 -->
<g id="node5" class="node"><title>Node5</title>
<g id="a_node5"><a xlink:title="STL class. ">
<polygon fill="white" stroke="#bfbfbf" points="153.224,-815.5 153.224,-875.5 238.691,-875.5 238.691,-815.5 153.224,-815.5"/>
<text text-anchor="middle" x="195.957" y="-862.5" font-family="Helvetica,sans-Serif" font-size="10.00">std::vector&lt; T &gt;</text>
<polyline fill="none" stroke="#bfbfbf" points="153.224,-855.5 238.691,-855.5 "/>
<text text-anchor="middle" x="195.957" y="-842.5" font-family="Helvetica,sans-Serif" font-size="10.00"> </text>
<polyline fill="none" stroke="#bfbfbf" points="153.224,-835.5 238.691,-835.5 "/>
<text text-anchor="middle" x="195.957" y="-822.5" font-family="Helvetica,sans-Serif" font-size="10.00"> </text>
</a>
</g>
</g>
<!-- Node5&#45;&gt;Node4 -->
<g id="edge4" class="edge"><title>Node5&#45;&gt;Node4</title>
<path fill="none" stroke="orange" d="M144.04,-820.597C117.225,-805.561 86.4268,-783.567 68.3855,-755 47.3551,-721.7 43.5352,-675.295 43.5807,-645.572"/>
<polygon fill="orange" stroke="orange" points="142.497,-823.742 152.957,-825.429 145.832,-817.587 142.497,-823.742"/>
<text text-anchor="middle" x="84.2435" y="-746" font-family="Helvetica,sans-Serif" font-size="10.00"> &lt; int &gt;</text>
</g>
<!-- Node7 -->
<g id="node7" class="node"><title>Node7</title>
<polygon fill="white" stroke="#bfbfbf" points="256.936,-664.5 256.936,-724.5 372.978,-724.5 372.978,-664.5 256.936,-664.5"/>
<text text-anchor="middle" x="314.957" y="-711.5" font-family="Helvetica,sans-Serif" font-size="10.00">std::vector&lt; AOnode &gt;</text>
<polyline fill="none" stroke="#bfbfbf" points="256.936,-704.5 372.978,-704.5 "/>
<text text-anchor="middle" x="314.957" y="-691.5" font-family="Helvetica,sans-Serif" font-size="10.00"> </text>
<polyline fill="none" stroke="#bfbfbf" points="256.936,-684.5 372.978,-684.5 "/>
<text text-anchor="middle" x="314.957" y="-671.5" font-family="Helvetica,sans-Serif" font-size="10.00"> </text>
</g>
<!-- Node5&#45;&gt;Node7 -->
<g id="edge16" class="edge"><title>Node5&#45;&gt;Node7</title>
<path fill="none" stroke="orange" d="M201.235,-805.512C205.643,-785.086 213.678,-760.708 228.259,-743 236.004,-733.593 246.122,-725.75 256.701,-719.328"/>
<polygon fill="orange" stroke="orange" points="197.77,-804.991 199.296,-815.476 204.642,-806.328 197.77,-804.991"/>
<text text-anchor="middle" x="257.307" y="-746" font-family="Helvetica,sans-Serif" font-size="10.00"> &lt; AOnode &gt;</text>
</g>
<!-- Node9 -->
<g id="node9" class="node"><title>Node9</title>
<polygon fill="white" stroke="#bfbfbf" points="428.602,-664.5 428.602,-724.5 551.312,-724.5 551.312,-664.5 428.602,-664.5"/>
<text text-anchor="middle" x="489.957" y="-711.5" font-family="Helvetica,sans-Serif" font-size="10.00">std::vector&lt; AOnode * &gt;</text>
<polyline fill="none" stroke="#bfbfbf" points="428.602,-704.5 551.312,-704.5 "/>
<text text-anchor="middle" x="489.957" y="-691.5" font-family="Helvetica,sans-Serif" font-size="10.00"> </text>
<polyline fill="none" stroke="#bfbfbf" points="428.602,-684.5 551.312,-684.5 "/>
<text text-anchor="middle" x="489.957" y="-671.5" font-family="Helvetica,sans-Serif" font-size="10.00"> </text>
</g>
<!-- Node5&#45;&gt;Node9 -->
<g id="edge10" class="edge"><title>Node5&#45;&gt;Node9</title>
<path fill="none" stroke="orange" d="M234.924,-808.816C261.049,-786.732 297.215,-759.532 333.591,-743 367.309,-727.676 379.533,-735.812 414.957,-725 419.374,-723.652 423.898,-722.162 428.428,-720.587"/>
<polygon fill="orange" stroke="orange" points="232.459,-806.319 227.15,-815.488 237.018,-811.631 232.459,-806.319"/>
<text text-anchor="middle" x="365.641" y="-746" font-family="Helvetica,sans-Serif" font-size="10.00"> &lt; AOnode * &gt;</text>
</g>
<!-- Node10 -->
<g id="node10" class="node"><title>Node10</title>
<polygon fill="white" stroke="#bfbfbf" points="429.447,-289.5 429.447,-349.5 550.468,-349.5 550.468,-289.5 429.447,-289.5"/>
<text text-anchor="middle" x="489.957" y="-336.5" font-family="Helvetica,sans-Serif" font-size="10.00">std::vector&lt; HyperArc &gt;</text>
<polyline fill="none" stroke="#bfbfbf" points="429.447,-329.5 550.468,-329.5 "/>
<text text-anchor="middle" x="489.957" y="-316.5" font-family="Helvetica,sans-Serif" font-size="10.00"> </text>
<polyline fill="none" stroke="#bfbfbf" points="429.447,-309.5 550.468,-309.5 "/>
<text text-anchor="middle" x="489.957" y="-296.5" font-family="Helvetica,sans-Serif" font-size="10.00"> </text>
</g>
<!-- Node5&#45;&gt;Node10 -->
<g id="edge15" class="edge"><title>Node5&#45;&gt;Node10</title>
<path fill="none" stroke="orange" d="M229.133,-808.252C250.986,-786.402 281.323,-759.666 312.957,-743 340.997,-728.228 360.381,-748.214 381.957,-725 430.414,-672.865 415.834,-476.964 439.957,-410 447.619,-388.734 459.984,-366.541 470.501,-349.575"/>
<polygon fill="orange" stroke="orange" points="226.57,-805.866 222.058,-815.452 231.563,-810.772 226.57,-805.866"/>
<text text-anchor="middle" x="449.797" y="-612.5" font-family="Helvetica,sans-Serif" font-size="10.00"> &lt; HyperArc &gt;</text>
</g>
<!-- Node12 -->
<g id="node12" class="node"><title>Node12</title>
<polygon fill="white" stroke="#bfbfbf" points="151.995,-289.5 151.995,-349.5 251.919,-349.5 251.919,-289.5 151.995,-289.5"/>
<text text-anchor="middle" x="201.957" y="-336.5" font-family="Helvetica,sans-Serif" font-size="10.00">std::vector&lt; Path &gt;</text>
<polyline fill="none" stroke="#bfbfbf" points="151.995,-329.5 251.919,-329.5 "/>
<text text-anchor="middle" x="201.957" y="-316.5" font-family="Helvetica,sans-Serif" font-size="10.00"> </text>
<polyline fill="none" stroke="#bfbfbf" points="151.995,-309.5 251.919,-309.5 "/>
<text text-anchor="middle" x="201.957" y="-296.5" font-family="Helvetica,sans-Serif" font-size="10.00"> </text>
</g>
<!-- Node5&#45;&gt;Node12 -->
<g id="edge22" class="edge"><title>Node5&#45;&gt;Node12</title>
<path fill="none" stroke="orange" d="M169.459,-806.668C155.291,-784.097 139.29,-754.22 131.957,-725 114.636,-655.969 98.7272,-567.531 147.957,-410 154.724,-388.348 167.757,-366.503 179.324,-349.814"/>
<polygon fill="orange" stroke="orange" points="166.626,-808.734 174.979,-815.252 172.514,-804.948 166.626,-808.734"/>
<text text-anchor="middle" x="138.248" y="-612.5" font-family="Helvetica,sans-Serif" font-size="10.00"> &lt; Path &gt;</text>
</g>
<!-- Node14 -->
<g id="node14" class="node"><title>Node14</title>
<polygon fill="white" stroke="#bfbfbf" points="140.83,-664.5 140.83,-724.5 239.084,-724.5 239.084,-664.5 140.83,-664.5"/>
<text text-anchor="middle" x="189.957" y="-711.5" font-family="Helvetica,sans-Serif" font-size="10.00">std::vector&lt; bool &gt;</text>
<polyline fill="none" stroke="#bfbfbf" points="140.83,-704.5 239.084,-704.5 "/>
<text text-anchor="start" x="148.83" y="-691.5" font-family="Helvetica,sans-Serif" font-size="10.00">+ elements</text>
<polyline fill="none" stroke="#bfbfbf" points="140.83,-684.5 239.084,-684.5 "/>
<text text-anchor="middle" x="189.957" y="-671.5" font-family="Helvetica,sans-Serif" font-size="10.00"> </text>
</g>
<!-- Node5&#45;&gt;Node14 -->
<g id="edge21" class="edge"><title>Node5&#45;&gt;Node14</title>
<path fill="none" stroke="orange" d="M174.897,-806.227C167.007,-787.325 161.035,-764.101 166.047,-743 167.519,-736.802 169.934,-730.494 172.678,-724.587"/>
<polygon fill="orange" stroke="orange" points="171.729,-807.717 179.017,-815.407 178.116,-804.85 171.729,-807.717"/>
<text text-anchor="middle" x="186.413" y="-746" font-family="Helvetica,sans-Serif" font-size="10.00"> &lt; bool &gt;</text>
</g>
<!-- Node6 -->
<g id="node6" class="node"><title>Node6</title>
<polygon fill="white" stroke="#bfbfbf" points="181.457,-966.5 181.457,-1026.5 210.457,-1026.5 210.457,-966.5 181.457,-966.5"/>
<text text-anchor="middle" x="195.512" y="-1013.5" font-family="Helvetica,sans-Serif" font-size="10.00">T</text>
<polyline fill="none" stroke="#bfbfbf" points="181.457,-1006.5 209.566,-1006.5 "/>
<text text-anchor="middle" x="195.512" y="-993.5" font-family="Helvetica,sans-Serif" font-size="10.00"> </text>
<polyline fill="none" stroke="#bfbfbf" points="181.457,-986.5 209.566,-986.5 "/>
<text text-anchor="middle" x="195.512" y="-973.5" font-family="Helvetica,sans-Serif" font-size="10.00"> </text>
</g>
<!-- Node6&#45;&gt;Node5 -->
<g id="edge5" class="edge"><title>Node6&#45;&gt;Node5</title>
<path fill="none" stroke="#404040" d="M195.957,-966.418C195.957,-943.958 195.957,-912.593 195.957,-887.573"/>
<polygon fill="none" stroke="#404040" points="195.958,-887.509 191.958,-881.509 195.957,-875.509 199.958,-881.509 195.958,-887.509"/>
<text text-anchor="middle" x="220.548" y="-939" font-family="Helvetica,sans-Serif" font-size="10.00"> +elements</text>
</g>
<!-- Node7&#45;&gt;Node1 -->
<g id="edge6" class="edge"><title>Node7&#45;&gt;Node1</title>
<path fill="none" stroke="#404040" d="M305.795,-664.342C304.242,-658.333 302.846,-652.005 301.957,-646 282.297,-513.139 280.639,-359.335 282.769,-252.784"/>
<polygon fill="none" stroke="#404040" points="282.771,-252.677 278.902,-246.592 283.031,-240.68 286.9,-246.765 282.771,-252.677"/>
<text text-anchor="middle" x="300.049" y="-377" font-family="Helvetica,sans-Serif" font-size="10.00"> +graph</text>
</g>
<!-- Node8&#45;&gt;Node1 -->
<g id="edge23" class="edge"><title>Node8&#45;&gt;Node1</title>
<path fill="none" stroke="#404040" d="M623.617,-773.342C634.964,-749.537 643.957,-722.236 643.957,-695.5 643.957,-695.5 643.957,-695.5 643.957,-318.5 643.957,-192.798 471.935,-146.663 367.047,-130.216"/>
<polygon fill="none" stroke="#404040" points="366.786,-130.177 360.259,-133.244 354.918,-128.399 361.445,-125.332 366.786,-130.177"/>
<text text-anchor="middle" x="659.385" y="-485.5" font-family="Helvetica,sans-Serif" font-size="10.00"> +head</text>
</g>
<!-- Node8&#45;&gt;Node7 -->
<g id="edge7" class="edge"><title>Node8&#45;&gt;Node7</title>
<path fill="none" stroke="#404040" d="M532.146,-818.546C489.184,-794.206 424.608,-757.622 377.032,-730.667"/>
<polygon fill="none" stroke="#404040" points="376.986,-730.642 369.794,-731.164 366.545,-724.727 373.737,-724.204 376.986,-730.642"/>
<text text-anchor="middle" x="440.548" y="-746" font-family="Helvetica,sans-Serif" font-size="10.00"> +elements</text>
</g>
<!-- Node8&#45;&gt;Node9 -->
<g id="edge9" class="edge"><title>Node8&#45;&gt;Node9</title>
<path fill="none" stroke="#404040" d="M549.909,-773.359C544.792,-762.887 539.104,-752.454 532.957,-743 531.053,-740.071 528.969,-737.146 526.778,-734.268"/>
<polygon fill="none" stroke="#404040" points="526.59,-734.037 519.701,-731.904 519.02,-724.725 525.909,-726.858 526.59,-734.037"/>
<text text-anchor="middle" x="564.548" y="-746" font-family="Helvetica,sans-Serif" font-size="10.00"> +elements</text>
</g>
<!-- Node9&#45;&gt;Node8 -->
<g id="edge8" class="edge"><title>Node9&#45;&gt;Node8</title>
<path fill="none" stroke="#404040" d="M486.217,-724.532C486.022,-734.519 487.067,-745.556 490.995,-755 498.163,-772.229 510.352,-787.996 523.372,-801.335"/>
<polygon fill="none" stroke="#404040" points="523.406,-801.368 530.495,-802.689 532.003,-809.74 524.914,-808.42 523.406,-801.368"/>
<text text-anchor="middle" x="512.938" y="-746" font-family="Helvetica,sans-Serif" font-size="10.00"> +parents</text>
</g>
<!-- Node11 -->
<g id="node11" class="node"><title>Node11</title>
<g id="a_node11"><a xlink:href="../../db/dba/classHyperArc.xhtml" target="_top" xlink:title="class &quot;HyperArc&quot; for the hyperarc connecting one parent node to a number of child nodes in an AND rel...">
<polygon fill="white" stroke="black" points="448.76,-446.5 448.76,-530.5 531.155,-530.5 531.155,-446.5 448.76,-446.5"/>
<text text-anchor="middle" x="489.957" y="-517.5" font-family="Helvetica,sans-Serif" font-size="10.00">HyperArc</text>
<polyline fill="none" stroke="black" points="448.76,-510.5 531.155,-510.5 "/>
<text text-anchor="start" x="456.76" y="-497.5" font-family="Helvetica,sans-Serif" font-size="10.00">+ hCost</text>
<polyline fill="none" stroke="black" points="448.76,-490.5 531.155,-490.5 "/>
<text text-anchor="start" x="456.76" y="-477.5" font-family="Helvetica,sans-Serif" font-size="10.00">+ HyperArc()</text>
<text text-anchor="start" x="456.76" y="-465.5" font-family="Helvetica,sans-Serif" font-size="10.00">+ printArcInfo()</text>
<text text-anchor="start" x="456.76" y="-453.5" font-family="Helvetica,sans-Serif" font-size="10.00">+ ~HyperArc()</text>
</a>
</g>
</g>
<!-- Node9&#45;&gt;Node11 -->
<g id="edge14" class="edge"><title>Node9&#45;&gt;Node11</title>
<path fill="none" stroke="#404040" d="M489.957,-664.272C489.957,-632.659 489.957,-581.585 489.957,-542.794"/>
<polygon fill="none" stroke="#404040" points="489.958,-542.671 485.958,-536.671 489.957,-530.671 493.958,-536.671 489.958,-542.671"/>
<text text-anchor="middle" x="511.768" y="-612.5" font-family="Helvetica,sans-Serif" font-size="10.00"> +children</text>
</g>
<!-- Node13 -->
<g id="node13" class="node"><title>Node13</title>
<g id="a_node13"><a xlink:href="../../db/dc7/classPath.xhtml" target="_top" xlink:title="class &quot;Path&quot; for each unique path traversing the graph from the head to the leaves ...">
<polygon fill="white" stroke="black" points="156.864,-410.5 156.864,-566.5 247.051,-566.5 247.051,-410.5 156.864,-410.5"/>
<text text-anchor="middle" x="201.957" y="-553.5" font-family="Helvetica,sans-Serif" font-size="10.00">Path</text>
<polyline fill="none" stroke="black" points="156.864,-546.5 247.051,-546.5 "/>
<text text-anchor="start" x="164.864" y="-533.5" font-family="Helvetica,sans-Serif" font-size="10.00">+ pIndex</text>
<text text-anchor="start" x="164.864" y="-521.5" font-family="Helvetica,sans-Serif" font-size="10.00">+ pCost</text>
<text text-anchor="start" x="164.864" y="-509.5" font-family="Helvetica,sans-Serif" font-size="10.00">+ pComplete</text>
<polyline fill="none" stroke="black" points="156.864,-502.5 247.051,-502.5 "/>
<text text-anchor="start" x="164.864" y="-489.5" font-family="Helvetica,sans-Serif" font-size="10.00">+ Path()</text>
<text text-anchor="start" x="164.864" y="-477.5" font-family="Helvetica,sans-Serif" font-size="10.00">+ Path()</text>
<text text-anchor="start" x="164.864" y="-465.5" font-family="Helvetica,sans-Serif" font-size="10.00">+ printPathInfo()</text>
<text text-anchor="start" x="164.864" y="-453.5" font-family="Helvetica,sans-Serif" font-size="10.00">+ addNode()</text>
<text text-anchor="start" x="164.864" y="-441.5" font-family="Helvetica,sans-Serif" font-size="10.00">+ updatePath()</text>
<text text-anchor="start" x="164.864" y="-429.5" font-family="Helvetica,sans-Serif" font-size="10.00">+ suggestNode()</text>
<text text-anchor="start" x="164.864" y="-417.5" font-family="Helvetica,sans-Serif" font-size="10.00">+ ~Path()</text>
</a>
</g>
</g>
<!-- Node9&#45;&gt;Node13 -->
<g id="edge19" class="edge"><title>Node9&#45;&gt;Node13</title>
<path fill="none" stroke="#404040" d="M428.147,-676.508C381.216,-663.53 324.325,-647.599 321.987,-646 293.956,-626.823 296.588,-611.98 275.957,-585 269.055,-575.973 261.759,-566.489 254.546,-557.146"/>
<polygon fill="none" stroke="#404040" points="254.418,-556.981 247.584,-554.68 247.079,-547.486 253.913,-549.787 254.418,-556.981"/>
<text text-anchor="middle" x="351.442" y="-612.5" font-family="Helvetica,sans-Serif" font-size="10.00"> +pathNodes</text>
</g>
<!-- Node10&#45;&gt;Node8 -->
<g id="edge12" class="edge"><title>Node10&#45;&gt;Node8</title>
<path fill="none" stroke="#404040" d="M529.232,-349.596C534.582,-355.152 539.435,-361.337 542.957,-368 621.541,-516.648 581.822,-575.228 592.957,-743 593.346,-748.857 593.386,-754.888 593.161,-760.951"/>
<polygon fill="none" stroke="#404040" points="593.131,-761.421 596.733,-767.668 592.353,-773.396 588.75,-767.149 593.131,-761.421"/>
<text text-anchor="middle" x="607.711" y="-612.5" font-family="Helvetica,sans-Serif" font-size="10.00"> +arcs</text>
</g>
<!-- Node11&#45;&gt;Node10 -->
<g id="edge13" class="edge"><title>Node11&#45;&gt;Node10</title>
<path fill="none" stroke="#404040" d="M489.957,-446.219C489.957,-420.522 489.957,-387.584 489.957,-361.87"/>
<polygon fill="none" stroke="#404040" points="489.958,-361.525 485.958,-355.525 489.957,-349.525 493.958,-355.525 489.958,-361.525"/>
<text text-anchor="middle" x="514.548" y="-377" font-family="Helvetica,sans-Serif" font-size="10.00"> +elements</text>
</g>
<!-- Node12&#45;&gt;Node1 -->
<g id="edge17" class="edge"><title>Node12&#45;&gt;Node1</title>
<path fill="none" stroke="#404040" d="M214.647,-289.432C219.329,-278.706 224.987,-265.746 231.059,-251.837"/>
<polygon fill="none" stroke="#404040" points="231.206,-251.501 229.94,-244.402 236.007,-240.503 237.272,-247.603 231.206,-251.501"/>
<text text-anchor="middle" x="244.495" y="-262" font-family="Helvetica,sans-Serif" font-size="10.00"> +paths</text>
</g>
<!-- Node13&#45;&gt;Node12 -->
<g id="edge18" class="edge"><title>Node13&#45;&gt;Node12</title>
<path fill="none" stroke="#404040" d="M201.957,-410.355C201.957,-393.698 201.957,-376.701 201.957,-362.038"/>
<polygon fill="none" stroke="#404040" points="201.958,-361.819 197.958,-355.819 201.957,-349.819 205.958,-355.819 201.958,-361.819"/>
<text text-anchor="middle" x="226.548" y="-377" font-family="Helvetica,sans-Serif" font-size="10.00"> +elements</text>
</g>
<!-- Node14&#45;&gt;Node13 -->
<g id="edge20" class="edge"><title>Node14&#45;&gt;Node13</title>
<path fill="none" stroke="#404040" d="M191.677,-664.272C192.998,-641.805 194.898,-609.508 196.706,-578.777"/>
<polygon fill="none" stroke="#404040" points="196.715,-578.628 193.074,-572.403 197.419,-566.649 201.06,-572.873 196.715,-578.628"/>
<text text-anchor="middle" x="234.332" y="-612.5" font-family="Helvetica,sans-Serif" font-size="10.00"> +checkedNodes</text>
</g>
</g>
</svg>
